<?xml version="1.0" encoding="utf-8"?>
<svg xmlns="http://www.w3.org/2000/svg" xmlns:xlink="http://www.w3.org/1999/xlink" width="600" height="400" viewBox="0 0 2400 1600">
<defs>
  <clipPath id="clip610">
    <rect x="0" y="0" width="2400" height="1600"/>
  </clipPath>
</defs>
<path clip-path="url(#clip610)" d="M0 1600 L2400 1600 L2400 0 L0 0  Z" fill="#ffffff" fill-rule="evenodd" fill-opacity="1"/>
<defs>
  <clipPath id="clip611">
    <rect x="480" y="0" width="1681" height="1600"/>
  </clipPath>
</defs>
<path clip-path="url(#clip610)" d="M156.598 1486.45 L2352.76 1486.45 L2352.76 47.2441 L156.598 47.2441  Z" fill="#ffffff" fill-rule="evenodd" fill-opacity="1"/>
<defs>
  <clipPath id="clip612">
    <rect x="156" y="47" width="2197" height="1440"/>
  </clipPath>
</defs>
<polyline clip-path="url(#clip612)" style="stroke:#000000; stroke-linecap:round; stroke-linejoin:round; stroke-width:2; stroke-opacity:0.1; fill:none" points="218.754,1486.45 218.754,47.2441 "/>
<polyline clip-path="url(#clip612)" style="stroke:#000000; stroke-linecap:round; stroke-linejoin:round; stroke-width:2; stroke-opacity:0.1; fill:none" points="425.938,1486.45 425.938,47.2441 "/>
<polyline clip-path="url(#clip612)" style="stroke:#000000; stroke-linecap:round; stroke-linejoin:round; stroke-width:2; stroke-opacity:0.1; fill:none" points="633.123,1486.45 633.123,47.2441 "/>
<polyline clip-path="url(#clip612)" style="stroke:#000000; stroke-linecap:round; stroke-linejoin:round; stroke-width:2; stroke-opacity:0.1; fill:none" points="840.308,1486.45 840.308,47.2441 "/>
<polyline clip-path="url(#clip612)" style="stroke:#000000; stroke-linecap:round; stroke-linejoin:round; stroke-width:2; stroke-opacity:0.1; fill:none" points="1047.49,1486.45 1047.49,47.2441 "/>
<polyline clip-path="url(#clip612)" style="stroke:#000000; stroke-linecap:round; stroke-linejoin:round; stroke-width:2; stroke-opacity:0.1; fill:none" points="1254.68,1486.45 1254.68,47.2441 "/>
<polyline clip-path="url(#clip612)" style="stroke:#000000; stroke-linecap:round; stroke-linejoin:round; stroke-width:2; stroke-opacity:0.1; fill:none" points="1461.86,1486.45 1461.86,47.2441 "/>
<polyline clip-path="url(#clip612)" style="stroke:#000000; stroke-linecap:round; stroke-linejoin:round; stroke-width:2; stroke-opacity:0.1; fill:none" points="1669.05,1486.45 1669.05,47.2441 "/>
<polyline clip-path="url(#clip612)" style="stroke:#000000; stroke-linecap:round; stroke-linejoin:round; stroke-width:2; stroke-opacity:0.1; fill:none" points="1876.23,1486.45 1876.23,47.2441 "/>
<polyline clip-path="url(#clip612)" style="stroke:#000000; stroke-linecap:round; stroke-linejoin:round; stroke-width:2; stroke-opacity:0.1; fill:none" points="2083.42,1486.45 2083.42,47.2441 "/>
<polyline clip-path="url(#clip612)" style="stroke:#000000; stroke-linecap:round; stroke-linejoin:round; stroke-width:2; stroke-opacity:0.1; fill:none" points="2290.6,1486.45 2290.6,47.2441 "/>
<polyline clip-path="url(#clip610)" style="stroke:#000000; stroke-linecap:round; stroke-linejoin:round; stroke-width:4; stroke-opacity:1; fill:none" points="156.598,1486.45 2352.76,1486.45 "/>
<polyline clip-path="url(#clip610)" style="stroke:#000000; stroke-linecap:round; stroke-linejoin:round; stroke-width:4; stroke-opacity:1; fill:none" points="218.754,1486.45 218.754,1467.55 "/>
<polyline clip-path="url(#clip610)" style="stroke:#000000; stroke-linecap:round; stroke-linejoin:round; stroke-width:4; stroke-opacity:1; fill:none" points="425.938,1486.45 425.938,1467.55 "/>
<polyline clip-path="url(#clip610)" style="stroke:#000000; stroke-linecap:round; stroke-linejoin:round; stroke-width:4; stroke-opacity:1; fill:none" points="633.123,1486.45 633.123,1467.55 "/>
<polyline clip-path="url(#clip610)" style="stroke:#000000; stroke-linecap:round; stroke-linejoin:round; stroke-width:4; stroke-opacity:1; fill:none" points="840.308,1486.45 840.308,1467.55 "/>
<polyline clip-path="url(#clip610)" style="stroke:#000000; stroke-linecap:round; stroke-linejoin:round; stroke-width:4; stroke-opacity:1; fill:none" points="1047.49,1486.45 1047.49,1467.55 "/>
<polyline clip-path="url(#clip610)" style="stroke:#000000; stroke-linecap:round; stroke-linejoin:round; stroke-width:4; stroke-opacity:1; fill:none" points="1254.68,1486.45 1254.68,1467.55 "/>
<polyline clip-path="url(#clip610)" style="stroke:#000000; stroke-linecap:round; stroke-linejoin:round; stroke-width:4; stroke-opacity:1; fill:none" points="1461.86,1486.45 1461.86,1467.55 "/>
<polyline clip-path="url(#clip610)" style="stroke:#000000; stroke-linecap:round; stroke-linejoin:round; stroke-width:4; stroke-opacity:1; fill:none" points="1669.05,1486.45 1669.05,1467.55 "/>
<polyline clip-path="url(#clip610)" style="stroke:#000000; stroke-linecap:round; stroke-linejoin:round; stroke-width:4; stroke-opacity:1; fill:none" points="1876.23,1486.45 1876.23,1467.55 "/>
<polyline clip-path="url(#clip610)" style="stroke:#000000; stroke-linecap:round; stroke-linejoin:round; stroke-width:4; stroke-opacity:1; fill:none" points="2083.42,1486.45 2083.42,1467.55 "/>
<polyline clip-path="url(#clip610)" style="stroke:#000000; stroke-linecap:round; stroke-linejoin:round; stroke-width:4; stroke-opacity:1; fill:none" points="2290.6,1486.45 2290.6,1467.55 "/>
<path clip-path="url(#clip610)" d="M181.057 1517.37 Q177.446 1517.37 175.617 1520.93 Q173.812 1524.47 173.812 1531.6 Q173.812 1538.71 175.617 1542.27 Q177.446 1545.82 181.057 1545.82 Q184.691 1545.82 186.497 1542.27 Q188.326 1538.71 188.326 1531.6 Q188.326 1524.47 186.497 1520.93 Q184.691 1517.37 181.057 1517.37 M181.057 1513.66 Q186.867 1513.66 189.923 1518.27 Q193.001 1522.85 193.001 1531.6 Q193.001 1540.33 189.923 1544.94 Q186.867 1549.52 181.057 1549.52 Q175.247 1549.52 172.168 1544.94 Q169.113 1540.33 169.113 1531.6 Q169.113 1522.85 172.168 1518.27 Q175.247 1513.66 181.057 1513.66 Z" fill="#000000" fill-rule="nonzero" fill-opacity="1" /><path clip-path="url(#clip610)" d="M201.219 1542.97 L206.103 1542.97 L206.103 1548.85 L201.219 1548.85 L201.219 1542.97 Z" fill="#000000" fill-rule="nonzero" fill-opacity="1" /><path clip-path="url(#clip610)" d="M226.288 1517.37 Q222.677 1517.37 220.849 1520.93 Q219.043 1524.47 219.043 1531.6 Q219.043 1538.71 220.849 1542.27 Q222.677 1545.82 226.288 1545.82 Q229.923 1545.82 231.728 1542.27 Q233.557 1538.71 233.557 1531.6 Q233.557 1524.47 231.728 1520.93 Q229.923 1517.37 226.288 1517.37 M226.288 1513.66 Q232.098 1513.66 235.154 1518.27 Q238.233 1522.85 238.233 1531.6 Q238.233 1540.33 235.154 1544.94 Q232.098 1549.52 226.288 1549.52 Q220.478 1549.52 217.399 1544.94 Q214.344 1540.33 214.344 1531.6 Q214.344 1522.85 217.399 1518.27 Q220.478 1513.66 226.288 1513.66 Z" fill="#000000" fill-rule="nonzero" fill-opacity="1" /><path clip-path="url(#clip610)" d="M256.45 1517.37 Q252.839 1517.37 251.01 1520.93 Q249.205 1524.47 249.205 1531.6 Q249.205 1538.71 251.01 1542.27 Q252.839 1545.82 256.45 1545.82 Q260.084 1545.82 261.89 1542.27 Q263.719 1538.71 263.719 1531.6 Q263.719 1524.47 261.89 1520.93 Q260.084 1517.37 256.45 1517.37 M256.45 1513.66 Q262.26 1513.66 265.316 1518.27 Q268.395 1522.85 268.395 1531.6 Q268.395 1540.33 265.316 1544.94 Q262.26 1549.52 256.45 1549.52 Q250.64 1549.52 247.561 1544.94 Q244.506 1540.33 244.506 1531.6 Q244.506 1522.85 247.561 1518.27 Q250.64 1513.66 256.45 1513.66 Z" fill="#000000" fill-rule="nonzero" fill-opacity="1" /><path clip-path="url(#clip610)" d="M388.855 1517.37 Q385.244 1517.37 383.415 1520.93 Q381.61 1524.47 381.61 1531.6 Q381.61 1538.71 383.415 1542.27 Q385.244 1545.82 388.855 1545.82 Q392.489 1545.82 394.295 1542.27 Q396.124 1538.71 396.124 1531.6 Q396.124 1524.47 394.295 1520.93 Q392.489 1517.37 388.855 1517.37 M388.855 1513.66 Q394.665 1513.66 397.721 1518.27 Q400.8 1522.85 400.8 1531.6 Q400.8 1540.33 397.721 1544.94 Q394.665 1549.52 388.855 1549.52 Q383.045 1549.52 379.966 1544.94 Q376.911 1540.33 376.911 1531.6 Q376.911 1522.85 379.966 1518.27 Q383.045 1513.66 388.855 1513.66 Z" fill="#000000" fill-rule="nonzero" fill-opacity="1" /><path clip-path="url(#clip610)" d="M409.017 1542.97 L413.901 1542.97 L413.901 1548.85 L409.017 1548.85 L409.017 1542.97 Z" fill="#000000" fill-rule="nonzero" fill-opacity="1" /><path clip-path="url(#clip610)" d="M434.086 1517.37 Q430.475 1517.37 428.647 1520.93 Q426.841 1524.47 426.841 1531.6 Q426.841 1538.71 428.647 1542.27 Q430.475 1545.82 434.086 1545.82 Q437.721 1545.82 439.526 1542.27 Q441.355 1538.71 441.355 1531.6 Q441.355 1524.47 439.526 1520.93 Q437.721 1517.37 434.086 1517.37 M434.086 1513.66 Q439.897 1513.66 442.952 1518.27 Q446.031 1522.85 446.031 1531.6 Q446.031 1540.33 442.952 1544.94 Q439.897 1549.52 434.086 1549.52 Q428.276 1549.52 425.198 1544.94 Q422.142 1540.33 422.142 1531.6 Q422.142 1522.85 425.198 1518.27 Q428.276 1513.66 434.086 1513.66 Z" fill="#000000" fill-rule="nonzero" fill-opacity="1" /><path clip-path="url(#clip610)" d="M455.059 1544.91 L462.697 1544.91 L462.697 1518.55 L454.387 1520.21 L454.387 1515.95 L462.651 1514.29 L467.327 1514.29 L467.327 1544.91 L474.966 1544.91 L474.966 1548.85 L455.059 1548.85 L455.059 1544.91 Z" fill="#000000" fill-rule="nonzero" fill-opacity="1" /><path clip-path="url(#clip610)" d="M596.225 1517.37 Q592.614 1517.37 590.785 1520.93 Q588.98 1524.47 588.98 1531.6 Q588.98 1538.71 590.785 1542.27 Q592.614 1545.82 596.225 1545.82 Q599.859 1545.82 601.665 1542.27 Q603.494 1538.71 603.494 1531.6 Q603.494 1524.47 601.665 1520.93 Q599.859 1517.37 596.225 1517.37 M596.225 1513.66 Q602.035 1513.66 605.091 1518.27 Q608.169 1522.85 608.169 1531.6 Q608.169 1540.33 605.091 1544.94 Q602.035 1549.52 596.225 1549.52 Q590.415 1549.52 587.336 1544.94 Q584.281 1540.33 584.281 1531.6 Q584.281 1522.85 587.336 1518.27 Q590.415 1513.66 596.225 1513.66 Z" fill="#000000" fill-rule="nonzero" fill-opacity="1" /><path clip-path="url(#clip610)" d="M616.387 1542.97 L621.271 1542.97 L621.271 1548.85 L616.387 1548.85 L616.387 1542.97 Z" fill="#000000" fill-rule="nonzero" fill-opacity="1" /><path clip-path="url(#clip610)" d="M641.456 1517.37 Q637.845 1517.37 636.017 1520.93 Q634.211 1524.47 634.211 1531.6 Q634.211 1538.71 636.017 1542.27 Q637.845 1545.82 641.456 1545.82 Q645.091 1545.82 646.896 1542.27 Q648.725 1538.71 648.725 1531.6 Q648.725 1524.47 646.896 1520.93 Q645.091 1517.37 641.456 1517.37 M641.456 1513.66 Q647.266 1513.66 650.322 1518.27 Q653.401 1522.85 653.401 1531.6 Q653.401 1540.33 650.322 1544.94 Q647.266 1549.52 641.456 1549.52 Q635.646 1549.52 632.567 1544.94 Q629.512 1540.33 629.512 1531.6 Q629.512 1522.85 632.567 1518.27 Q635.646 1513.66 641.456 1513.66 Z" fill="#000000" fill-rule="nonzero" fill-opacity="1" /><path clip-path="url(#clip610)" d="M665.646 1544.91 L681.965 1544.91 L681.965 1548.85 L660.021 1548.85 L660.021 1544.91 Q662.683 1542.16 667.266 1537.53 Q671.873 1532.88 673.053 1531.53 Q675.299 1529.01 676.178 1527.27 Q677.081 1525.51 677.081 1523.82 Q677.081 1521.07 675.137 1519.33 Q673.215 1517.6 670.114 1517.6 Q667.914 1517.6 665.461 1518.36 Q663.03 1519.13 660.252 1520.68 L660.252 1515.95 Q663.077 1514.82 665.53 1514.24 Q667.984 1513.66 670.021 1513.66 Q675.391 1513.66 678.586 1516.35 Q681.78 1519.03 681.78 1523.52 Q681.78 1525.65 680.97 1527.57 Q680.183 1529.47 678.076 1532.07 Q677.498 1532.74 674.396 1535.95 Q671.294 1539.15 665.646 1544.91 Z" fill="#000000" fill-rule="nonzero" fill-opacity="1" /><path clip-path="url(#clip610)" d="M802.935 1517.37 Q799.324 1517.37 797.495 1520.93 Q795.69 1524.47 795.69 1531.6 Q795.69 1538.71 797.495 1542.27 Q799.324 1545.82 802.935 1545.82 Q806.569 1545.82 808.375 1542.27 Q810.204 1538.71 810.204 1531.6 Q810.204 1524.47 808.375 1520.93 Q806.569 1517.37 802.935 1517.37 M802.935 1513.66 Q808.745 1513.66 811.801 1518.27 Q814.88 1522.85 814.88 1531.6 Q814.88 1540.33 811.801 1544.94 Q808.745 1549.52 802.935 1549.52 Q797.125 1549.52 794.046 1544.94 Q790.991 1540.33 790.991 1531.6 Q790.991 1522.85 794.046 1518.27 Q797.125 1513.66 802.935 1513.66 Z" fill="#000000" fill-rule="nonzero" fill-opacity="1" /><path clip-path="url(#clip610)" d="M823.097 1542.97 L827.981 1542.97 L827.981 1548.85 L823.097 1548.85 L823.097 1542.97 Z" fill="#000000" fill-rule="nonzero" fill-opacity="1" /><path clip-path="url(#clip610)" d="M848.166 1517.37 Q844.555 1517.37 842.727 1520.93 Q840.921 1524.47 840.921 1531.6 Q840.921 1538.71 842.727 1542.27 Q844.555 1545.82 848.166 1545.82 Q851.801 1545.82 853.606 1542.27 Q855.435 1538.71 855.435 1531.6 Q855.435 1524.47 853.606 1520.93 Q851.801 1517.37 848.166 1517.37 M848.166 1513.66 Q853.977 1513.66 857.032 1518.27 Q860.111 1522.85 860.111 1531.6 Q860.111 1540.33 857.032 1544.94 Q853.977 1549.52 848.166 1549.52 Q842.356 1549.52 839.278 1544.94 Q836.222 1540.33 836.222 1531.6 Q836.222 1522.85 839.278 1518.27 Q842.356 1513.66 848.166 1513.66 Z" fill="#000000" fill-rule="nonzero" fill-opacity="1" /><path clip-path="url(#clip610)" d="M882.495 1530.21 Q885.851 1530.93 887.726 1533.2 Q889.625 1535.47 889.625 1538.8 Q889.625 1543.92 886.106 1546.72 Q882.588 1549.52 876.106 1549.52 Q873.93 1549.52 871.615 1549.08 Q869.324 1548.66 866.87 1547.81 L866.87 1543.29 Q868.814 1544.43 871.129 1545.01 Q873.444 1545.58 875.967 1545.58 Q880.365 1545.58 882.657 1543.85 Q884.972 1542.11 884.972 1538.8 Q884.972 1535.75 882.819 1534.03 Q880.689 1532.3 876.87 1532.3 L872.842 1532.3 L872.842 1528.45 L877.055 1528.45 Q880.504 1528.45 882.333 1527.09 Q884.162 1525.7 884.162 1523.11 Q884.162 1520.45 882.263 1519.03 Q880.389 1517.6 876.87 1517.6 Q874.949 1517.6 872.75 1518.01 Q870.551 1518.43 867.912 1519.31 L867.912 1515.14 Q870.574 1514.4 872.889 1514.03 Q875.226 1513.66 877.287 1513.66 Q882.611 1513.66 885.713 1516.09 Q888.814 1518.5 888.814 1522.62 Q888.814 1525.49 887.171 1527.48 Q885.527 1529.45 882.495 1530.21 Z" fill="#000000" fill-rule="nonzero" fill-opacity="1" /><path clip-path="url(#clip610)" d="M1009.55 1517.37 Q1005.94 1517.37 1004.11 1520.93 Q1002.31 1524.47 1002.31 1531.6 Q1002.31 1538.71 1004.11 1542.27 Q1005.94 1545.82 1009.55 1545.82 Q1013.19 1545.82 1014.99 1542.27 Q1016.82 1538.71 1016.82 1531.6 Q1016.82 1524.47 1014.99 1520.93 Q1013.19 1517.37 1009.55 1517.37 M1009.55 1513.66 Q1015.36 1513.66 1018.42 1518.27 Q1021.5 1522.85 1021.5 1531.6 Q1021.5 1540.33 1018.42 1544.94 Q1015.36 1549.52 1009.55 1549.52 Q1003.74 1549.52 1000.66 1544.94 Q997.608 1540.33 997.608 1531.6 Q997.608 1522.85 1000.66 1518.27 Q1003.74 1513.66 1009.55 1513.66 Z" fill="#000000" fill-rule="nonzero" fill-opacity="1" /><path clip-path="url(#clip610)" d="M1029.71 1542.97 L1034.6 1542.97 L1034.6 1548.85 L1029.71 1548.85 L1029.71 1542.97 Z" fill="#000000" fill-rule="nonzero" fill-opacity="1" /><path clip-path="url(#clip610)" d="M1054.78 1517.37 Q1051.17 1517.37 1049.34 1520.93 Q1047.54 1524.47 1047.54 1531.6 Q1047.54 1538.71 1049.34 1542.27 Q1051.17 1545.82 1054.78 1545.82 Q1058.42 1545.82 1060.22 1542.27 Q1062.05 1538.71 1062.05 1531.6 Q1062.05 1524.47 1060.22 1520.93 Q1058.42 1517.37 1054.78 1517.37 M1054.78 1513.66 Q1060.59 1513.66 1063.65 1518.27 Q1066.73 1522.85 1066.73 1531.6 Q1066.73 1540.33 1063.65 1544.94 Q1060.59 1549.52 1054.78 1549.52 Q1048.97 1549.52 1045.9 1544.94 Q1042.84 1540.33 1042.84 1531.6 Q1042.84 1522.85 1045.9 1518.27 Q1048.97 1513.66 1054.78 1513.66 Z" fill="#000000" fill-rule="nonzero" fill-opacity="1" /><path clip-path="url(#clip610)" d="M1087.79 1518.36 L1075.99 1536.81 L1087.79 1536.81 L1087.79 1518.36 M1086.57 1514.29 L1092.45 1514.29 L1092.45 1536.81 L1097.38 1536.81 L1097.38 1540.7 L1092.45 1540.7 L1092.45 1548.85 L1087.79 1548.85 L1087.79 1540.7 L1072.19 1540.7 L1072.19 1536.19 L1086.57 1514.29 Z" fill="#000000" fill-rule="nonzero" fill-opacity="1" /><path clip-path="url(#clip610)" d="M1217.48 1517.37 Q1213.87 1517.37 1212.04 1520.93 Q1210.23 1524.47 1210.23 1531.6 Q1210.23 1538.71 1212.04 1542.27 Q1213.87 1545.82 1217.48 1545.82 Q1221.11 1545.82 1222.92 1542.27 Q1224.75 1538.71 1224.75 1531.6 Q1224.75 1524.47 1222.92 1520.93 Q1221.11 1517.37 1217.48 1517.37 M1217.48 1513.66 Q1223.29 1513.66 1226.34 1518.27 Q1229.42 1522.85 1229.42 1531.6 Q1229.42 1540.33 1226.34 1544.94 Q1223.29 1549.52 1217.48 1549.52 Q1211.67 1549.52 1208.59 1544.94 Q1205.53 1540.33 1205.53 1531.6 Q1205.53 1522.85 1208.59 1518.27 Q1211.67 1513.66 1217.48 1513.66 Z" fill="#000000" fill-rule="nonzero" fill-opacity="1" /><path clip-path="url(#clip610)" d="M1237.64 1542.97 L1242.52 1542.97 L1242.52 1548.85 L1237.64 1548.85 L1237.64 1542.97 Z" fill="#000000" fill-rule="nonzero" fill-opacity="1" /><path clip-path="url(#clip610)" d="M1262.71 1517.37 Q1259.1 1517.37 1257.27 1520.93 Q1255.46 1524.47 1255.46 1531.6 Q1255.46 1538.71 1257.27 1542.27 Q1259.1 1545.82 1262.71 1545.82 Q1266.34 1545.82 1268.15 1542.27 Q1269.98 1538.71 1269.98 1531.6 Q1269.98 1524.47 1268.15 1520.93 Q1266.34 1517.37 1262.71 1517.37 M1262.71 1513.66 Q1268.52 1513.66 1271.58 1518.27 Q1274.65 1522.85 1274.65 1531.6 Q1274.65 1540.33 1271.58 1544.94 Q1268.52 1549.52 1262.71 1549.52 Q1256.9 1549.52 1253.82 1544.94 Q1250.77 1540.33 1250.77 1531.6 Q1250.77 1522.85 1253.82 1518.27 Q1256.9 1513.66 1262.71 1513.66 Z" fill="#000000" fill-rule="nonzero" fill-opacity="1" /><path clip-path="url(#clip610)" d="M1282.92 1514.29 L1301.27 1514.29 L1301.27 1518.22 L1287.2 1518.22 L1287.2 1526.7 Q1288.22 1526.35 1289.24 1526.19 Q1290.26 1526 1291.27 1526 Q1297.06 1526 1300.44 1529.17 Q1303.82 1532.34 1303.82 1537.76 Q1303.82 1543.34 1300.35 1546.44 Q1296.88 1549.52 1290.56 1549.52 Q1288.38 1549.52 1286.11 1549.15 Q1283.87 1548.78 1281.46 1548.04 L1281.46 1543.34 Q1283.54 1544.47 1285.76 1545.03 Q1287.99 1545.58 1290.46 1545.58 Q1294.47 1545.58 1296.81 1543.48 Q1299.14 1541.37 1299.14 1537.76 Q1299.14 1534.15 1296.81 1532.04 Q1294.47 1529.94 1290.46 1529.94 Q1288.59 1529.94 1286.71 1530.35 Q1284.86 1530.77 1282.92 1531.65 L1282.92 1514.29 Z" fill="#000000" fill-rule="nonzero" fill-opacity="1" /><path clip-path="url(#clip610)" d="M1424.08 1517.37 Q1420.47 1517.37 1418.64 1520.93 Q1416.84 1524.47 1416.84 1531.6 Q1416.84 1538.71 1418.64 1542.27 Q1420.47 1545.82 1424.08 1545.82 Q1427.72 1545.82 1429.52 1542.27 Q1431.35 1538.71 1431.35 1531.6 Q1431.35 1524.47 1429.52 1520.93 Q1427.72 1517.37 1424.08 1517.37 M1424.08 1513.66 Q1429.89 1513.66 1432.95 1518.27 Q1436.03 1522.85 1436.03 1531.6 Q1436.03 1540.33 1432.95 1544.94 Q1429.89 1549.52 1424.08 1549.52 Q1418.27 1549.52 1415.2 1544.94 Q1412.14 1540.33 1412.14 1531.6 Q1412.14 1522.85 1415.2 1518.27 Q1418.27 1513.66 1424.08 1513.66 Z" fill="#000000" fill-rule="nonzero" fill-opacity="1" /><path clip-path="url(#clip610)" d="M1444.25 1542.97 L1449.13 1542.97 L1449.13 1548.85 L1444.25 1548.85 L1444.25 1542.97 Z" fill="#000000" fill-rule="nonzero" fill-opacity="1" /><path clip-path="url(#clip610)" d="M1469.32 1517.37 Q1465.7 1517.37 1463.88 1520.93 Q1462.07 1524.47 1462.07 1531.6 Q1462.07 1538.71 1463.88 1542.27 Q1465.7 1545.82 1469.32 1545.82 Q1472.95 1545.82 1474.76 1542.27 Q1476.58 1538.71 1476.58 1531.6 Q1476.58 1524.47 1474.76 1520.93 Q1472.95 1517.37 1469.32 1517.37 M1469.32 1513.66 Q1475.13 1513.66 1478.18 1518.27 Q1481.26 1522.85 1481.26 1531.6 Q1481.26 1540.33 1478.18 1544.94 Q1475.13 1549.52 1469.32 1549.52 Q1463.51 1549.52 1460.43 1544.94 Q1457.37 1540.33 1457.37 1531.6 Q1457.37 1522.85 1460.43 1518.27 Q1463.51 1513.66 1469.32 1513.66 Z" fill="#000000" fill-rule="nonzero" fill-opacity="1" /><path clip-path="url(#clip610)" d="M1500.06 1529.7 Q1496.91 1529.7 1495.06 1531.86 Q1493.23 1534.01 1493.23 1537.76 Q1493.23 1541.49 1495.06 1543.66 Q1496.91 1545.82 1500.06 1545.82 Q1503.2 1545.82 1505.03 1543.66 Q1506.88 1541.49 1506.88 1537.76 Q1506.88 1534.01 1505.03 1531.86 Q1503.2 1529.7 1500.06 1529.7 M1509.34 1515.05 L1509.34 1519.31 Q1507.58 1518.48 1505.77 1518.04 Q1503.99 1517.6 1502.23 1517.6 Q1497.6 1517.6 1495.15 1520.72 Q1492.72 1523.85 1492.37 1530.17 Q1493.74 1528.15 1495.8 1527.09 Q1497.86 1526 1500.33 1526 Q1505.54 1526 1508.55 1529.17 Q1511.58 1532.32 1511.58 1537.76 Q1511.58 1543.08 1508.44 1546.3 Q1505.29 1549.52 1500.06 1549.52 Q1494.06 1549.52 1490.89 1544.94 Q1487.72 1540.33 1487.72 1531.6 Q1487.72 1523.41 1491.61 1518.55 Q1495.5 1513.66 1502.05 1513.66 Q1503.81 1513.66 1505.59 1514.01 Q1507.39 1514.36 1509.34 1515.05 Z" fill="#000000" fill-rule="nonzero" fill-opacity="1" /><path clip-path="url(#clip610)" d="M1631.8 1517.37 Q1628.19 1517.37 1626.36 1520.93 Q1624.56 1524.47 1624.56 1531.6 Q1624.56 1538.71 1626.36 1542.27 Q1628.19 1545.82 1631.8 1545.82 Q1635.44 1545.82 1637.24 1542.27 Q1639.07 1538.71 1639.07 1531.6 Q1639.07 1524.47 1637.24 1520.93 Q1635.44 1517.37 1631.8 1517.37 M1631.8 1513.66 Q1637.61 1513.66 1640.67 1518.27 Q1643.75 1522.85 1643.75 1531.6 Q1643.75 1540.33 1640.67 1544.94 Q1637.61 1549.52 1631.8 1549.52 Q1625.99 1549.52 1622.91 1544.94 Q1619.86 1540.33 1619.86 1531.6 Q1619.86 1522.85 1622.91 1518.27 Q1625.99 1513.66 1631.8 1513.66 Z" fill="#000000" fill-rule="nonzero" fill-opacity="1" /><path clip-path="url(#clip610)" d="M1651.96 1542.97 L1656.85 1542.97 L1656.85 1548.85 L1651.96 1548.85 L1651.96 1542.97 Z" fill="#000000" fill-rule="nonzero" fill-opacity="1" /><path clip-path="url(#clip610)" d="M1677.03 1517.37 Q1673.42 1517.37 1671.59 1520.93 Q1669.79 1524.47 1669.79 1531.6 Q1669.79 1538.71 1671.59 1542.27 Q1673.42 1545.82 1677.03 1545.82 Q1680.67 1545.82 1682.47 1542.27 Q1684.3 1538.71 1684.3 1531.6 Q1684.3 1524.47 1682.47 1520.93 Q1680.67 1517.37 1677.03 1517.37 M1677.03 1513.66 Q1682.84 1513.66 1685.9 1518.27 Q1688.98 1522.85 1688.98 1531.6 Q1688.98 1540.33 1685.9 1544.94 Q1682.84 1549.52 1677.03 1549.52 Q1671.22 1549.52 1668.14 1544.94 Q1665.09 1540.33 1665.09 1531.6 Q1665.09 1522.85 1668.14 1518.27 Q1671.22 1513.66 1677.03 1513.66 Z" fill="#000000" fill-rule="nonzero" fill-opacity="1" /><path clip-path="url(#clip610)" d="M1696.01 1514.29 L1718.24 1514.29 L1718.24 1516.28 L1705.69 1548.85 L1700.81 1548.85 L1712.61 1518.22 L1696.01 1518.22 L1696.01 1514.29 Z" fill="#000000" fill-rule="nonzero" fill-opacity="1" /><path clip-path="url(#clip610)" d="M1838.58 1517.37 Q1834.97 1517.37 1833.14 1520.93 Q1831.34 1524.47 1831.34 1531.6 Q1831.34 1538.71 1833.14 1542.27 Q1834.97 1545.82 1838.58 1545.82 Q1842.22 1545.82 1844.02 1542.27 Q1845.85 1538.71 1845.85 1531.6 Q1845.85 1524.47 1844.02 1520.93 Q1842.22 1517.37 1838.58 1517.37 M1838.58 1513.66 Q1844.39 1513.66 1847.45 1518.27 Q1850.53 1522.85 1850.53 1531.6 Q1850.53 1540.33 1847.45 1544.94 Q1844.39 1549.52 1838.58 1549.52 Q1832.77 1549.52 1829.69 1544.94 Q1826.64 1540.33 1826.64 1531.6 Q1826.64 1522.85 1829.69 1518.27 Q1832.77 1513.66 1838.58 1513.66 Z" fill="#000000" fill-rule="nonzero" fill-opacity="1" /><path clip-path="url(#clip610)" d="M1858.74 1542.97 L1863.63 1542.97 L1863.63 1548.85 L1858.74 1548.85 L1858.74 1542.97 Z" fill="#000000" fill-rule="nonzero" fill-opacity="1" /><path clip-path="url(#clip610)" d="M1883.81 1517.37 Q1880.2 1517.37 1878.37 1520.93 Q1876.57 1524.47 1876.57 1531.6 Q1876.57 1538.71 1878.37 1542.27 Q1880.2 1545.82 1883.81 1545.82 Q1887.45 1545.82 1889.25 1542.27 Q1891.08 1538.71 1891.08 1531.6 Q1891.08 1524.47 1889.25 1520.93 Q1887.45 1517.37 1883.81 1517.37 M1883.81 1513.66 Q1889.62 1513.66 1892.68 1518.27 Q1895.76 1522.85 1895.76 1531.6 Q1895.76 1540.33 1892.68 1544.94 Q1889.62 1549.52 1883.81 1549.52 Q1878 1549.52 1874.92 1544.94 Q1871.87 1540.33 1871.87 1531.6 Q1871.87 1522.85 1874.92 1518.27 Q1878 1513.66 1883.81 1513.66 Z" fill="#000000" fill-rule="nonzero" fill-opacity="1" /><path clip-path="url(#clip610)" d="M1913.97 1532.44 Q1910.64 1532.44 1908.72 1534.22 Q1906.82 1536 1906.82 1539.13 Q1906.82 1542.25 1908.72 1544.03 Q1910.64 1545.82 1913.97 1545.82 Q1917.31 1545.82 1919.23 1544.03 Q1921.15 1542.23 1921.15 1539.13 Q1921.15 1536 1919.23 1534.22 Q1917.33 1532.44 1913.97 1532.44 M1909.3 1530.45 Q1906.29 1529.7 1904.6 1527.64 Q1902.93 1525.58 1902.93 1522.62 Q1902.93 1518.48 1905.87 1516.07 Q1908.84 1513.66 1913.97 1513.66 Q1919.14 1513.66 1922.08 1516.07 Q1925.02 1518.48 1925.02 1522.62 Q1925.02 1525.58 1923.33 1527.64 Q1921.66 1529.7 1918.67 1530.45 Q1922.05 1531.23 1923.93 1533.52 Q1925.83 1535.82 1925.83 1539.13 Q1925.83 1544.15 1922.75 1546.83 Q1919.69 1549.52 1913.97 1549.52 Q1908.26 1549.52 1905.18 1546.83 Q1902.12 1544.15 1902.12 1539.13 Q1902.12 1535.82 1904.02 1533.52 Q1905.92 1531.23 1909.3 1530.45 M1907.59 1523.06 Q1907.59 1525.75 1909.25 1527.25 Q1910.94 1528.76 1913.97 1528.76 Q1916.98 1528.76 1918.67 1527.25 Q1920.39 1525.75 1920.39 1523.06 Q1920.39 1520.38 1918.67 1518.87 Q1916.98 1517.37 1913.97 1517.37 Q1910.94 1517.37 1909.25 1518.87 Q1907.59 1520.38 1907.59 1523.06 Z" fill="#000000" fill-rule="nonzero" fill-opacity="1" /><path clip-path="url(#clip610)" d="M2045.81 1517.37 Q2042.2 1517.37 2040.37 1520.93 Q2038.57 1524.47 2038.57 1531.6 Q2038.57 1538.71 2040.37 1542.27 Q2042.2 1545.82 2045.81 1545.82 Q2049.45 1545.82 2051.25 1542.27 Q2053.08 1538.71 2053.08 1531.6 Q2053.08 1524.47 2051.25 1520.93 Q2049.45 1517.37 2045.81 1517.37 M2045.81 1513.66 Q2051.62 1513.66 2054.68 1518.27 Q2057.76 1522.85 2057.76 1531.6 Q2057.76 1540.33 2054.68 1544.94 Q2051.62 1549.52 2045.81 1549.52 Q2040 1549.52 2036.92 1544.94 Q2033.87 1540.33 2033.87 1531.6 Q2033.87 1522.85 2036.92 1518.27 Q2040 1513.66 2045.81 1513.66 Z" fill="#000000" fill-rule="nonzero" fill-opacity="1" /><path clip-path="url(#clip610)" d="M2065.97 1542.97 L2070.86 1542.97 L2070.86 1548.85 L2065.97 1548.85 L2065.97 1542.97 Z" fill="#000000" fill-rule="nonzero" fill-opacity="1" /><path clip-path="url(#clip610)" d="M2091.04 1517.37 Q2087.43 1517.37 2085.6 1520.93 Q2083.8 1524.47 2083.8 1531.6 Q2083.8 1538.71 2085.6 1542.27 Q2087.43 1545.82 2091.04 1545.82 Q2094.68 1545.82 2096.48 1542.27 Q2098.31 1538.71 2098.31 1531.6 Q2098.31 1524.47 2096.48 1520.93 Q2094.68 1517.37 2091.04 1517.37 M2091.04 1513.66 Q2096.85 1513.66 2099.91 1518.27 Q2102.99 1522.85 2102.99 1531.6 Q2102.99 1540.33 2099.91 1544.94 Q2096.85 1549.52 2091.04 1549.52 Q2085.23 1549.52 2082.15 1544.94 Q2079.1 1540.33 2079.1 1531.6 Q2079.1 1522.85 2082.15 1518.27 Q2085.23 1513.66 2091.04 1513.66 Z" fill="#000000" fill-rule="nonzero" fill-opacity="1" /><path clip-path="url(#clip610)" d="M2111.34 1548.13 L2111.34 1543.87 Q2113.1 1544.7 2114.91 1545.14 Q2116.71 1545.58 2118.45 1545.58 Q2123.08 1545.58 2125.51 1542.48 Q2127.96 1539.36 2128.31 1533.01 Q2126.97 1535.01 2124.91 1536.07 Q2122.85 1537.13 2120.35 1537.13 Q2115.16 1537.13 2112.13 1534.01 Q2109.12 1530.86 2109.12 1525.42 Q2109.12 1520.1 2112.27 1516.88 Q2115.42 1513.66 2120.65 1513.66 Q2126.64 1513.66 2129.79 1518.27 Q2132.96 1522.85 2132.96 1531.6 Q2132.96 1539.77 2129.08 1544.66 Q2125.21 1549.52 2118.66 1549.52 Q2116.9 1549.52 2115.09 1549.17 Q2113.29 1548.82 2111.34 1548.13 M2120.65 1533.48 Q2123.8 1533.48 2125.63 1531.32 Q2127.48 1529.17 2127.48 1525.42 Q2127.48 1521.7 2125.63 1519.54 Q2123.8 1517.37 2120.65 1517.37 Q2117.5 1517.37 2115.65 1519.54 Q2113.82 1521.7 2113.82 1525.42 Q2113.82 1529.17 2115.65 1531.32 Q2117.5 1533.48 2120.65 1533.48 Z" fill="#000000" fill-rule="nonzero" fill-opacity="1" /><path clip-path="url(#clip610)" d="M2252.9 1517.37 Q2249.29 1517.37 2247.46 1520.93 Q2245.66 1524.47 2245.66 1531.6 Q2245.66 1538.71 2247.46 1542.27 Q2249.29 1545.82 2252.9 1545.82 Q2256.54 1545.82 2258.34 1542.27 Q2260.17 1538.71 2260.17 1531.6 Q2260.17 1524.47 2258.34 1520.93 Q2256.54 1517.37 2252.9 1517.37 M2252.9 1513.66 Q2258.71 1513.66 2261.77 1518.27 Q2264.85 1522.85 2264.85 1531.6 Q2264.85 1540.33 2261.77 1544.94 Q2258.71 1549.52 2252.9 1549.52 Q2247.09 1549.52 2244.02 1544.94 Q2240.96 1540.33 2240.96 1531.6 Q2240.96 1522.85 2244.02 1518.27 Q2247.09 1513.66 2252.9 1513.66 Z" fill="#000000" fill-rule="nonzero" fill-opacity="1" /><path clip-path="url(#clip610)" d="M2273.07 1542.97 L2277.95 1542.97 L2277.95 1548.85 L2273.07 1548.85 L2273.07 1542.97 Z" fill="#000000" fill-rule="nonzero" fill-opacity="1" /><path clip-path="url(#clip610)" d="M2288.95 1544.91 L2296.58 1544.91 L2296.58 1518.55 L2288.27 1520.21 L2288.27 1515.95 L2296.54 1514.29 L2301.21 1514.29 L2301.21 1544.91 L2308.85 1544.91 L2308.85 1548.85 L2288.95 1548.85 L2288.95 1544.91 Z" fill="#000000" fill-rule="nonzero" fill-opacity="1" /><path clip-path="url(#clip610)" d="M2328.3 1517.37 Q2324.69 1517.37 2322.86 1520.93 Q2321.05 1524.47 2321.05 1531.6 Q2321.05 1538.71 2322.86 1542.27 Q2324.69 1545.82 2328.3 1545.82 Q2331.93 1545.82 2333.74 1542.27 Q2335.57 1538.71 2335.57 1531.6 Q2335.57 1524.47 2333.74 1520.93 Q2331.93 1517.37 2328.3 1517.37 M2328.3 1513.66 Q2334.11 1513.66 2337.16 1518.27 Q2340.24 1522.85 2340.24 1531.6 Q2340.24 1540.33 2337.16 1544.94 Q2334.11 1549.52 2328.3 1549.52 Q2322.49 1549.52 2319.41 1544.94 Q2316.35 1540.33 2316.35 1531.6 Q2316.35 1522.85 2319.41 1518.27 Q2322.49 1513.66 2328.3 1513.66 Z" fill="#000000" fill-rule="nonzero" fill-opacity="1" /><polyline clip-path="url(#clip612)" style="stroke:#000000; stroke-linecap:round; stroke-linejoin:round; stroke-width:2; stroke-opacity:0.1; fill:none" points="156.598,1400.72 2352.76,1400.72 "/>
<polyline clip-path="url(#clip612)" style="stroke:#000000; stroke-linecap:round; stroke-linejoin:round; stroke-width:2; stroke-opacity:0.1; fill:none" points="156.598,1181.93 2352.76,1181.93 "/>
<polyline clip-path="url(#clip612)" style="stroke:#000000; stroke-linecap:round; stroke-linejoin:round; stroke-width:2; stroke-opacity:0.1; fill:none" points="156.598,963.142 2352.76,963.142 "/>
<polyline clip-path="url(#clip612)" style="stroke:#000000; stroke-linecap:round; stroke-linejoin:round; stroke-width:2; stroke-opacity:0.1; fill:none" points="156.598,744.35 2352.76,744.35 "/>
<polyline clip-path="url(#clip612)" style="stroke:#000000; stroke-linecap:round; stroke-linejoin:round; stroke-width:2; stroke-opacity:0.1; fill:none" points="156.598,525.559 2352.76,525.559 "/>
<polyline clip-path="url(#clip612)" style="stroke:#000000; stroke-linecap:round; stroke-linejoin:round; stroke-width:2; stroke-opacity:0.1; fill:none" points="156.598,306.768 2352.76,306.768 "/>
<polyline clip-path="url(#clip612)" style="stroke:#000000; stroke-linecap:round; stroke-linejoin:round; stroke-width:2; stroke-opacity:0.1; fill:none" points="156.598,87.9763 2352.76,87.9763 "/>
<polyline clip-path="url(#clip610)" style="stroke:#000000; stroke-linecap:round; stroke-linejoin:round; stroke-width:4; stroke-opacity:1; fill:none" points="156.598,1486.45 156.598,47.2441 "/>
<polyline clip-path="url(#clip610)" style="stroke:#000000; stroke-linecap:round; stroke-linejoin:round; stroke-width:4; stroke-opacity:1; fill:none" points="156.598,1400.72 175.496,1400.72 "/>
<polyline clip-path="url(#clip610)" style="stroke:#000000; stroke-linecap:round; stroke-linejoin:round; stroke-width:4; stroke-opacity:1; fill:none" points="156.598,1181.93 175.496,1181.93 "/>
<polyline clip-path="url(#clip610)" style="stroke:#000000; stroke-linecap:round; stroke-linejoin:round; stroke-width:4; stroke-opacity:1; fill:none" points="156.598,963.142 175.496,963.142 "/>
<polyline clip-path="url(#clip610)" style="stroke:#000000; stroke-linecap:round; stroke-linejoin:round; stroke-width:4; stroke-opacity:1; fill:none" points="156.598,744.35 175.496,744.35 "/>
<polyline clip-path="url(#clip610)" style="stroke:#000000; stroke-linecap:round; stroke-linejoin:round; stroke-width:4; stroke-opacity:1; fill:none" points="156.598,525.559 175.496,525.559 "/>
<polyline clip-path="url(#clip610)" style="stroke:#000000; stroke-linecap:round; stroke-linejoin:round; stroke-width:4; stroke-opacity:1; fill:none" points="156.598,306.768 175.496,306.768 "/>
<polyline clip-path="url(#clip610)" style="stroke:#000000; stroke-linecap:round; stroke-linejoin:round; stroke-width:4; stroke-opacity:1; fill:none" points="156.598,87.9763 175.496,87.9763 "/>
<path clip-path="url(#clip610)" d="M62.9365 1386.52 Q59.3254 1386.52 57.4967 1390.09 Q55.6912 1393.63 55.6912 1400.76 Q55.6912 1407.87 57.4967 1411.43 Q59.3254 1414.97 62.9365 1414.97 Q66.5707 1414.97 68.3763 1411.43 Q70.205 1407.87 70.205 1400.76 Q70.205 1393.63 68.3763 1390.09 Q66.5707 1386.52 62.9365 1386.52 M62.9365 1382.82 Q68.7467 1382.82 71.8022 1387.43 Q74.8809 1392.01 74.8809 1400.76 Q74.8809 1409.49 71.8022 1414.09 Q68.7467 1418.68 62.9365 1418.68 Q57.1264 1418.68 54.0477 1414.09 Q50.9921 1409.49 50.9921 1400.76 Q50.9921 1392.01 54.0477 1387.43 Q57.1264 1382.82 62.9365 1382.82 Z" fill="#000000" fill-rule="nonzero" fill-opacity="1" /><path clip-path="url(#clip610)" d="M83.0984 1412.12 L87.9827 1412.12 L87.9827 1418 L83.0984 1418 L83.0984 1412.12 Z" fill="#000000" fill-rule="nonzero" fill-opacity="1" /><path clip-path="url(#clip610)" d="M111.015 1387.52 L99.2095 1405.97 L111.015 1405.97 L111.015 1387.52 M109.788 1383.44 L115.668 1383.44 L115.668 1405.97 L120.598 1405.97 L120.598 1409.86 L115.668 1409.86 L115.668 1418 L111.015 1418 L111.015 1409.86 L95.4132 1409.86 L95.4132 1405.34 L109.788 1383.44 Z" fill="#000000" fill-rule="nonzero" fill-opacity="1" /><path clip-path="url(#clip610)" d="M64.418 1167.73 Q60.8069 1167.73 58.9782 1171.3 Q57.1726 1174.84 57.1726 1181.97 Q57.1726 1189.07 58.9782 1192.64 Q60.8069 1196.18 64.418 1196.18 Q68.0522 1196.18 69.8578 1192.64 Q71.6865 1189.07 71.6865 1181.97 Q71.6865 1174.84 69.8578 1171.3 Q68.0522 1167.73 64.418 1167.73 M64.418 1164.03 Q70.2281 1164.03 73.2837 1168.63 Q76.3624 1173.22 76.3624 1181.97 Q76.3624 1190.69 73.2837 1195.3 Q70.2281 1199.88 64.418 1199.88 Q58.6078 1199.88 55.5291 1195.3 Q52.4736 1190.69 52.4736 1181.97 Q52.4736 1173.22 55.5291 1168.63 Q58.6078 1164.03 64.418 1164.03 Z" fill="#000000" fill-rule="nonzero" fill-opacity="1" /><path clip-path="url(#clip610)" d="M84.5799 1193.33 L89.4641 1193.33 L89.4641 1199.21 L84.5799 1199.21 L84.5799 1193.33 Z" fill="#000000" fill-rule="nonzero" fill-opacity="1" /><path clip-path="url(#clip610)" d="M99.6956 1164.65 L118.052 1164.65 L118.052 1168.59 L103.978 1168.59 L103.978 1177.06 Q104.996 1176.71 106.015 1176.55 Q107.033 1176.37 108.052 1176.37 Q113.839 1176.37 117.219 1179.54 Q120.598 1182.71 120.598 1188.13 Q120.598 1193.7 117.126 1196.81 Q113.654 1199.88 107.334 1199.88 Q105.159 1199.88 102.89 1199.51 Q100.645 1199.14 98.2372 1198.4 L98.2372 1193.7 Q100.321 1194.84 102.543 1195.39 Q104.765 1195.95 107.242 1195.95 Q111.246 1195.95 113.584 1193.84 Q115.922 1191.74 115.922 1188.13 Q115.922 1184.51 113.584 1182.41 Q111.246 1180.3 107.242 1180.3 Q105.367 1180.3 103.492 1180.72 Q101.64 1181.13 99.6956 1182.01 L99.6956 1164.65 Z" fill="#000000" fill-rule="nonzero" fill-opacity="1" /><path clip-path="url(#clip610)" d="M63.2606 948.94 Q59.6495 948.94 57.8208 952.505 Q56.0152 956.047 56.0152 963.177 Q56.0152 970.283 57.8208 973.848 Q59.6495 977.389 63.2606 977.389 Q66.8948 977.389 68.7004 973.848 Q70.5291 970.283 70.5291 963.177 Q70.5291 956.047 68.7004 952.505 Q66.8948 948.94 63.2606 948.94 M63.2606 945.237 Q69.0707 945.237 72.1263 949.843 Q75.205 954.427 75.205 963.177 Q75.205 971.903 72.1263 976.51 Q69.0707 981.093 63.2606 981.093 Q57.4504 981.093 54.3717 976.51 Q51.3162 971.903 51.3162 963.177 Q51.3162 954.427 54.3717 949.843 Q57.4504 945.237 63.2606 945.237 Z" fill="#000000" fill-rule="nonzero" fill-opacity="1" /><path clip-path="url(#clip610)" d="M83.4225 974.542 L88.3067 974.542 L88.3067 980.422 L83.4225 980.422 L83.4225 974.542 Z" fill="#000000" fill-rule="nonzero" fill-opacity="1" /><path clip-path="url(#clip610)" d="M109.071 961.278 Q105.922 961.278 104.071 963.431 Q102.242 965.584 102.242 969.334 Q102.242 973.061 104.071 975.237 Q105.922 977.389 109.071 977.389 Q112.219 977.389 114.047 975.237 Q115.899 973.061 115.899 969.334 Q115.899 965.584 114.047 963.431 Q112.219 961.278 109.071 961.278 M118.353 946.626 L118.353 950.885 Q116.594 950.052 114.788 949.612 Q113.006 949.172 111.246 949.172 Q106.617 949.172 104.163 952.297 Q101.733 955.422 101.385 961.741 Q102.751 959.727 104.811 958.663 Q106.871 957.575 109.348 957.575 Q114.557 957.575 117.566 960.746 Q120.598 963.894 120.598 969.334 Q120.598 974.658 117.45 977.876 Q114.302 981.093 109.071 981.093 Q103.075 981.093 99.9039 976.51 Q96.7326 971.903 96.7326 963.177 Q96.7326 954.982 100.621 950.121 Q104.51 945.237 111.061 945.237 Q112.82 945.237 114.603 945.584 Q116.408 945.931 118.353 946.626 Z" fill="#000000" fill-rule="nonzero" fill-opacity="1" /><path clip-path="url(#clip610)" d="M64.3254 730.149 Q60.7143 730.149 58.8856 733.714 Q57.0801 737.256 57.0801 744.385 Q57.0801 751.492 58.8856 755.056 Q60.7143 758.598 64.3254 758.598 Q67.9596 758.598 69.7652 755.056 Q71.5939 751.492 71.5939 744.385 Q71.5939 737.256 69.7652 733.714 Q67.9596 730.149 64.3254 730.149 M64.3254 726.445 Q70.1355 726.445 73.1911 731.052 Q76.2698 735.635 76.2698 744.385 Q76.2698 753.112 73.1911 757.718 Q70.1355 762.302 64.3254 762.302 Q58.5152 762.302 55.4365 757.718 Q52.381 753.112 52.381 744.385 Q52.381 735.635 55.4365 731.052 Q58.5152 726.445 64.3254 726.445 Z" fill="#000000" fill-rule="nonzero" fill-opacity="1" /><path clip-path="url(#clip610)" d="M84.4873 755.751 L89.3715 755.751 L89.3715 761.63 L84.4873 761.63 L84.4873 755.751 Z" fill="#000000" fill-rule="nonzero" fill-opacity="1" /><path clip-path="url(#clip610)" d="M98.3761 727.07 L120.598 727.07 L120.598 729.061 L108.052 761.63 L103.168 761.63 L114.973 731.006 L98.3761 731.006 L98.3761 727.07 Z" fill="#000000" fill-rule="nonzero" fill-opacity="1" /><path clip-path="url(#clip610)" d="M63.5152 511.358 Q59.9041 511.358 58.0754 514.923 Q56.2699 518.464 56.2699 525.594 Q56.2699 532.7 58.0754 536.265 Q59.9041 539.807 63.5152 539.807 Q67.1494 539.807 68.955 536.265 Q70.7837 532.7 70.7837 525.594 Q70.7837 518.464 68.955 514.923 Q67.1494 511.358 63.5152 511.358 M63.5152 507.654 Q69.3254 507.654 72.3809 512.26 Q75.4596 516.844 75.4596 525.594 Q75.4596 534.321 72.3809 538.927 Q69.3254 543.51 63.5152 543.51 Q57.7051 543.51 54.6264 538.927 Q51.5708 534.321 51.5708 525.594 Q51.5708 516.844 54.6264 512.26 Q57.7051 507.654 63.5152 507.654 Z" fill="#000000" fill-rule="nonzero" fill-opacity="1" /><path clip-path="url(#clip610)" d="M83.6771 536.959 L88.5614 536.959 L88.5614 542.839 L83.6771 542.839 L83.6771 536.959 Z" fill="#000000" fill-rule="nonzero" fill-opacity="1" /><path clip-path="url(#clip610)" d="M108.746 526.427 Q105.413 526.427 103.492 528.209 Q101.594 529.992 101.594 533.117 Q101.594 536.242 103.492 538.024 Q105.413 539.807 108.746 539.807 Q112.08 539.807 114.001 538.024 Q115.922 536.219 115.922 533.117 Q115.922 529.992 114.001 528.209 Q112.103 526.427 108.746 526.427 M104.071 524.436 Q101.061 523.696 99.3715 521.635 Q97.7048 519.575 97.7048 516.612 Q97.7048 512.469 100.645 510.061 Q103.608 507.654 108.746 507.654 Q113.908 507.654 116.848 510.061 Q119.788 512.469 119.788 516.612 Q119.788 519.575 118.098 521.635 Q116.432 523.696 113.445 524.436 Q116.825 525.223 118.7 527.515 Q120.598 529.807 120.598 533.117 Q120.598 538.14 117.52 540.825 Q114.464 543.51 108.746 543.51 Q103.029 543.51 99.9502 540.825 Q96.8947 538.14 96.8947 533.117 Q96.8947 529.807 98.7928 527.515 Q100.691 525.223 104.071 524.436 M102.358 517.052 Q102.358 519.737 104.024 521.242 Q105.714 522.747 108.746 522.747 Q111.756 522.747 113.445 521.242 Q115.158 519.737 115.158 517.052 Q115.158 514.367 113.445 512.862 Q111.756 511.358 108.746 511.358 Q105.714 511.358 104.024 512.862 Q102.358 514.367 102.358 517.052 Z" fill="#000000" fill-rule="nonzero" fill-opacity="1" /><path clip-path="url(#clip610)" d="M63.6078 292.566 Q59.9967 292.566 58.168 296.131 Q56.3625 299.673 56.3625 306.802 Q56.3625 313.909 58.168 317.474 Q59.9967 321.015 63.6078 321.015 Q67.242 321.015 69.0476 317.474 Q70.8763 313.909 70.8763 306.802 Q70.8763 299.673 69.0476 296.131 Q67.242 292.566 63.6078 292.566 M63.6078 288.863 Q69.418 288.863 72.4735 293.469 Q75.5522 298.052 75.5522 306.802 Q75.5522 315.529 72.4735 320.136 Q69.418 324.719 63.6078 324.719 Q57.7976 324.719 54.719 320.136 Q51.6634 315.529 51.6634 306.802 Q51.6634 298.052 54.719 293.469 Q57.7976 288.863 63.6078 288.863 Z" fill="#000000" fill-rule="nonzero" fill-opacity="1" /><path clip-path="url(#clip610)" d="M83.7697 318.168 L88.654 318.168 L88.654 324.048 L83.7697 324.048 L83.7697 318.168 Z" fill="#000000" fill-rule="nonzero" fill-opacity="1" /><path clip-path="url(#clip610)" d="M98.978 323.33 L98.978 319.071 Q100.737 319.904 102.543 320.344 Q104.348 320.784 106.084 320.784 Q110.714 320.784 113.145 317.682 Q115.598 314.557 115.945 308.214 Q114.603 310.205 112.543 311.27 Q110.483 312.335 107.983 312.335 Q102.797 312.335 99.765 309.21 Q96.7558 306.062 96.7558 300.622 Q96.7558 295.298 99.9039 292.08 Q103.052 288.863 108.283 288.863 Q114.279 288.863 117.427 293.469 Q120.598 298.052 120.598 306.802 Q120.598 314.974 116.709 319.858 Q112.844 324.719 106.293 324.719 Q104.534 324.719 102.728 324.372 Q100.922 324.025 98.978 323.33 M108.283 308.677 Q111.432 308.677 113.26 306.525 Q115.112 304.372 115.112 300.622 Q115.112 296.895 113.26 294.742 Q111.432 292.566 108.283 292.566 Q105.135 292.566 103.284 294.742 Q101.455 296.895 101.455 300.622 Q101.455 304.372 103.284 306.525 Q105.135 308.677 108.283 308.677 Z" fill="#000000" fill-rule="nonzero" fill-opacity="1" /><path clip-path="url(#clip610)" d="M54.2328 101.321 L61.8717 101.321 L61.8717 74.9555 L53.5616 76.6222 L53.5616 72.3629 L61.8254 70.6963 L66.5013 70.6963 L66.5013 101.321 L74.1402 101.321 L74.1402 105.256 L54.2328 105.256 L54.2328 101.321 Z" fill="#000000" fill-rule="nonzero" fill-opacity="1" /><path clip-path="url(#clip610)" d="M83.5845 99.3767 L88.4688 99.3767 L88.4688 105.256 L83.5845 105.256 L83.5845 99.3767 Z" fill="#000000" fill-rule="nonzero" fill-opacity="1" /><path clip-path="url(#clip610)" d="M108.654 73.775 Q105.043 73.775 103.214 77.3398 Q101.409 80.8814 101.409 88.011 Q101.409 95.1174 103.214 98.6822 Q105.043 102.224 108.654 102.224 Q112.288 102.224 114.094 98.6822 Q115.922 95.1174 115.922 88.011 Q115.922 80.8814 114.094 77.3398 Q112.288 73.775 108.654 73.775 M108.654 70.0713 Q114.464 70.0713 117.52 74.6777 Q120.598 79.261 120.598 88.011 Q120.598 96.7378 117.52 101.344 Q114.464 105.928 108.654 105.928 Q102.844 105.928 99.765 101.344 Q96.7095 96.7378 96.7095 88.011 Q96.7095 79.261 99.765 74.6777 Q102.844 70.0713 108.654 70.0713 Z" fill="#000000" fill-rule="nonzero" fill-opacity="1" /><polyline clip-path="url(#clip612)" style="stroke:#009af9; stroke-linecap:round; stroke-linejoin:round; stroke-width:4; stroke-opacity:1; fill:none" points="218.754,87.9763 239.472,93.5251 260.191,99.0499 280.909,104.551 301.628,110.028 322.346,115.481 343.064,120.91 363.783,126.317 384.501,131.699 405.22,137.059 425.938,142.396 446.657,147.709 467.375,153 488.094,158.269 508.812,163.514 529.531,168.738 550.249,173.939 570.968,179.118 591.686,184.274 612.405,189.409 633.123,194.523 653.841,199.614 674.56,204.684 695.278,209.732 715.997,214.759 736.715,219.765 757.434,224.75 778.152,229.714 798.871,234.657 819.589,239.58 840.308,244.481 861.026,249.362 881.745,254.223 902.463,259.064 923.182,263.884 943.9,268.684 964.619,273.464 985.337,278.225 1006.06,282.966 1026.77,287.687 1047.49,292.388 1068.21,297.07 1088.93,301.733 1109.65,306.377 1130.37,311.001 1151.08,315.607 1171.8,320.193 1192.52,324.761 1213.24,329.31 1233.96,333.84 1254.68,338.352 1275.4,342.846 1296.11,347.321 1316.83,351.778 1337.55,356.217 1358.27,360.638 1378.99,365.041 1399.71,369.426 1420.42,373.794 1441.14,378.144 1461.86,382.476 1482.58,386.791 1503.3,391.088 1524.02,395.369 1544.74,399.632 1565.45,403.878 1586.17,408.107 1606.89,412.319 1627.61,416.514 1648.33,420.692 1669.05,424.854 1689.76,429 1710.48,433.129 1731.2,437.241 1751.92,441.337 1772.64,445.417 1793.36,449.481 1814.08,453.529 1834.79,457.561 1855.51,461.577 1876.23,465.577 1896.95,469.562 1917.67,473.531 1938.39,477.484 1959.11,481.422 1979.82,485.344 2000.54,489.252 2021.26,493.143 2041.98,497.02 2062.7,500.882 2083.42,504.729 2104.13,508.561 2124.85,512.377 2145.57,516.18 2166.29,519.967 2187.01,523.74 2207.73,527.498 2228.45,531.242 2249.16,534.972 2269.88,538.687 2290.6,542.388 "/>
<polyline clip-path="url(#clip612)" style="stroke:#e26f46; stroke-linecap:round; stroke-linejoin:round; stroke-width:4; stroke-opacity:1; fill:none" points="218.754,87.9763 239.472,98.9647 260.191,109.869 280.909,120.69 301.628,131.429 322.346,142.085 343.064,152.661 363.783,163.157 384.501,173.573 405.22,183.91 425.938,194.17 446.657,204.352 467.375,214.457 488.094,224.487 508.812,234.441 529.531,244.321 550.249,254.127 570.968,263.86 591.686,273.521 612.405,283.109 633.123,292.627 653.841,302.074 674.56,311.451 695.278,320.759 715.997,329.999 736.715,339.17 757.434,348.275 778.152,357.312 798.871,366.283 819.589,375.189 840.308,384.03 861.026,392.807 881.745,401.519 902.463,410.169 923.182,418.756 943.9,427.28 964.619,435.744 985.337,444.146 1006.06,452.488 1026.77,460.77 1047.49,468.992 1068.21,477.156 1088.93,485.261 1109.65,493.309 1130.37,501.299 1151.08,509.233 1171.8,517.11 1192.52,524.931 1213.24,532.697 1233.96,540.409 1254.68,548.066 1275.4,555.669 1296.11,563.218 1316.83,570.715 1337.55,578.159 1358.27,585.552 1378.99,592.892 1399.71,600.182 1420.42,607.421 1441.14,614.61 1461.86,621.748 1482.58,628.838 1503.3,635.879 1524.02,642.871 1544.74,649.815 1565.45,656.711 1586.17,663.56 1606.89,670.362 1627.61,677.117 1648.33,683.827 1669.05,690.491 1689.76,697.109 1710.48,703.683 1731.2,710.212 1751.92,716.697 1772.64,723.138 1793.36,729.536 1814.08,735.89 1834.79,742.202 1855.51,748.472 1876.23,754.699 1896.95,760.885 1917.67,767.03 1938.39,773.134 1959.11,779.197 1979.82,785.22 2000.54,791.203 2021.26,797.147 2041.98,803.051 2062.7,808.916 2083.42,814.743 2104.13,820.531 2124.85,826.281 2145.57,831.994 2166.29,837.67 2187.01,843.308 2207.73,848.91 2228.45,854.475 2249.16,860.004 2269.88,865.497 2290.6,870.955 "/>
<polyline clip-path="url(#clip612)" style="stroke:#3da44d; stroke-linecap:round; stroke-linejoin:round; stroke-width:4; stroke-opacity:1; fill:none" points="218.754,87.9763 239.472,104.386 260.191,120.617 280.909,136.67 301.628,152.548 322.346,168.253 343.064,183.788 363.783,199.155 384.501,214.356 405.22,229.393 425.938,244.268 446.657,258.984 467.375,273.542 488.094,287.944 508.812,302.192 529.531,316.289 550.249,330.237 570.968,344.036 591.686,357.689 612.405,371.199 633.123,384.566 653.841,397.793 674.56,410.881 695.278,423.832 715.997,436.648 736.715,449.33 757.434,461.88 778.152,474.301 798.871,486.593 819.589,498.758 840.308,510.797 861.026,522.713 881.745,534.506 902.463,546.179 923.182,557.733 943.9,569.168 964.619,580.488 985.337,591.692 1006.06,602.783 1026.77,613.762 1047.49,624.631 1068.21,635.389 1088.93,646.04 1109.65,656.585 1130.37,667.023 1151.08,677.358 1171.8,687.59 1192.52,697.72 1213.24,707.75 1233.96,717.681 1254.68,727.514 1275.4,737.25 1296.11,746.89 1316.83,756.436 1337.55,765.888 1358.27,775.249 1378.99,784.518 1399.71,793.697 1420.42,802.787 1441.14,811.789 1461.86,820.705 1482.58,829.534 1503.3,838.279 1524.02,846.94 1544.74,855.518 1565.45,864.014 1586.17,872.429 1606.89,880.764 1627.61,889.021 1648.33,897.199 1669.05,905.3 1689.76,913.324 1710.48,921.273 1731.2,929.148 1751.92,936.949 1772.64,944.677 1793.36,952.333 1814.08,959.918 1834.79,967.433 1855.51,974.878 1876.23,982.255 1896.95,989.563 1917.67,996.804 1938.39,1003.98 1959.11,1011.09 1979.82,1018.13 2000.54,1025.11 2021.26,1032.03 2041.98,1038.88 2062.7,1045.68 2083.42,1052.41 2104.13,1059.08 2124.85,1065.69 2145.57,1072.24 2166.29,1078.73 2187.01,1085.16 2207.73,1091.54 2228.45,1097.86 2249.16,1104.12 2269.88,1110.33 2290.6,1116.49 "/>
<polyline clip-path="url(#clip612)" style="stroke:#c271d2; stroke-linecap:round; stroke-linejoin:round; stroke-width:4; stroke-opacity:1; fill:none" points="218.754,87.9763 239.472,109.79 260.191,131.293 280.909,152.491 301.628,173.389 322.346,193.992 343.064,214.306 363.783,234.334 384.501,254.081 405.22,273.552 425.938,292.753 446.657,311.686 467.375,330.357 488.094,348.77 508.812,366.928 529.531,384.837 550.249,402.5 570.968,419.922 591.686,437.106 612.405,454.056 633.123,470.775 653.841,487.268 674.56,503.539 695.278,519.59 715.997,535.426 736.715,551.049 757.434,566.464 778.152,581.673 798.871,596.68 819.589,611.487 840.308,626.099 861.026,640.519 881.745,654.748 902.463,668.791 923.182,682.65 943.9,696.328 964.619,709.828 985.337,723.153 1006.06,736.305 1026.77,749.288 1047.49,762.103 1068.21,774.754 1088.93,787.243 1109.65,799.572 1130.37,811.744 1151.08,823.762 1171.8,835.627 1192.52,847.342 1213.24,858.909 1233.96,870.332 1254.68,881.611 1275.4,892.749 1296.11,903.748 1316.83,914.61 1337.55,925.338 1358.27,935.933 1378.99,946.397 1399.71,956.733 1420.42,966.942 1441.14,977.026 1461.86,986.987 1482.58,996.827 1503.3,1006.55 1524.02,1016.15 1544.74,1025.64 1565.45,1035.01 1586.17,1044.27 1606.89,1053.42 1627.61,1062.46 1648.33,1071.4 1669.05,1080.22 1689.76,1088.94 1710.48,1097.56 1731.2,1106.08 1751.92,1114.5 1772.64,1122.82 1793.36,1131.04 1814.08,1139.17 1834.79,1147.2 1855.51,1155.14 1876.23,1162.99 1896.95,1170.75 1917.67,1178.42 1938.39,1186 1959.11,1193.49 1979.82,1200.9 2000.54,1208.23 2021.26,1215.47 2041.98,1222.63 2062.7,1229.71 2083.42,1236.71 2104.13,1243.64 2124.85,1250.48 2145.57,1257.25 2166.29,1263.95 2187.01,1270.57 2207.73,1277.11 2228.45,1283.59 2249.16,1289.99 2269.88,1296.33 2290.6,1302.59 "/>
<polyline clip-path="url(#clip612)" style="stroke:#ac8d18; stroke-linecap:round; stroke-linejoin:round; stroke-width:4; stroke-opacity:1; fill:none" points="218.754,87.9763 239.472,115.175 260.191,141.899 280.909,168.156 301.628,193.957 322.346,219.311 343.064,244.226 363.783,268.713 384.501,292.778 405.22,316.432 425.938,339.681 446.657,362.535 467.375,385.001 488.094,407.087 508.812,428.8 529.531,450.148 550.249,471.138 570.968,491.777 591.686,512.073 612.405,532.031 633.123,551.658 653.841,570.961 674.56,589.947 695.278,608.621 715.997,626.99 736.715,645.059 757.434,662.834 778.152,680.321 798.871,697.526 819.589,714.453 840.308,731.109 861.026,747.498 881.745,763.626 902.463,779.497 923.182,795.117 943.9,810.49 964.619,825.621 985.337,840.514 1006.06,855.174 1026.77,869.605 1047.49,883.812 1068.21,897.798 1088.93,911.569 1109.65,925.127 1130.37,938.478 1151.08,951.624 1171.8,964.569 1192.52,977.318 1213.24,989.873 1233.96,1002.24 1254.68,1014.42 1275.4,1026.42 1296.11,1038.23 1316.83,1049.87 1337.55,1061.34 1358.27,1072.64 1378.99,1083.77 1399.71,1094.74 1420.42,1105.55 1441.14,1116.2 1461.86,1126.69 1482.58,1137.03 1503.3,1147.23 1524.02,1157.27 1544.74,1167.17 1565.45,1176.93 1586.17,1186.55 1606.89,1196.04 1627.61,1205.38 1648.33,1214.6 1669.05,1223.69 1689.76,1232.65 1710.48,1241.48 1731.2,1250.19 1751.92,1258.78 1772.64,1267.25 1793.36,1275.61 1814.08,1283.84 1834.79,1291.97 1855.51,1299.99 1876.23,1307.89 1896.95,1315.69 1917.67,1323.38 1938.39,1330.97 1959.11,1338.46 1979.82,1345.85 2000.54,1353.14 2021.26,1360.33 2041.98,1367.43 2062.7,1374.43 2083.42,1381.34 2104.13,1388.16 2124.85,1394.9 2145.57,1401.54 2166.29,1408.1 2187.01,1414.57 2207.73,1420.96 2228.45,1427.27 2249.16,1433.5 2269.88,1439.65 2290.6,1445.72 "/>
<path clip-path="url(#clip610)" d="M1937.3 406.258 L2279.55 406.258 L2279.55 95.2176 L1937.3 95.2176  Z" fill="#ffffff" fill-rule="evenodd" fill-opacity="1"/>
<polyline clip-path="url(#clip610)" style="stroke:#000000; stroke-linecap:round; stroke-linejoin:round; stroke-width:4; stroke-opacity:1; fill:none" points="1937.3,406.258 2279.55,406.258 2279.55,95.2176 1937.3,95.2176 1937.3,406.258 "/>
<polyline clip-path="url(#clip610)" style="stroke:#009af9; stroke-linecap:round; stroke-linejoin:round; stroke-width:4; stroke-opacity:1; fill:none" points="1961.7,147.058 2108.11,147.058 "/>
<path clip-path="url(#clip610)" d="M2154.22 148.689 L2154.22 164.338 L2149.96 164.338 L2149.96 148.828 Q2149.96 145.148 2148.53 143.319 Q2147.09 141.49 2144.22 141.49 Q2140.77 141.49 2138.78 143.69 Q2136.79 145.889 2136.79 149.685 L2136.79 164.338 L2132.51 164.338 L2132.51 138.412 L2136.79 138.412 L2136.79 142.44 Q2138.32 140.102 2140.38 138.944 Q2142.46 137.787 2145.17 137.787 Q2149.64 137.787 2151.93 140.565 Q2154.22 143.319 2154.22 148.689 Z" fill="#000000" fill-rule="nonzero" fill-opacity="1" /><path clip-path="url(#clip610)" d="M2163.27 142.81 L2192.95 142.81 L2192.95 146.699 L2163.27 146.699 L2163.27 142.81 M2163.27 152.254 L2192.95 152.254 L2192.95 156.189 L2163.27 156.189 L2163.27 152.254 Z" fill="#000000" fill-rule="nonzero" fill-opacity="1" /><path clip-path="url(#clip610)" d="M2203.09 129.778 L2221.45 129.778 L2221.45 133.713 L2207.37 133.713 L2207.37 142.185 Q2208.39 141.838 2209.41 141.676 Q2210.43 141.49 2211.45 141.49 Q2217.23 141.49 2220.61 144.662 Q2223.99 147.833 2223.99 153.25 Q2223.99 158.828 2220.52 161.93 Q2217.05 165.009 2210.73 165.009 Q2208.55 165.009 2206.28 164.638 Q2204.04 164.268 2201.63 163.527 L2201.63 158.828 Q2203.71 159.963 2205.94 160.518 Q2208.16 161.074 2210.64 161.074 Q2214.64 161.074 2216.98 158.967 Q2219.32 156.861 2219.32 153.25 Q2219.32 149.639 2216.98 147.532 Q2214.64 145.426 2210.64 145.426 Q2208.76 145.426 2206.89 145.842 Q2205.03 146.259 2203.09 147.139 L2203.09 129.778 Z" fill="#000000" fill-rule="nonzero" fill-opacity="1" /><polyline clip-path="url(#clip610)" style="stroke:#e26f46; stroke-linecap:round; stroke-linejoin:round; stroke-width:4; stroke-opacity:1; fill:none" points="1961.7,198.898 2108.11,198.898 "/>
<path clip-path="url(#clip610)" d="M2154.22 200.529 L2154.22 216.178 L2149.96 216.178 L2149.96 200.668 Q2149.96 196.988 2148.53 195.159 Q2147.09 193.33 2144.22 193.33 Q2140.77 193.33 2138.78 195.53 Q2136.79 197.729 2136.79 201.525 L2136.79 216.178 L2132.51 216.178 L2132.51 190.252 L2136.79 190.252 L2136.79 194.28 Q2138.32 191.942 2140.38 190.784 Q2142.46 189.627 2145.17 189.627 Q2149.64 189.627 2151.93 192.405 Q2154.22 195.159 2154.22 200.529 Z" fill="#000000" fill-rule="nonzero" fill-opacity="1" /><path clip-path="url(#clip610)" d="M2163.27 194.65 L2192.95 194.65 L2192.95 198.539 L2163.27 198.539 L2163.27 194.65 M2163.27 204.094 L2192.95 204.094 L2192.95 208.029 L2163.27 208.029 L2163.27 204.094 Z" fill="#000000" fill-rule="nonzero" fill-opacity="1" /><path clip-path="url(#clip610)" d="M2203.85 212.242 L2211.49 212.242 L2211.49 185.877 L2203.18 187.543 L2203.18 183.284 L2211.45 181.618 L2216.12 181.618 L2216.12 212.242 L2223.76 212.242 L2223.76 216.178 L2203.85 216.178 L2203.85 212.242 Z" fill="#000000" fill-rule="nonzero" fill-opacity="1" /><path clip-path="url(#clip610)" d="M2243.2 184.696 Q2239.59 184.696 2237.76 188.261 Q2235.96 191.803 2235.96 198.932 Q2235.96 206.039 2237.76 209.604 Q2239.59 213.145 2243.2 213.145 Q2246.84 213.145 2248.64 209.604 Q2250.47 206.039 2250.47 198.932 Q2250.47 191.803 2248.64 188.261 Q2246.84 184.696 2243.2 184.696 M2243.2 180.993 Q2249.01 180.993 2252.07 185.599 Q2255.15 190.182 2255.15 198.932 Q2255.15 207.659 2252.07 212.266 Q2249.01 216.849 2243.2 216.849 Q2237.39 216.849 2234.32 212.266 Q2231.26 207.659 2231.26 198.932 Q2231.26 190.182 2234.32 185.599 Q2237.39 180.993 2243.2 180.993 Z" fill="#000000" fill-rule="nonzero" fill-opacity="1" /><polyline clip-path="url(#clip610)" style="stroke:#3da44d; stroke-linecap:round; stroke-linejoin:round; stroke-width:4; stroke-opacity:1; fill:none" points="1961.7,250.738 2108.11,250.738 "/>
<path clip-path="url(#clip610)" d="M2154.22 252.369 L2154.22 268.018 L2149.96 268.018 L2149.96 252.508 Q2149.96 248.828 2148.53 246.999 Q2147.09 245.17 2144.22 245.17 Q2140.77 245.17 2138.78 247.37 Q2136.79 249.569 2136.79 253.365 L2136.79 268.018 L2132.51 268.018 L2132.51 242.092 L2136.79 242.092 L2136.79 246.12 Q2138.32 243.782 2140.38 242.624 Q2142.46 241.467 2145.17 241.467 Q2149.64 241.467 2151.93 244.245 Q2154.22 246.999 2154.22 252.369 Z" fill="#000000" fill-rule="nonzero" fill-opacity="1" /><path clip-path="url(#clip610)" d="M2163.27 246.49 L2192.95 246.49 L2192.95 250.379 L2163.27 250.379 L2163.27 246.49 M2163.27 255.934 L2192.95 255.934 L2192.95 259.869 L2163.27 259.869 L2163.27 255.934 Z" fill="#000000" fill-rule="nonzero" fill-opacity="1" /><path clip-path="url(#clip610)" d="M2203.85 264.082 L2211.49 264.082 L2211.49 237.717 L2203.18 239.383 L2203.18 235.124 L2211.45 233.458 L2216.12 233.458 L2216.12 264.082 L2223.76 264.082 L2223.76 268.018 L2203.85 268.018 L2203.85 264.082 Z" fill="#000000" fill-rule="nonzero" fill-opacity="1" /><path clip-path="url(#clip610)" d="M2233.25 233.458 L2251.61 233.458 L2251.61 237.393 L2237.53 237.393 L2237.53 245.865 Q2238.55 245.518 2239.57 245.356 Q2240.59 245.17 2241.61 245.17 Q2247.39 245.17 2250.77 248.342 Q2254.15 251.513 2254.15 256.93 Q2254.15 262.508 2250.68 265.61 Q2247.21 268.689 2240.89 268.689 Q2238.71 268.689 2236.45 268.318 Q2234.2 267.948 2231.79 267.207 L2231.79 262.508 Q2233.88 263.643 2236.1 264.198 Q2238.32 264.754 2240.8 264.754 Q2244.8 264.754 2247.14 262.647 Q2249.48 260.541 2249.48 256.93 Q2249.48 253.319 2247.14 251.212 Q2244.8 249.106 2240.8 249.106 Q2238.92 249.106 2237.05 249.522 Q2235.2 249.939 2233.25 250.819 L2233.25 233.458 Z" fill="#000000" fill-rule="nonzero" fill-opacity="1" /><polyline clip-path="url(#clip610)" style="stroke:#c271d2; stroke-linecap:round; stroke-linejoin:round; stroke-width:4; stroke-opacity:1; fill:none" points="1961.7,302.578 2108.11,302.578 "/>
<path clip-path="url(#clip610)" d="M2154.22 304.209 L2154.22 319.858 L2149.96 319.858 L2149.96 304.348 Q2149.96 300.668 2148.53 298.839 Q2147.09 297.01 2144.22 297.01 Q2140.77 297.01 2138.78 299.21 Q2136.79 301.409 2136.79 305.205 L2136.79 319.858 L2132.51 319.858 L2132.51 293.932 L2136.79 293.932 L2136.79 297.96 Q2138.32 295.622 2140.38 294.464 Q2142.46 293.307 2145.17 293.307 Q2149.64 293.307 2151.93 296.085 Q2154.22 298.839 2154.22 304.209 Z" fill="#000000" fill-rule="nonzero" fill-opacity="1" /><path clip-path="url(#clip610)" d="M2163.27 298.33 L2192.95 298.33 L2192.95 302.219 L2163.27 302.219 L2163.27 298.33 M2163.27 307.774 L2192.95 307.774 L2192.95 311.709 L2163.27 311.709 L2163.27 307.774 Z" fill="#000000" fill-rule="nonzero" fill-opacity="1" /><path clip-path="url(#clip610)" d="M2207.07 315.922 L2223.39 315.922 L2223.39 319.858 L2201.45 319.858 L2201.45 315.922 Q2204.11 313.168 2208.69 308.538 Q2213.3 303.885 2214.48 302.543 Q2216.72 300.02 2217.6 298.284 Q2218.51 296.524 2218.51 294.835 Q2218.51 292.08 2216.56 290.344 Q2214.64 288.608 2211.54 288.608 Q2209.34 288.608 2206.89 289.372 Q2204.45 290.135 2201.68 291.686 L2201.68 286.964 Q2204.5 285.83 2206.95 285.251 Q2209.41 284.673 2211.45 284.673 Q2216.82 284.673 2220.01 287.358 Q2223.2 290.043 2223.2 294.534 Q2223.2 296.663 2222.39 298.585 Q2221.61 300.483 2219.5 303.075 Q2218.92 303.747 2215.82 306.964 Q2212.72 310.159 2207.07 315.922 Z" fill="#000000" fill-rule="nonzero" fill-opacity="1" /><path clip-path="url(#clip610)" d="M2243.2 288.376 Q2239.59 288.376 2237.76 291.941 Q2235.96 295.483 2235.96 302.612 Q2235.96 309.719 2237.76 313.284 Q2239.59 316.825 2243.2 316.825 Q2246.84 316.825 2248.64 313.284 Q2250.47 309.719 2250.47 302.612 Q2250.47 295.483 2248.64 291.941 Q2246.84 288.376 2243.2 288.376 M2243.2 284.673 Q2249.01 284.673 2252.07 289.279 Q2255.15 293.862 2255.15 302.612 Q2255.15 311.339 2252.07 315.946 Q2249.01 320.529 2243.2 320.529 Q2237.39 320.529 2234.32 315.946 Q2231.26 311.339 2231.26 302.612 Q2231.26 293.862 2234.32 289.279 Q2237.39 284.673 2243.2 284.673 Z" fill="#000000" fill-rule="nonzero" fill-opacity="1" /><polyline clip-path="url(#clip610)" style="stroke:#ac8d18; stroke-linecap:round; stroke-linejoin:round; stroke-width:4; stroke-opacity:1; fill:none" points="1961.7,354.418 2108.11,354.418 "/>
<path clip-path="url(#clip610)" d="M2154.22 356.049 L2154.22 371.698 L2149.96 371.698 L2149.96 356.188 Q2149.96 352.508 2148.53 350.679 Q2147.09 348.85 2144.22 348.85 Q2140.77 348.85 2138.78 351.05 Q2136.79 353.249 2136.79 357.045 L2136.79 371.698 L2132.51 371.698 L2132.51 345.772 L2136.79 345.772 L2136.79 349.8 Q2138.32 347.462 2140.38 346.304 Q2142.46 345.147 2145.17 345.147 Q2149.64 345.147 2151.93 347.925 Q2154.22 350.679 2154.22 356.049 Z" fill="#000000" fill-rule="nonzero" fill-opacity="1" /><path clip-path="url(#clip610)" d="M2163.27 350.17 L2192.95 350.17 L2192.95 354.059 L2163.27 354.059 L2163.27 350.17 M2163.27 359.614 L2192.95 359.614 L2192.95 363.549 L2163.27 363.549 L2163.27 359.614 Z" fill="#000000" fill-rule="nonzero" fill-opacity="1" /><path clip-path="url(#clip610)" d="M2207.07 367.762 L2223.39 367.762 L2223.39 371.698 L2201.45 371.698 L2201.45 367.762 Q2204.11 365.008 2208.69 360.378 Q2213.3 355.725 2214.48 354.383 Q2216.72 351.86 2217.6 350.124 Q2218.51 348.364 2218.51 346.675 Q2218.51 343.92 2216.56 342.184 Q2214.64 340.448 2211.54 340.448 Q2209.34 340.448 2206.89 341.212 Q2204.45 341.975 2201.68 343.526 L2201.68 338.804 Q2204.5 337.67 2206.95 337.091 Q2209.41 336.513 2211.45 336.513 Q2216.82 336.513 2220.01 339.198 Q2223.2 341.883 2223.2 346.374 Q2223.2 348.503 2222.39 350.425 Q2221.61 352.323 2219.5 354.915 Q2218.92 355.587 2215.82 358.804 Q2212.72 361.999 2207.07 367.762 Z" fill="#000000" fill-rule="nonzero" fill-opacity="1" /><path clip-path="url(#clip610)" d="M2233.25 337.138 L2251.61 337.138 L2251.61 341.073 L2237.53 341.073 L2237.53 349.545 Q2238.55 349.198 2239.57 349.036 Q2240.59 348.85 2241.61 348.85 Q2247.39 348.85 2250.77 352.022 Q2254.15 355.193 2254.15 360.61 Q2254.15 366.188 2250.68 369.29 Q2247.21 372.369 2240.89 372.369 Q2238.71 372.369 2236.45 371.998 Q2234.2 371.628 2231.79 370.887 L2231.79 366.188 Q2233.88 367.323 2236.1 367.878 Q2238.32 368.434 2240.8 368.434 Q2244.8 368.434 2247.14 366.327 Q2249.48 364.221 2249.48 360.61 Q2249.48 356.999 2247.14 354.892 Q2244.8 352.786 2240.8 352.786 Q2238.92 352.786 2237.05 353.202 Q2235.2 353.619 2233.25 354.499 L2233.25 337.138 Z" fill="#000000" fill-rule="nonzero" fill-opacity="1" /></svg>
