<?xml version="1.0" encoding="utf-8"?>
<svg xmlns="http://www.w3.org/2000/svg" xmlns:xlink="http://www.w3.org/1999/xlink" width="600" height="400" viewBox="0 0 2400 1600">
<defs>
  <clipPath id="clip880">
    <rect x="0" y="0" width="2400" height="1600"/>
  </clipPath>
</defs>
<path clip-path="url(#clip880)" d="M0 1600 L2400 1600 L2400 0 L0 0  Z" fill="#ffffff" fill-rule="evenodd" fill-opacity="1"/>
<defs>
  <clipPath id="clip881">
    <rect x="480" y="0" width="1681" height="1600"/>
  </clipPath>
</defs>
<path clip-path="url(#clip880)" d="M156.251 1486.45 L2352.76 1486.45 L2352.76 47.2441 L156.251 47.2441  Z" fill="#ffffff" fill-rule="evenodd" fill-opacity="1"/>
<defs>
  <clipPath id="clip882">
    <rect x="156" y="47" width="2198" height="1440"/>
  </clipPath>
</defs>
<polyline clip-path="url(#clip882)" style="stroke:#000000; stroke-linecap:round; stroke-linejoin:round; stroke-width:2; stroke-opacity:0.1; fill:none" points="218.416,1486.45 218.416,47.2441 "/>
<polyline clip-path="url(#clip882)" style="stroke:#000000; stroke-linecap:round; stroke-linejoin:round; stroke-width:2; stroke-opacity:0.1; fill:none" points="425.634,1486.45 425.634,47.2441 "/>
<polyline clip-path="url(#clip882)" style="stroke:#000000; stroke-linecap:round; stroke-linejoin:round; stroke-width:2; stroke-opacity:0.1; fill:none" points="632.851,1486.45 632.851,47.2441 "/>
<polyline clip-path="url(#clip882)" style="stroke:#000000; stroke-linecap:round; stroke-linejoin:round; stroke-width:2; stroke-opacity:0.1; fill:none" points="840.069,1486.45 840.069,47.2441 "/>
<polyline clip-path="url(#clip882)" style="stroke:#000000; stroke-linecap:round; stroke-linejoin:round; stroke-width:2; stroke-opacity:0.1; fill:none" points="1047.29,1486.45 1047.29,47.2441 "/>
<polyline clip-path="url(#clip882)" style="stroke:#000000; stroke-linecap:round; stroke-linejoin:round; stroke-width:2; stroke-opacity:0.1; fill:none" points="1254.5,1486.45 1254.5,47.2441 "/>
<polyline clip-path="url(#clip882)" style="stroke:#000000; stroke-linecap:round; stroke-linejoin:round; stroke-width:2; stroke-opacity:0.1; fill:none" points="1461.72,1486.45 1461.72,47.2441 "/>
<polyline clip-path="url(#clip882)" style="stroke:#000000; stroke-linecap:round; stroke-linejoin:round; stroke-width:2; stroke-opacity:0.1; fill:none" points="1668.94,1486.45 1668.94,47.2441 "/>
<polyline clip-path="url(#clip882)" style="stroke:#000000; stroke-linecap:round; stroke-linejoin:round; stroke-width:2; stroke-opacity:0.1; fill:none" points="1876.16,1486.45 1876.16,47.2441 "/>
<polyline clip-path="url(#clip882)" style="stroke:#000000; stroke-linecap:round; stroke-linejoin:round; stroke-width:2; stroke-opacity:0.1; fill:none" points="2083.37,1486.45 2083.37,47.2441 "/>
<polyline clip-path="url(#clip882)" style="stroke:#000000; stroke-linecap:round; stroke-linejoin:round; stroke-width:2; stroke-opacity:0.1; fill:none" points="2290.59,1486.45 2290.59,47.2441 "/>
<polyline clip-path="url(#clip880)" style="stroke:#000000; stroke-linecap:round; stroke-linejoin:round; stroke-width:4; stroke-opacity:1; fill:none" points="156.251,1486.45 2352.76,1486.45 "/>
<polyline clip-path="url(#clip880)" style="stroke:#000000; stroke-linecap:round; stroke-linejoin:round; stroke-width:4; stroke-opacity:1; fill:none" points="218.416,1486.45 218.416,1467.55 "/>
<polyline clip-path="url(#clip880)" style="stroke:#000000; stroke-linecap:round; stroke-linejoin:round; stroke-width:4; stroke-opacity:1; fill:none" points="425.634,1486.45 425.634,1467.55 "/>
<polyline clip-path="url(#clip880)" style="stroke:#000000; stroke-linecap:round; stroke-linejoin:round; stroke-width:4; stroke-opacity:1; fill:none" points="632.851,1486.45 632.851,1467.55 "/>
<polyline clip-path="url(#clip880)" style="stroke:#000000; stroke-linecap:round; stroke-linejoin:round; stroke-width:4; stroke-opacity:1; fill:none" points="840.069,1486.45 840.069,1467.55 "/>
<polyline clip-path="url(#clip880)" style="stroke:#000000; stroke-linecap:round; stroke-linejoin:round; stroke-width:4; stroke-opacity:1; fill:none" points="1047.29,1486.45 1047.29,1467.55 "/>
<polyline clip-path="url(#clip880)" style="stroke:#000000; stroke-linecap:round; stroke-linejoin:round; stroke-width:4; stroke-opacity:1; fill:none" points="1254.5,1486.45 1254.5,1467.55 "/>
<polyline clip-path="url(#clip880)" style="stroke:#000000; stroke-linecap:round; stroke-linejoin:round; stroke-width:4; stroke-opacity:1; fill:none" points="1461.72,1486.45 1461.72,1467.55 "/>
<polyline clip-path="url(#clip880)" style="stroke:#000000; stroke-linecap:round; stroke-linejoin:round; stroke-width:4; stroke-opacity:1; fill:none" points="1668.94,1486.45 1668.94,1467.55 "/>
<polyline clip-path="url(#clip880)" style="stroke:#000000; stroke-linecap:round; stroke-linejoin:round; stroke-width:4; stroke-opacity:1; fill:none" points="1876.16,1486.45 1876.16,1467.55 "/>
<polyline clip-path="url(#clip880)" style="stroke:#000000; stroke-linecap:round; stroke-linejoin:round; stroke-width:4; stroke-opacity:1; fill:none" points="2083.37,1486.45 2083.37,1467.55 "/>
<polyline clip-path="url(#clip880)" style="stroke:#000000; stroke-linecap:round; stroke-linejoin:round; stroke-width:4; stroke-opacity:1; fill:none" points="2290.59,1486.45 2290.59,1467.55 "/>
<path clip-path="url(#clip880)" d="M180.72 1517.37 Q177.109 1517.37 175.28 1520.93 Q173.474 1524.47 173.474 1531.6 Q173.474 1538.71 175.28 1542.27 Q177.109 1545.82 180.72 1545.82 Q184.354 1545.82 186.159 1542.27 Q187.988 1538.71 187.988 1531.6 Q187.988 1524.47 186.159 1520.93 Q184.354 1517.37 180.72 1517.37 M180.72 1513.66 Q186.53 1513.66 189.585 1518.27 Q192.664 1522.85 192.664 1531.6 Q192.664 1540.33 189.585 1544.94 Q186.53 1549.52 180.72 1549.52 Q174.91 1549.52 171.831 1544.94 Q168.775 1540.33 168.775 1531.6 Q168.775 1522.85 171.831 1518.27 Q174.91 1513.66 180.72 1513.66 Z" fill="#000000" fill-rule="nonzero" fill-opacity="1" /><path clip-path="url(#clip880)" d="M200.882 1542.97 L205.766 1542.97 L205.766 1548.85 L200.882 1548.85 L200.882 1542.97 Z" fill="#000000" fill-rule="nonzero" fill-opacity="1" /><path clip-path="url(#clip880)" d="M225.951 1517.37 Q222.34 1517.37 220.511 1520.93 Q218.706 1524.47 218.706 1531.6 Q218.706 1538.71 220.511 1542.27 Q222.34 1545.82 225.951 1545.82 Q229.585 1545.82 231.391 1542.27 Q233.219 1538.71 233.219 1531.6 Q233.219 1524.47 231.391 1520.93 Q229.585 1517.37 225.951 1517.37 M225.951 1513.66 Q231.761 1513.66 234.817 1518.27 Q237.895 1522.85 237.895 1531.6 Q237.895 1540.33 234.817 1544.94 Q231.761 1549.52 225.951 1549.52 Q220.141 1549.52 217.062 1544.94 Q214.007 1540.33 214.007 1531.6 Q214.007 1522.85 217.062 1518.27 Q220.141 1513.66 225.951 1513.66 Z" fill="#000000" fill-rule="nonzero" fill-opacity="1" /><path clip-path="url(#clip880)" d="M256.113 1517.37 Q252.502 1517.37 250.673 1520.93 Q248.867 1524.47 248.867 1531.6 Q248.867 1538.71 250.673 1542.27 Q252.502 1545.82 256.113 1545.82 Q259.747 1545.82 261.553 1542.27 Q263.381 1538.71 263.381 1531.6 Q263.381 1524.47 261.553 1520.93 Q259.747 1517.37 256.113 1517.37 M256.113 1513.66 Q261.923 1513.66 264.978 1518.27 Q268.057 1522.85 268.057 1531.6 Q268.057 1540.33 264.978 1544.94 Q261.923 1549.52 256.113 1549.52 Q250.303 1549.52 247.224 1544.94 Q244.168 1540.33 244.168 1531.6 Q244.168 1522.85 247.224 1518.27 Q250.303 1513.66 256.113 1513.66 Z" fill="#000000" fill-rule="nonzero" fill-opacity="1" /><path clip-path="url(#clip880)" d="M388.551 1517.37 Q384.939 1517.37 383.111 1520.93 Q381.305 1524.47 381.305 1531.6 Q381.305 1538.71 383.111 1542.27 Q384.939 1545.82 388.551 1545.82 Q392.185 1545.82 393.99 1542.27 Q395.819 1538.71 395.819 1531.6 Q395.819 1524.47 393.99 1520.93 Q392.185 1517.37 388.551 1517.37 M388.551 1513.66 Q394.361 1513.66 397.416 1518.27 Q400.495 1522.85 400.495 1531.6 Q400.495 1540.33 397.416 1544.94 Q394.361 1549.52 388.551 1549.52 Q382.74 1549.52 379.662 1544.94 Q376.606 1540.33 376.606 1531.6 Q376.606 1522.85 379.662 1518.27 Q382.74 1513.66 388.551 1513.66 Z" fill="#000000" fill-rule="nonzero" fill-opacity="1" /><path clip-path="url(#clip880)" d="M408.712 1542.97 L413.597 1542.97 L413.597 1548.85 L408.712 1548.85 L408.712 1542.97 Z" fill="#000000" fill-rule="nonzero" fill-opacity="1" /><path clip-path="url(#clip880)" d="M433.782 1517.37 Q430.171 1517.37 428.342 1520.93 Q426.536 1524.47 426.536 1531.6 Q426.536 1538.71 428.342 1542.27 Q430.171 1545.82 433.782 1545.82 Q437.416 1545.82 439.222 1542.27 Q441.05 1538.71 441.05 1531.6 Q441.05 1524.47 439.222 1520.93 Q437.416 1517.37 433.782 1517.37 M433.782 1513.66 Q439.592 1513.66 442.647 1518.27 Q445.726 1522.85 445.726 1531.6 Q445.726 1540.33 442.647 1544.94 Q439.592 1549.52 433.782 1549.52 Q427.972 1549.52 424.893 1544.94 Q421.837 1540.33 421.837 1531.6 Q421.837 1522.85 424.893 1518.27 Q427.972 1513.66 433.782 1513.66 Z" fill="#000000" fill-rule="nonzero" fill-opacity="1" /><path clip-path="url(#clip880)" d="M454.754 1544.91 L462.393 1544.91 L462.393 1518.55 L454.083 1520.21 L454.083 1515.95 L462.346 1514.29 L467.022 1514.29 L467.022 1544.91 L474.661 1544.91 L474.661 1548.85 L454.754 1548.85 L454.754 1544.91 Z" fill="#000000" fill-rule="nonzero" fill-opacity="1" /><path clip-path="url(#clip880)" d="M595.953 1517.37 Q592.342 1517.37 590.513 1520.93 Q588.708 1524.47 588.708 1531.6 Q588.708 1538.71 590.513 1542.27 Q592.342 1545.82 595.953 1545.82 Q599.587 1545.82 601.393 1542.27 Q603.222 1538.71 603.222 1531.6 Q603.222 1524.47 601.393 1520.93 Q599.587 1517.37 595.953 1517.37 M595.953 1513.66 Q601.763 1513.66 604.819 1518.27 Q607.898 1522.85 607.898 1531.6 Q607.898 1540.33 604.819 1544.94 Q601.763 1549.52 595.953 1549.52 Q590.143 1549.52 587.064 1544.94 Q584.009 1540.33 584.009 1531.6 Q584.009 1522.85 587.064 1518.27 Q590.143 1513.66 595.953 1513.66 Z" fill="#000000" fill-rule="nonzero" fill-opacity="1" /><path clip-path="url(#clip880)" d="M616.115 1542.97 L620.999 1542.97 L620.999 1548.85 L616.115 1548.85 L616.115 1542.97 Z" fill="#000000" fill-rule="nonzero" fill-opacity="1" /><path clip-path="url(#clip880)" d="M641.184 1517.37 Q637.573 1517.37 635.745 1520.93 Q633.939 1524.47 633.939 1531.6 Q633.939 1538.71 635.745 1542.27 Q637.573 1545.82 641.184 1545.82 Q644.819 1545.82 646.624 1542.27 Q648.453 1538.71 648.453 1531.6 Q648.453 1524.47 646.624 1520.93 Q644.819 1517.37 641.184 1517.37 M641.184 1513.66 Q646.995 1513.66 650.05 1518.27 Q653.129 1522.85 653.129 1531.6 Q653.129 1540.33 650.05 1544.94 Q646.995 1549.52 641.184 1549.52 Q635.374 1549.52 632.296 1544.94 Q629.24 1540.33 629.24 1531.6 Q629.24 1522.85 632.296 1518.27 Q635.374 1513.66 641.184 1513.66 Z" fill="#000000" fill-rule="nonzero" fill-opacity="1" /><path clip-path="url(#clip880)" d="M665.374 1544.91 L681.693 1544.91 L681.693 1548.85 L659.749 1548.85 L659.749 1544.91 Q662.411 1542.16 666.994 1537.53 Q671.601 1532.88 672.781 1531.53 Q675.027 1529.01 675.906 1527.27 Q676.809 1525.51 676.809 1523.82 Q676.809 1521.07 674.865 1519.33 Q672.944 1517.6 669.842 1517.6 Q667.643 1517.6 665.189 1518.36 Q662.758 1519.13 659.981 1520.68 L659.981 1515.95 Q662.805 1514.82 665.258 1514.24 Q667.712 1513.66 669.749 1513.66 Q675.119 1513.66 678.314 1516.35 Q681.508 1519.03 681.508 1523.52 Q681.508 1525.65 680.698 1527.57 Q679.911 1529.47 677.805 1532.07 Q677.226 1532.74 674.124 1535.95 Q671.022 1539.15 665.374 1544.91 Z" fill="#000000" fill-rule="nonzero" fill-opacity="1" /><path clip-path="url(#clip880)" d="M802.696 1517.37 Q799.085 1517.37 797.256 1520.93 Q795.451 1524.47 795.451 1531.6 Q795.451 1538.71 797.256 1542.27 Q799.085 1545.82 802.696 1545.82 Q806.33 1545.82 808.136 1542.27 Q809.965 1538.71 809.965 1531.6 Q809.965 1524.47 808.136 1520.93 Q806.33 1517.37 802.696 1517.37 M802.696 1513.66 Q808.506 1513.66 811.562 1518.27 Q814.64 1522.85 814.64 1531.6 Q814.64 1540.33 811.562 1544.94 Q808.506 1549.52 802.696 1549.52 Q796.886 1549.52 793.807 1544.94 Q790.752 1540.33 790.752 1531.6 Q790.752 1522.85 793.807 1518.27 Q796.886 1513.66 802.696 1513.66 Z" fill="#000000" fill-rule="nonzero" fill-opacity="1" /><path clip-path="url(#clip880)" d="M822.858 1542.97 L827.742 1542.97 L827.742 1548.85 L822.858 1548.85 L822.858 1542.97 Z" fill="#000000" fill-rule="nonzero" fill-opacity="1" /><path clip-path="url(#clip880)" d="M847.927 1517.37 Q844.316 1517.37 842.488 1520.93 Q840.682 1524.47 840.682 1531.6 Q840.682 1538.71 842.488 1542.27 Q844.316 1545.82 847.927 1545.82 Q851.562 1545.82 853.367 1542.27 Q855.196 1538.71 855.196 1531.6 Q855.196 1524.47 853.367 1520.93 Q851.562 1517.37 847.927 1517.37 M847.927 1513.66 Q853.737 1513.66 856.793 1518.27 Q859.872 1522.85 859.872 1531.6 Q859.872 1540.33 856.793 1544.94 Q853.737 1549.52 847.927 1549.52 Q842.117 1549.52 839.038 1544.94 Q835.983 1540.33 835.983 1531.6 Q835.983 1522.85 839.038 1518.27 Q842.117 1513.66 847.927 1513.66 Z" fill="#000000" fill-rule="nonzero" fill-opacity="1" /><path clip-path="url(#clip880)" d="M882.256 1530.21 Q885.612 1530.93 887.487 1533.2 Q889.385 1535.47 889.385 1538.8 Q889.385 1543.92 885.867 1546.72 Q882.348 1549.52 875.867 1549.52 Q873.691 1549.52 871.376 1549.08 Q869.085 1548.66 866.631 1547.81 L866.631 1543.29 Q868.575 1544.43 870.89 1545.01 Q873.205 1545.58 875.728 1545.58 Q880.126 1545.58 882.418 1543.85 Q884.733 1542.11 884.733 1538.8 Q884.733 1535.75 882.58 1534.03 Q880.45 1532.3 876.631 1532.3 L872.603 1532.3 L872.603 1528.45 L876.816 1528.45 Q880.265 1528.45 882.094 1527.09 Q883.923 1525.7 883.923 1523.11 Q883.923 1520.45 882.024 1519.03 Q880.149 1517.6 876.631 1517.6 Q874.71 1517.6 872.511 1518.01 Q870.311 1518.43 867.673 1519.31 L867.673 1515.14 Q870.335 1514.4 872.649 1514.03 Q874.987 1513.66 877.048 1513.66 Q882.372 1513.66 885.473 1516.09 Q888.575 1518.5 888.575 1522.62 Q888.575 1525.49 886.932 1527.48 Q885.288 1529.45 882.256 1530.21 Z" fill="#000000" fill-rule="nonzero" fill-opacity="1" /><path clip-path="url(#clip880)" d="M1009.35 1517.37 Q1005.74 1517.37 1003.91 1520.93 Q1002.1 1524.47 1002.1 1531.6 Q1002.1 1538.71 1003.91 1542.27 Q1005.74 1545.82 1009.35 1545.82 Q1012.98 1545.82 1014.79 1542.27 Q1016.61 1538.71 1016.61 1531.6 Q1016.61 1524.47 1014.79 1520.93 Q1012.98 1517.37 1009.35 1517.37 M1009.35 1513.66 Q1015.16 1513.66 1018.21 1518.27 Q1021.29 1522.85 1021.29 1531.6 Q1021.29 1540.33 1018.21 1544.94 Q1015.16 1549.52 1009.35 1549.52 Q1003.54 1549.52 1000.46 1544.94 Q997.402 1540.33 997.402 1531.6 Q997.402 1522.85 1000.46 1518.27 Q1003.54 1513.66 1009.35 1513.66 Z" fill="#000000" fill-rule="nonzero" fill-opacity="1" /><path clip-path="url(#clip880)" d="M1029.51 1542.97 L1034.39 1542.97 L1034.39 1548.85 L1029.51 1548.85 L1029.51 1542.97 Z" fill="#000000" fill-rule="nonzero" fill-opacity="1" /><path clip-path="url(#clip880)" d="M1054.58 1517.37 Q1050.97 1517.37 1049.14 1520.93 Q1047.33 1524.47 1047.33 1531.6 Q1047.33 1538.71 1049.14 1542.27 Q1050.97 1545.82 1054.58 1545.82 Q1058.21 1545.82 1060.02 1542.27 Q1061.85 1538.71 1061.85 1531.6 Q1061.85 1524.47 1060.02 1520.93 Q1058.21 1517.37 1054.58 1517.37 M1054.58 1513.66 Q1060.39 1513.66 1063.44 1518.27 Q1066.52 1522.85 1066.52 1531.6 Q1066.52 1540.33 1063.44 1544.94 Q1060.39 1549.52 1054.58 1549.52 Q1048.77 1549.52 1045.69 1544.94 Q1042.63 1540.33 1042.63 1531.6 Q1042.63 1522.85 1045.69 1518.27 Q1048.77 1513.66 1054.58 1513.66 Z" fill="#000000" fill-rule="nonzero" fill-opacity="1" /><path clip-path="url(#clip880)" d="M1087.59 1518.36 L1075.78 1536.81 L1087.59 1536.81 L1087.59 1518.36 M1086.36 1514.29 L1092.24 1514.29 L1092.24 1536.81 L1097.17 1536.81 L1097.17 1540.7 L1092.24 1540.7 L1092.24 1548.85 L1087.59 1548.85 L1087.59 1540.7 L1071.98 1540.7 L1071.98 1536.19 L1086.36 1514.29 Z" fill="#000000" fill-rule="nonzero" fill-opacity="1" /><path clip-path="url(#clip880)" d="M1217.3 1517.37 Q1213.69 1517.37 1211.86 1520.93 Q1210.06 1524.47 1210.06 1531.6 Q1210.06 1538.71 1211.86 1542.27 Q1213.69 1545.82 1217.3 1545.82 Q1220.94 1545.82 1222.74 1542.27 Q1224.57 1538.71 1224.57 1531.6 Q1224.57 1524.47 1222.74 1520.93 Q1220.94 1517.37 1217.3 1517.37 M1217.3 1513.66 Q1223.11 1513.66 1226.17 1518.27 Q1229.25 1522.85 1229.25 1531.6 Q1229.25 1540.33 1226.17 1544.94 Q1223.11 1549.52 1217.3 1549.52 Q1211.49 1549.52 1208.42 1544.94 Q1205.36 1540.33 1205.36 1531.6 Q1205.36 1522.85 1208.42 1518.27 Q1211.49 1513.66 1217.3 1513.66 Z" fill="#000000" fill-rule="nonzero" fill-opacity="1" /><path clip-path="url(#clip880)" d="M1237.47 1542.97 L1242.35 1542.97 L1242.35 1548.85 L1237.47 1548.85 L1237.47 1542.97 Z" fill="#000000" fill-rule="nonzero" fill-opacity="1" /><path clip-path="url(#clip880)" d="M1262.54 1517.37 Q1258.92 1517.37 1257.1 1520.93 Q1255.29 1524.47 1255.29 1531.6 Q1255.29 1538.71 1257.1 1542.27 Q1258.92 1545.82 1262.54 1545.82 Q1266.17 1545.82 1267.98 1542.27 Q1269.8 1538.71 1269.8 1531.6 Q1269.8 1524.47 1267.98 1520.93 Q1266.17 1517.37 1262.54 1517.37 M1262.54 1513.66 Q1268.35 1513.66 1271.4 1518.27 Q1274.48 1522.85 1274.48 1531.6 Q1274.48 1540.33 1271.4 1544.94 Q1268.35 1549.52 1262.54 1549.52 Q1256.73 1549.52 1253.65 1544.94 Q1250.59 1540.33 1250.59 1531.6 Q1250.59 1522.85 1253.65 1518.27 Q1256.73 1513.66 1262.54 1513.66 Z" fill="#000000" fill-rule="nonzero" fill-opacity="1" /><path clip-path="url(#clip880)" d="M1282.74 1514.29 L1301.1 1514.29 L1301.1 1518.22 L1287.03 1518.22 L1287.03 1526.7 Q1288.04 1526.35 1289.06 1526.19 Q1290.08 1526 1291.1 1526 Q1296.89 1526 1300.27 1529.17 Q1303.65 1532.34 1303.65 1537.76 Q1303.65 1543.34 1300.17 1546.44 Q1296.7 1549.52 1290.38 1549.52 Q1288.21 1549.52 1285.94 1549.15 Q1283.69 1548.78 1281.29 1548.04 L1281.29 1543.34 Q1283.37 1544.47 1285.59 1545.03 Q1287.81 1545.58 1290.29 1545.58 Q1294.29 1545.58 1296.63 1543.48 Q1298.97 1541.37 1298.97 1537.76 Q1298.97 1534.15 1296.63 1532.04 Q1294.29 1529.94 1290.29 1529.94 Q1288.42 1529.94 1286.54 1530.35 Q1284.69 1530.77 1282.74 1531.65 L1282.74 1514.29 Z" fill="#000000" fill-rule="nonzero" fill-opacity="1" /><path clip-path="url(#clip880)" d="M1423.94 1517.37 Q1420.33 1517.37 1418.5 1520.93 Q1416.7 1524.47 1416.7 1531.6 Q1416.7 1538.71 1418.5 1542.27 Q1420.33 1545.82 1423.94 1545.82 Q1427.58 1545.82 1429.38 1542.27 Q1431.21 1538.71 1431.21 1531.6 Q1431.21 1524.47 1429.38 1520.93 Q1427.58 1517.37 1423.94 1517.37 M1423.94 1513.66 Q1429.75 1513.66 1432.81 1518.27 Q1435.89 1522.85 1435.89 1531.6 Q1435.89 1540.33 1432.81 1544.94 Q1429.75 1549.52 1423.94 1549.52 Q1418.13 1549.52 1415.05 1544.94 Q1412 1540.33 1412 1531.6 Q1412 1522.85 1415.05 1518.27 Q1418.13 1513.66 1423.94 1513.66 Z" fill="#000000" fill-rule="nonzero" fill-opacity="1" /><path clip-path="url(#clip880)" d="M1444.11 1542.97 L1448.99 1542.97 L1448.99 1548.85 L1444.11 1548.85 L1444.11 1542.97 Z" fill="#000000" fill-rule="nonzero" fill-opacity="1" /><path clip-path="url(#clip880)" d="M1469.17 1517.37 Q1465.56 1517.37 1463.73 1520.93 Q1461.93 1524.47 1461.93 1531.6 Q1461.93 1538.71 1463.73 1542.27 Q1465.56 1545.82 1469.17 1545.82 Q1472.81 1545.82 1474.61 1542.27 Q1476.44 1538.71 1476.44 1531.6 Q1476.44 1524.47 1474.61 1520.93 Q1472.81 1517.37 1469.17 1517.37 M1469.17 1513.66 Q1474.98 1513.66 1478.04 1518.27 Q1481.12 1522.85 1481.12 1531.6 Q1481.12 1540.33 1478.04 1544.94 Q1474.98 1549.52 1469.17 1549.52 Q1463.36 1549.52 1460.29 1544.94 Q1457.23 1540.33 1457.23 1531.6 Q1457.23 1522.85 1460.29 1518.27 Q1463.36 1513.66 1469.17 1513.66 Z" fill="#000000" fill-rule="nonzero" fill-opacity="1" /><path clip-path="url(#clip880)" d="M1499.92 1529.7 Q1496.77 1529.7 1494.92 1531.86 Q1493.09 1534.01 1493.09 1537.76 Q1493.09 1541.49 1494.92 1543.66 Q1496.77 1545.82 1499.92 1545.82 Q1503.06 1545.82 1504.89 1543.66 Q1506.74 1541.49 1506.74 1537.76 Q1506.74 1534.01 1504.89 1531.86 Q1503.06 1529.7 1499.92 1529.7 M1509.2 1515.05 L1509.2 1519.31 Q1507.44 1518.48 1505.63 1518.04 Q1503.85 1517.6 1502.09 1517.6 Q1497.46 1517.6 1495.01 1520.72 Q1492.58 1523.85 1492.23 1530.17 Q1493.6 1528.15 1495.66 1527.09 Q1497.72 1526 1500.19 1526 Q1505.4 1526 1508.41 1529.17 Q1511.44 1532.32 1511.44 1537.76 Q1511.44 1543.08 1508.29 1546.3 Q1505.15 1549.52 1499.92 1549.52 Q1493.92 1549.52 1490.75 1544.94 Q1487.58 1540.33 1487.58 1531.6 Q1487.58 1523.41 1491.47 1518.55 Q1495.35 1513.66 1501.91 1513.66 Q1503.67 1513.66 1505.45 1514.01 Q1507.25 1514.36 1509.2 1515.05 Z" fill="#000000" fill-rule="nonzero" fill-opacity="1" /><path clip-path="url(#clip880)" d="M1631.69 1517.37 Q1628.08 1517.37 1626.25 1520.93 Q1624.45 1524.47 1624.45 1531.6 Q1624.45 1538.71 1626.25 1542.27 Q1628.08 1545.82 1631.69 1545.82 Q1635.33 1545.82 1637.13 1542.27 Q1638.96 1538.71 1638.96 1531.6 Q1638.96 1524.47 1637.13 1520.93 Q1635.33 1517.37 1631.69 1517.37 M1631.69 1513.66 Q1637.5 1513.66 1640.56 1518.27 Q1643.64 1522.85 1643.64 1531.6 Q1643.64 1540.33 1640.56 1544.94 Q1637.5 1549.52 1631.69 1549.52 Q1625.88 1549.52 1622.8 1544.94 Q1619.75 1540.33 1619.75 1531.6 Q1619.75 1522.85 1622.8 1518.27 Q1625.88 1513.66 1631.69 1513.66 Z" fill="#000000" fill-rule="nonzero" fill-opacity="1" /><path clip-path="url(#clip880)" d="M1651.86 1542.97 L1656.74 1542.97 L1656.74 1548.85 L1651.86 1548.85 L1651.86 1542.97 Z" fill="#000000" fill-rule="nonzero" fill-opacity="1" /><path clip-path="url(#clip880)" d="M1676.92 1517.37 Q1673.31 1517.37 1671.48 1520.93 Q1669.68 1524.47 1669.68 1531.6 Q1669.68 1538.71 1671.48 1542.27 Q1673.31 1545.82 1676.92 1545.82 Q1680.56 1545.82 1682.36 1542.27 Q1684.19 1538.71 1684.19 1531.6 Q1684.19 1524.47 1682.36 1520.93 Q1680.56 1517.37 1676.92 1517.37 M1676.92 1513.66 Q1682.73 1513.66 1685.79 1518.27 Q1688.87 1522.85 1688.87 1531.6 Q1688.87 1540.33 1685.79 1544.94 Q1682.73 1549.52 1676.92 1549.52 Q1671.11 1549.52 1668.04 1544.94 Q1664.98 1540.33 1664.98 1531.6 Q1664.98 1522.85 1668.04 1518.27 Q1671.11 1513.66 1676.92 1513.66 Z" fill="#000000" fill-rule="nonzero" fill-opacity="1" /><path clip-path="url(#clip880)" d="M1695.91 1514.29 L1718.13 1514.29 L1718.13 1516.28 L1705.58 1548.85 L1700.7 1548.85 L1712.5 1518.22 L1695.91 1518.22 L1695.91 1514.29 Z" fill="#000000" fill-rule="nonzero" fill-opacity="1" /><path clip-path="url(#clip880)" d="M1838.51 1517.37 Q1834.89 1517.37 1833.07 1520.93 Q1831.26 1524.47 1831.26 1531.6 Q1831.26 1538.71 1833.07 1542.27 Q1834.89 1545.82 1838.51 1545.82 Q1842.14 1545.82 1843.95 1542.27 Q1845.77 1538.71 1845.77 1531.6 Q1845.77 1524.47 1843.95 1520.93 Q1842.14 1517.37 1838.51 1517.37 M1838.51 1513.66 Q1844.32 1513.66 1847.37 1518.27 Q1850.45 1522.85 1850.45 1531.6 Q1850.45 1540.33 1847.37 1544.94 Q1844.32 1549.52 1838.51 1549.52 Q1832.7 1549.52 1829.62 1544.94 Q1826.56 1540.33 1826.56 1531.6 Q1826.56 1522.85 1829.62 1518.27 Q1832.7 1513.66 1838.51 1513.66 Z" fill="#000000" fill-rule="nonzero" fill-opacity="1" /><path clip-path="url(#clip880)" d="M1858.67 1542.97 L1863.55 1542.97 L1863.55 1548.85 L1858.67 1548.85 L1858.67 1542.97 Z" fill="#000000" fill-rule="nonzero" fill-opacity="1" /><path clip-path="url(#clip880)" d="M1883.74 1517.37 Q1880.13 1517.37 1878.3 1520.93 Q1876.49 1524.47 1876.49 1531.6 Q1876.49 1538.71 1878.3 1542.27 Q1880.13 1545.82 1883.74 1545.82 Q1887.37 1545.82 1889.18 1542.27 Q1891.01 1538.71 1891.01 1531.6 Q1891.01 1524.47 1889.18 1520.93 Q1887.37 1517.37 1883.74 1517.37 M1883.74 1513.66 Q1889.55 1513.66 1892.6 1518.27 Q1895.68 1522.85 1895.68 1531.6 Q1895.68 1540.33 1892.6 1544.94 Q1889.55 1549.52 1883.74 1549.52 Q1877.93 1549.52 1874.85 1544.94 Q1871.79 1540.33 1871.79 1531.6 Q1871.79 1522.85 1874.85 1518.27 Q1877.93 1513.66 1883.74 1513.66 Z" fill="#000000" fill-rule="nonzero" fill-opacity="1" /><path clip-path="url(#clip880)" d="M1913.9 1532.44 Q1910.57 1532.44 1908.64 1534.22 Q1906.75 1536 1906.75 1539.13 Q1906.75 1542.25 1908.64 1544.03 Q1910.57 1545.82 1913.9 1545.82 Q1917.23 1545.82 1919.15 1544.03 Q1921.07 1542.23 1921.07 1539.13 Q1921.07 1536 1919.15 1534.22 Q1917.26 1532.44 1913.9 1532.44 M1909.22 1530.45 Q1906.21 1529.7 1904.52 1527.64 Q1902.86 1525.58 1902.86 1522.62 Q1902.86 1518.48 1905.8 1516.07 Q1908.76 1513.66 1913.9 1513.66 Q1919.06 1513.66 1922 1516.07 Q1924.94 1518.48 1924.94 1522.62 Q1924.94 1525.58 1923.25 1527.64 Q1921.58 1529.7 1918.6 1530.45 Q1921.98 1531.23 1923.85 1533.52 Q1925.75 1535.82 1925.75 1539.13 Q1925.75 1544.15 1922.67 1546.83 Q1919.62 1549.52 1913.9 1549.52 Q1908.18 1549.52 1905.1 1546.83 Q1902.05 1544.15 1902.05 1539.13 Q1902.05 1535.82 1903.94 1533.52 Q1905.84 1531.23 1909.22 1530.45 M1907.51 1523.06 Q1907.51 1525.75 1909.18 1527.25 Q1910.87 1528.76 1913.9 1528.76 Q1916.91 1528.76 1918.6 1527.25 Q1920.31 1525.75 1920.31 1523.06 Q1920.31 1520.38 1918.6 1518.87 Q1916.91 1517.37 1913.9 1517.37 Q1910.87 1517.37 1909.18 1518.87 Q1907.51 1520.38 1907.51 1523.06 Z" fill="#000000" fill-rule="nonzero" fill-opacity="1" /><path clip-path="url(#clip880)" d="M2045.77 1517.37 Q2042.16 1517.37 2040.33 1520.93 Q2038.52 1524.47 2038.52 1531.6 Q2038.52 1538.71 2040.33 1542.27 Q2042.16 1545.82 2045.77 1545.82 Q2049.4 1545.82 2051.21 1542.27 Q2053.04 1538.71 2053.04 1531.6 Q2053.04 1524.47 2051.21 1520.93 Q2049.4 1517.37 2045.77 1517.37 M2045.77 1513.66 Q2051.58 1513.66 2054.63 1518.27 Q2057.71 1522.85 2057.71 1531.6 Q2057.71 1540.33 2054.63 1544.94 Q2051.58 1549.52 2045.77 1549.52 Q2039.96 1549.52 2036.88 1544.94 Q2033.82 1540.33 2033.82 1531.6 Q2033.82 1522.85 2036.88 1518.27 Q2039.96 1513.66 2045.77 1513.66 Z" fill="#000000" fill-rule="nonzero" fill-opacity="1" /><path clip-path="url(#clip880)" d="M2065.93 1542.97 L2070.82 1542.97 L2070.82 1548.85 L2065.93 1548.85 L2065.93 1542.97 Z" fill="#000000" fill-rule="nonzero" fill-opacity="1" /><path clip-path="url(#clip880)" d="M2091 1517.37 Q2087.39 1517.37 2085.56 1520.93 Q2083.76 1524.47 2083.76 1531.6 Q2083.76 1538.71 2085.56 1542.27 Q2087.39 1545.82 2091 1545.82 Q2094.63 1545.82 2096.44 1542.27 Q2098.27 1538.71 2098.27 1531.6 Q2098.27 1524.47 2096.44 1520.93 Q2094.63 1517.37 2091 1517.37 M2091 1513.66 Q2096.81 1513.66 2099.87 1518.27 Q2102.94 1522.85 2102.94 1531.6 Q2102.94 1540.33 2099.87 1544.94 Q2096.81 1549.52 2091 1549.52 Q2085.19 1549.52 2082.11 1544.94 Q2079.06 1540.33 2079.06 1531.6 Q2079.06 1522.85 2082.11 1518.27 Q2085.19 1513.66 2091 1513.66 Z" fill="#000000" fill-rule="nonzero" fill-opacity="1" /><path clip-path="url(#clip880)" d="M2111.3 1548.13 L2111.3 1543.87 Q2113.06 1544.7 2114.87 1545.14 Q2116.67 1545.58 2118.41 1545.58 Q2123.04 1545.58 2125.47 1542.48 Q2127.92 1539.36 2128.27 1533.01 Q2126.93 1535.01 2124.87 1536.07 Q2122.81 1537.13 2120.31 1537.13 Q2115.12 1537.13 2112.09 1534.01 Q2109.08 1530.86 2109.08 1525.42 Q2109.08 1520.1 2112.23 1516.88 Q2115.38 1513.66 2120.61 1513.66 Q2126.6 1513.66 2129.75 1518.27 Q2132.92 1522.85 2132.92 1531.6 Q2132.92 1539.77 2129.03 1544.66 Q2125.17 1549.52 2118.62 1549.52 Q2116.86 1549.52 2115.05 1549.17 Q2113.25 1548.82 2111.3 1548.13 M2120.61 1533.48 Q2123.75 1533.48 2125.58 1531.32 Q2127.44 1529.17 2127.44 1525.42 Q2127.44 1521.7 2125.58 1519.54 Q2123.75 1517.37 2120.61 1517.37 Q2117.46 1517.37 2115.61 1519.54 Q2113.78 1521.7 2113.78 1525.42 Q2113.78 1529.17 2115.61 1531.32 Q2117.46 1533.48 2120.61 1533.48 Z" fill="#000000" fill-rule="nonzero" fill-opacity="1" /><path clip-path="url(#clip880)" d="M2252.89 1517.37 Q2249.28 1517.37 2247.45 1520.93 Q2245.65 1524.47 2245.65 1531.6 Q2245.65 1538.71 2247.45 1542.27 Q2249.28 1545.82 2252.89 1545.82 Q2256.53 1545.82 2258.33 1542.27 Q2260.16 1538.71 2260.16 1531.6 Q2260.16 1524.47 2258.33 1520.93 Q2256.53 1517.37 2252.89 1517.37 M2252.89 1513.66 Q2258.7 1513.66 2261.76 1518.27 Q2264.84 1522.85 2264.84 1531.6 Q2264.84 1540.33 2261.76 1544.94 Q2258.7 1549.52 2252.89 1549.52 Q2247.08 1549.52 2244.01 1544.94 Q2240.95 1540.33 2240.95 1531.6 Q2240.95 1522.85 2244.01 1518.27 Q2247.08 1513.66 2252.89 1513.66 Z" fill="#000000" fill-rule="nonzero" fill-opacity="1" /><path clip-path="url(#clip880)" d="M2273.06 1542.97 L2277.94 1542.97 L2277.94 1548.85 L2273.06 1548.85 L2273.06 1542.97 Z" fill="#000000" fill-rule="nonzero" fill-opacity="1" /><path clip-path="url(#clip880)" d="M2288.94 1544.91 L2296.57 1544.91 L2296.57 1518.55 L2288.26 1520.21 L2288.26 1515.95 L2296.53 1514.29 L2301.2 1514.29 L2301.2 1544.91 L2308.84 1544.91 L2308.84 1548.85 L2288.94 1548.85 L2288.94 1544.91 Z" fill="#000000" fill-rule="nonzero" fill-opacity="1" /><path clip-path="url(#clip880)" d="M2328.29 1517.37 Q2324.68 1517.37 2322.85 1520.93 Q2321.04 1524.47 2321.04 1531.6 Q2321.04 1538.71 2322.85 1542.27 Q2324.68 1545.82 2328.29 1545.82 Q2331.92 1545.82 2333.73 1542.27 Q2335.56 1538.71 2335.56 1531.6 Q2335.56 1524.47 2333.73 1520.93 Q2331.92 1517.37 2328.29 1517.37 M2328.29 1513.66 Q2334.1 1513.66 2337.15 1518.27 Q2340.23 1522.85 2340.23 1531.6 Q2340.23 1540.33 2337.15 1544.94 Q2334.1 1549.52 2328.29 1549.52 Q2322.48 1549.52 2319.4 1544.94 Q2316.34 1540.33 2316.34 1531.6 Q2316.34 1522.85 2319.4 1518.27 Q2322.48 1513.66 2328.29 1513.66 Z" fill="#000000" fill-rule="nonzero" fill-opacity="1" /><polyline clip-path="url(#clip882)" style="stroke:#000000; stroke-linecap:round; stroke-linejoin:round; stroke-width:2; stroke-opacity:0.1; fill:none" points="156.251,1279.68 2352.76,1279.68 "/>
<polyline clip-path="url(#clip882)" style="stroke:#000000; stroke-linecap:round; stroke-linejoin:round; stroke-width:2; stroke-opacity:0.1; fill:none" points="156.251,1030.63 2352.76,1030.63 "/>
<polyline clip-path="url(#clip882)" style="stroke:#000000; stroke-linecap:round; stroke-linejoin:round; stroke-width:2; stroke-opacity:0.1; fill:none" points="156.251,781.576 2352.76,781.576 "/>
<polyline clip-path="url(#clip882)" style="stroke:#000000; stroke-linecap:round; stroke-linejoin:round; stroke-width:2; stroke-opacity:0.1; fill:none" points="156.251,532.524 2352.76,532.524 "/>
<polyline clip-path="url(#clip882)" style="stroke:#000000; stroke-linecap:round; stroke-linejoin:round; stroke-width:2; stroke-opacity:0.1; fill:none" points="156.251,283.472 2352.76,283.472 "/>
<polyline clip-path="url(#clip880)" style="stroke:#000000; stroke-linecap:round; stroke-linejoin:round; stroke-width:4; stroke-opacity:1; fill:none" points="156.251,1486.45 156.251,47.2441 "/>
<polyline clip-path="url(#clip880)" style="stroke:#000000; stroke-linecap:round; stroke-linejoin:round; stroke-width:4; stroke-opacity:1; fill:none" points="156.251,1279.68 175.149,1279.68 "/>
<polyline clip-path="url(#clip880)" style="stroke:#000000; stroke-linecap:round; stroke-linejoin:round; stroke-width:4; stroke-opacity:1; fill:none" points="156.251,1030.63 175.149,1030.63 "/>
<polyline clip-path="url(#clip880)" style="stroke:#000000; stroke-linecap:round; stroke-linejoin:round; stroke-width:4; stroke-opacity:1; fill:none" points="156.251,781.576 175.149,781.576 "/>
<polyline clip-path="url(#clip880)" style="stroke:#000000; stroke-linecap:round; stroke-linejoin:round; stroke-width:4; stroke-opacity:1; fill:none" points="156.251,532.524 175.149,532.524 "/>
<polyline clip-path="url(#clip880)" style="stroke:#000000; stroke-linecap:round; stroke-linejoin:round; stroke-width:4; stroke-opacity:1; fill:none" points="156.251,283.472 175.149,283.472 "/>
<path clip-path="url(#clip880)" d="M55.4828 1293.03 L63.1217 1293.03 L63.1217 1266.66 L54.8115 1268.33 L54.8115 1264.07 L63.0754 1262.4 L67.7513 1262.4 L67.7513 1293.03 L75.3901 1293.03 L75.3901 1296.96 L55.4828 1296.96 L55.4828 1293.03 Z" fill="#000000" fill-rule="nonzero" fill-opacity="1" /><path clip-path="url(#clip880)" d="M84.8345 1291.08 L89.7188 1291.08 L89.7188 1296.96 L84.8345 1296.96 L84.8345 1291.08 Z" fill="#000000" fill-rule="nonzero" fill-opacity="1" /><path clip-path="url(#clip880)" d="M103.932 1293.03 L120.251 1293.03 L120.251 1296.96 L98.3067 1296.96 L98.3067 1293.03 Q100.969 1290.27 105.552 1285.64 Q110.158 1280.99 111.339 1279.65 Q113.584 1277.12 114.464 1275.39 Q115.367 1273.63 115.367 1271.94 Q115.367 1269.18 113.422 1267.45 Q111.501 1265.71 108.399 1265.71 Q106.2 1265.71 103.746 1266.47 Q101.316 1267.24 98.5382 1268.79 L98.5382 1264.07 Q101.362 1262.93 103.816 1262.35 Q106.27 1261.78 108.307 1261.78 Q113.677 1261.78 116.871 1264.46 Q120.066 1267.15 120.066 1271.64 Q120.066 1273.77 119.256 1275.69 Q118.469 1277.59 116.362 1280.18 Q115.783 1280.85 112.682 1284.07 Q109.58 1287.26 103.932 1293.03 Z" fill="#000000" fill-rule="nonzero" fill-opacity="1" /><path clip-path="url(#clip880)" d="M54.881 1043.97 L62.5198 1043.97 L62.5198 1017.61 L54.2097 1019.27 L54.2097 1015.02 L62.4735 1013.35 L67.1494 1013.35 L67.1494 1043.97 L74.7883 1043.97 L74.7883 1047.91 L54.881 1047.91 L54.881 1043.97 Z" fill="#000000" fill-rule="nonzero" fill-opacity="1" /><path clip-path="url(#clip880)" d="M84.2327 1042.03 L89.1169 1042.03 L89.1169 1047.91 L84.2327 1047.91 L84.2327 1042.03 Z" fill="#000000" fill-rule="nonzero" fill-opacity="1" /><path clip-path="url(#clip880)" d="M99.3483 1013.35 L117.705 1013.35 L117.705 1017.28 L103.631 1017.28 L103.631 1025.76 Q104.649 1025.41 105.668 1025.25 Q106.686 1025.06 107.705 1025.06 Q113.492 1025.06 116.871 1028.23 Q120.251 1031.4 120.251 1036.82 Q120.251 1042.4 116.779 1045.5 Q113.307 1048.58 106.987 1048.58 Q104.811 1048.58 102.543 1048.21 Q100.297 1047.84 97.89 1047.1 L97.89 1042.4 Q99.9733 1043.53 102.196 1044.09 Q104.418 1044.64 106.895 1044.64 Q110.899 1044.64 113.237 1042.54 Q115.575 1040.43 115.575 1036.82 Q115.575 1033.21 113.237 1031.1 Q110.899 1029 106.895 1029 Q105.02 1029 103.145 1029.41 Q101.293 1029.83 99.3483 1030.71 L99.3483 1013.35 Z" fill="#000000" fill-rule="nonzero" fill-opacity="1" /><path clip-path="url(#clip880)" d="M53.9782 794.921 L61.6171 794.921 L61.6171 768.555 L53.3069 770.222 L53.3069 765.963 L61.5708 764.296 L66.2467 764.296 L66.2467 794.921 L73.8855 794.921 L73.8855 798.856 L53.9782 798.856 L53.9782 794.921 Z" fill="#000000" fill-rule="nonzero" fill-opacity="1" /><path clip-path="url(#clip880)" d="M83.3299 792.977 L88.2141 792.977 L88.2141 798.856 L83.3299 798.856 L83.3299 792.977 Z" fill="#000000" fill-rule="nonzero" fill-opacity="1" /><path clip-path="url(#clip880)" d="M108.399 782.444 Q105.066 782.444 103.145 784.227 Q101.246 786.009 101.246 789.134 Q101.246 792.259 103.145 794.041 Q105.066 795.824 108.399 795.824 Q111.733 795.824 113.654 794.041 Q115.575 792.236 115.575 789.134 Q115.575 786.009 113.654 784.227 Q111.756 782.444 108.399 782.444 M103.723 780.454 Q100.714 779.713 99.0243 777.653 Q97.3576 775.592 97.3576 772.629 Q97.3576 768.486 100.297 766.079 Q103.26 763.671 108.399 763.671 Q113.561 763.671 116.501 766.079 Q119.441 768.486 119.441 772.629 Q119.441 775.592 117.751 777.653 Q116.084 779.713 113.098 780.454 Q116.478 781.241 118.353 783.532 Q120.251 785.824 120.251 789.134 Q120.251 794.157 117.172 796.842 Q114.117 799.527 108.399 799.527 Q102.682 799.527 99.603 796.842 Q96.5474 794.157 96.5474 789.134 Q96.5474 785.824 98.4456 783.532 Q100.344 781.241 103.723 780.454 M102.01 773.069 Q102.01 775.754 103.677 777.259 Q105.367 778.764 108.399 778.764 Q111.408 778.764 113.098 777.259 Q114.811 775.754 114.811 773.069 Q114.811 770.384 113.098 768.88 Q111.408 767.375 108.399 767.375 Q105.367 767.375 103.677 768.88 Q102.01 770.384 102.01 773.069 Z" fill="#000000" fill-rule="nonzero" fill-opacity="1" /><path clip-path="url(#clip880)" d="M58.33 545.869 L74.6494 545.869 L74.6494 549.804 L52.7051 549.804 L52.7051 545.869 Q55.3671 543.114 59.9504 538.485 Q64.5569 533.832 65.7374 532.489 Q67.9828 529.966 68.8624 528.23 Q69.7652 526.471 69.7652 524.781 Q69.7652 522.026 67.8207 520.29 Q65.8995 518.554 62.7976 518.554 Q60.5986 518.554 58.1449 519.318 Q55.7143 520.082 52.9366 521.633 L52.9366 516.911 Q55.7606 515.776 58.2143 515.198 Q60.668 514.619 62.705 514.619 Q68.0754 514.619 71.2698 517.304 Q74.4642 519.989 74.4642 524.48 Q74.4642 526.61 73.654 528.531 Q72.867 530.429 70.7605 533.022 Q70.1818 533.693 67.08 536.91 Q63.9782 540.105 58.33 545.869 Z" fill="#000000" fill-rule="nonzero" fill-opacity="1" /><path clip-path="url(#clip880)" d="M84.4642 543.924 L89.3484 543.924 L89.3484 549.804 L84.4642 549.804 L84.4642 543.924 Z" fill="#000000" fill-rule="nonzero" fill-opacity="1" /><path clip-path="url(#clip880)" d="M100.344 545.869 L107.983 545.869 L107.983 519.503 L99.6724 521.17 L99.6724 516.911 L107.936 515.244 L112.612 515.244 L112.612 545.869 L120.251 545.869 L120.251 549.804 L100.344 549.804 L100.344 545.869 Z" fill="#000000" fill-rule="nonzero" fill-opacity="1" /><path clip-path="url(#clip880)" d="M56.6171 296.816 L72.9365 296.816 L72.9365 300.752 L50.9921 300.752 L50.9921 296.816 Q53.6541 294.062 58.2375 289.432 Q62.8439 284.779 64.0245 283.437 Q66.2698 280.914 67.1494 279.178 Q68.0522 277.418 68.0522 275.729 Q68.0522 272.974 66.1078 271.238 Q64.1865 269.502 61.0847 269.502 Q58.8856 269.502 56.4319 270.266 Q54.0014 271.03 51.2236 272.58 L51.2236 267.858 Q54.0477 266.724 56.5014 266.145 Q58.955 265.567 60.9921 265.567 Q66.3624 265.567 69.5568 268.252 Q72.7513 270.937 72.7513 275.428 Q72.7513 277.557 71.9411 279.479 Q71.1541 281.377 69.0476 283.969 Q68.4689 284.641 65.367 287.858 Q62.2652 291.053 56.6171 296.816 Z" fill="#000000" fill-rule="nonzero" fill-opacity="1" /><path clip-path="url(#clip880)" d="M82.7512 294.872 L87.6354 294.872 L87.6354 300.752 L82.7512 300.752 L82.7512 294.872 Z" fill="#000000" fill-rule="nonzero" fill-opacity="1" /><path clip-path="url(#clip880)" d="M110.668 270.266 L98.8622 288.715 L110.668 288.715 L110.668 270.266 M109.441 266.192 L115.32 266.192 L115.32 288.715 L120.251 288.715 L120.251 292.603 L115.32 292.603 L115.32 300.752 L110.668 300.752 L110.668 292.603 L95.066 292.603 L95.066 288.09 L109.441 266.192 Z" fill="#000000" fill-rule="nonzero" fill-opacity="1" /><polyline clip-path="url(#clip882)" style="stroke:#009af9; stroke-linecap:round; stroke-linejoin:round; stroke-width:4; stroke-opacity:1; fill:none" points="218.416,1445.72 239.138,1443.6 259.86,1441.49 280.581,1439.38 301.303,1437.26 322.025,1435.15 342.747,1433.03 363.468,1430.91 384.19,1428.79 404.912,1426.66 425.634,1424.54 446.355,1422.41 467.077,1420.29 487.799,1418.16 508.521,1416.03 529.242,1413.9 549.964,1411.76 570.686,1409.63 591.408,1407.49 612.129,1405.36 632.851,1403.22 653.573,1401.08 674.295,1398.94 695.016,1396.79 715.738,1394.65 736.46,1392.5 757.182,1390.36 777.903,1388.21 798.625,1386.06 819.347,1383.91 840.069,1381.76 860.79,1379.6 881.512,1377.45 902.234,1375.29 922.956,1373.13 943.677,1370.98 964.399,1368.82 985.121,1366.65 1005.84,1364.49 1026.56,1362.33 1047.29,1360.16 1068.01,1357.99 1088.73,1355.83 1109.45,1353.66 1130.17,1351.49 1150.89,1349.31 1171.62,1347.14 1192.34,1344.97 1213.06,1342.79 1233.78,1340.62 1254.5,1338.44 1275.23,1336.26 1295.95,1334.08 1316.67,1331.9 1337.39,1329.71 1358.11,1327.53 1378.83,1325.34 1399.56,1323.16 1420.28,1320.97 1441,1318.78 1461.72,1316.59 1482.44,1314.4 1503.16,1312.21 1523.89,1310.01 1544.61,1307.82 1565.33,1305.62 1586.05,1303.43 1606.77,1301.23 1627.49,1299.03 1648.22,1296.83 1668.94,1294.63 1689.66,1292.43 1710.38,1290.22 1731.1,1288.02 1751.83,1285.81 1772.55,1283.61 1793.27,1281.4 1813.99,1279.19 1834.71,1276.98 1855.43,1274.77 1876.16,1272.56 1896.88,1270.34 1917.6,1268.13 1938.32,1265.91 1959.04,1263.7 1979.76,1261.48 2000.49,1259.26 2021.21,1257.04 2041.93,1254.82 2062.65,1252.6 2083.37,1250.38 2104.09,1248.15 2124.82,1245.93 2145.54,1243.7 2166.26,1241.48 2186.98,1239.25 2207.7,1237.02 2228.43,1234.79 2249.15,1232.56 2269.87,1230.33 2290.59,1228.1 "/>
<polyline clip-path="url(#clip882)" style="stroke:#e26f46; stroke-linecap:round; stroke-linejoin:round; stroke-width:4; stroke-opacity:1; fill:none" points="218.416,1445.72 239.138,1441.53 259.86,1437.32 280.581,1433.11 301.303,1428.89 322.025,1424.66 342.747,1420.42 363.468,1416.17 384.19,1411.91 404.912,1407.65 425.634,1403.37 446.355,1399.08 467.077,1394.78 487.799,1390.47 508.521,1386.15 529.242,1381.83 549.964,1377.49 570.686,1373.15 591.408,1368.79 612.129,1364.43 632.851,1360.05 653.573,1355.67 674.295,1351.27 695.016,1346.87 715.738,1342.46 736.46,1338.04 757.182,1333.61 777.903,1329.17 798.625,1324.73 819.347,1320.27 840.069,1315.8 860.79,1311.33 881.512,1306.84 902.234,1302.35 922.956,1297.85 943.677,1293.34 964.399,1288.82 985.121,1284.29 1005.84,1279.76 1026.56,1275.21 1047.29,1270.66 1068.01,1266.1 1088.73,1261.53 1109.45,1256.95 1130.17,1252.36 1150.89,1247.76 1171.62,1243.16 1192.34,1238.54 1213.06,1233.92 1233.78,1229.29 1254.5,1224.65 1275.23,1220.01 1295.95,1215.35 1316.67,1210.69 1337.39,1206.02 1358.11,1201.34 1378.83,1196.66 1399.56,1191.96 1420.28,1187.26 1441,1182.55 1461.72,1177.83 1482.44,1173.1 1503.16,1168.37 1523.89,1163.63 1544.61,1158.88 1565.33,1154.12 1586.05,1149.35 1606.77,1144.58 1627.49,1139.8 1648.22,1135.01 1668.94,1130.22 1689.66,1125.41 1710.38,1120.6 1731.1,1115.79 1751.83,1110.96 1772.55,1106.13 1793.27,1101.29 1813.99,1096.44 1834.71,1091.59 1855.43,1086.73 1876.16,1081.86 1896.88,1076.98 1917.6,1072.1 1938.32,1067.21 1959.04,1062.31 1979.76,1057.41 2000.49,1052.5 2021.21,1047.58 2041.93,1042.66 2062.65,1037.73 2083.37,1032.79 2104.09,1027.85 2124.82,1022.9 2145.54,1017.94 2166.26,1012.98 2186.98,1008 2207.7,1003.03 2228.43,998.044 2249.15,993.054 2269.87,988.058 2290.59,983.055 "/>
<polyline clip-path="url(#clip882)" style="stroke:#3da44d; stroke-linecap:round; stroke-linejoin:round; stroke-width:4; stroke-opacity:1; fill:none" points="218.416,1445.72 239.138,1439.44 259.86,1433.14 280.581,1426.82 301.303,1420.47 322.025,1414.1 342.747,1407.7 363.468,1401.27 384.19,1394.82 404.912,1388.35 425.634,1381.85 446.355,1375.33 467.077,1368.78 487.799,1362.21 508.521,1355.61 529.242,1348.99 549.964,1342.35 570.686,1335.68 591.408,1328.99 612.129,1322.27 632.851,1315.53 653.573,1308.77 674.295,1301.98 695.016,1295.17 715.738,1288.34 736.46,1281.48 757.182,1274.6 777.903,1267.7 798.625,1260.77 819.347,1253.82 840.069,1246.85 860.79,1239.86 881.512,1232.84 902.234,1225.8 922.956,1218.74 943.677,1211.66 964.399,1204.55 985.121,1197.42 1005.84,1190.27 1026.56,1183.1 1047.29,1175.91 1068.01,1168.7 1088.73,1161.46 1109.45,1154.21 1130.17,1146.93 1150.89,1139.63 1171.62,1132.31 1192.34,1124.97 1213.06,1117.61 1233.78,1110.22 1254.5,1102.82 1275.23,1095.4 1295.95,1087.96 1316.67,1080.49 1337.39,1073.01 1358.11,1065.51 1378.83,1057.98 1399.56,1050.44 1420.28,1042.88 1441,1035.3 1461.72,1027.7 1482.44,1020.08 1503.16,1012.44 1523.89,1004.78 1544.61,997.106 1565.33,989.41 1586.05,981.697 1606.77,973.964 1627.49,966.214 1648.22,958.445 1668.94,950.658 1689.66,942.854 1710.38,935.031 1731.1,927.191 1751.83,919.333 1772.55,911.458 1793.27,903.565 1813.99,895.655 1834.71,887.728 1855.43,879.784 1876.16,871.824 1896.88,863.846 1917.6,855.852 1938.32,847.842 1959.04,839.815 1979.76,831.772 2000.49,823.713 2021.21,815.638 2041.93,807.547 2062.65,799.441 2083.37,791.318 2104.09,783.181 2124.82,775.028 2145.54,766.859 2166.26,758.676 2186.98,750.478 2207.7,742.265 2228.43,734.037 2249.15,725.794 2269.87,717.537 2290.59,709.266 "/>
<polyline clip-path="url(#clip882)" style="stroke:#c271d2; stroke-linecap:round; stroke-linejoin:round; stroke-width:4; stroke-opacity:1; fill:none" points="218.416,1445.72 239.138,1437.36 259.86,1428.95 280.581,1420.49 301.303,1411.99 322.025,1403.44 342.747,1394.84 363.468,1386.2 384.19,1377.51 404.912,1368.78 425.634,1359.99 446.355,1351.16 467.077,1342.29 487.799,1333.37 508.521,1324.4 529.242,1315.39 549.964,1306.34 570.686,1297.24 591.408,1288.09 612.129,1278.9 632.851,1269.67 653.573,1260.39 674.295,1251.06 695.016,1241.7 715.738,1232.29 736.46,1222.84 757.182,1213.34 777.903,1203.8 798.625,1194.22 819.347,1184.6 840.069,1174.93 860.79,1165.23 881.512,1155.48 902.234,1145.69 922.956,1135.85 943.677,1125.98 964.399,1116.07 985.121,1106.12 1005.84,1096.12 1026.56,1086.09 1047.29,1076.02 1068.01,1065.91 1088.73,1055.76 1109.45,1045.57 1130.17,1035.34 1150.89,1025.07 1171.62,1014.77 1192.34,1004.42 1213.06,994.045 1233.78,983.628 1254.5,973.174 1275.23,962.684 1295.95,952.157 1316.67,941.594 1337.39,930.996 1358.11,920.362 1378.83,909.692 1399.56,898.988 1420.28,888.249 1441,877.476 1461.72,866.668 1482.44,855.827 1503.16,844.952 1523.89,834.044 1544.61,823.103 1565.33,812.129 1586.05,801.123 1606.77,790.085 1627.49,779.015 1648.22,767.914 1668.94,756.781 1689.66,745.617 1710.38,734.423 1731.1,723.198 1751.83,711.944 1772.55,700.659 1793.27,689.345 1813.99,678.002 1834.71,666.63 1855.43,655.229 1876.16,643.8 1896.88,632.343 1917.6,620.858 1938.32,609.346 1959.04,597.806 1979.76,586.24 2000.49,574.647 2021.21,563.028 2041.93,551.382 2062.65,539.711 2083.37,528.015 2104.09,516.293 2124.82,504.546 2145.54,492.775 2166.26,480.98 2186.98,469.16 2207.7,457.317 2228.43,445.45 2249.15,433.56 2269.87,421.648 2290.59,409.712 "/>
<polyline clip-path="url(#clip882)" style="stroke:#ac8d18; stroke-linecap:round; stroke-linejoin:round; stroke-width:4; stroke-opacity:1; fill:none" points="218.416,1445.72 239.138,1435.27 259.86,1424.74 280.581,1414.14 301.303,1403.46 322.025,1392.7 342.747,1381.87 363.468,1370.96 384.19,1359.98 404.912,1348.92 425.634,1337.79 446.355,1326.59 467.077,1315.31 487.799,1303.96 508.521,1292.53 529.242,1281.03 549.964,1269.46 570.686,1257.82 591.408,1246.11 612.129,1234.32 632.851,1222.46 653.573,1210.54 674.295,1198.54 695.016,1186.47 715.738,1174.34 736.46,1162.13 757.182,1149.86 777.903,1137.52 798.625,1125.11 819.347,1112.63 840.069,1100.09 860.79,1087.48 881.512,1074.81 902.234,1062.07 922.956,1049.27 943.677,1036.4 964.399,1023.47 985.121,1010.47 1005.84,997.415 1026.56,984.296 1047.29,971.114 1068.01,957.872 1088.73,944.569 1109.45,931.205 1130.17,917.782 1150.89,904.3 1171.62,890.76 1192.34,877.162 1213.06,863.506 1233.78,849.793 1254.5,836.024 1275.23,822.199 1295.95,808.318 1316.67,794.383 1337.39,780.394 1358.11,766.351 1378.83,752.255 1399.56,738.107 1420.28,723.906 1441,709.655 1461.72,695.352 1482.44,680.999 1503.16,666.597 1523.89,652.145 1544.61,637.645 1565.33,623.097 1586.05,608.501 1606.77,593.858 1627.49,579.169 1648.22,564.435 1668.94,549.655 1689.66,534.83 1710.38,519.961 1731.1,505.049 1751.83,490.094 1772.55,475.097 1793.27,460.057 1813.99,444.977 1834.71,429.855 1855.43,414.694 1876.16,399.492 1896.88,384.252 1917.6,368.973 1938.32,353.656 1959.04,338.302 1979.76,322.911 2000.49,307.483 2021.21,292.02 2041.93,276.521 2062.65,260.988 2083.37,245.42 2104.09,229.819 2124.82,214.185 2145.54,198.517 2166.26,182.818 2186.98,167.087 2207.7,151.325 2228.43,135.533 2249.15,119.71 2269.87,103.858 2290.59,87.9763 "/>
<path clip-path="url(#clip880)" d="M229.468 406.258 L571.757 406.258 L571.757 95.2176 L229.468 95.2176  Z" fill="#ffffff" fill-rule="evenodd" fill-opacity="1"/>
<polyline clip-path="url(#clip880)" style="stroke:#000000; stroke-linecap:round; stroke-linejoin:round; stroke-width:4; stroke-opacity:1; fill:none" points="229.468,406.258 571.757,406.258 571.757,95.2176 229.468,95.2176 229.468,406.258 "/>
<polyline clip-path="url(#clip880)" style="stroke:#009af9; stroke-linecap:round; stroke-linejoin:round; stroke-width:4; stroke-opacity:1; fill:none" points="253.873,147.058 400.307,147.058 "/>
<path clip-path="url(#clip880)" d="M446.426 148.689 L446.426 164.338 L442.166 164.338 L442.166 148.828 Q442.166 145.148 440.731 143.319 Q439.296 141.49 436.426 141.49 Q432.977 141.49 430.986 143.69 Q428.995 145.889 428.995 149.685 L428.995 164.338 L424.713 164.338 L424.713 138.412 L428.995 138.412 L428.995 142.44 Q430.523 140.102 432.583 138.944 Q434.666 137.787 437.375 137.787 Q441.842 137.787 444.134 140.565 Q446.426 143.319 446.426 148.689 Z" fill="#000000" fill-rule="nonzero" fill-opacity="1" /><path clip-path="url(#clip880)" d="M455.476 142.81 L485.152 142.81 L485.152 146.699 L455.476 146.699 L455.476 142.81 M455.476 152.254 L485.152 152.254 L485.152 156.189 L455.476 156.189 L455.476 152.254 Z" fill="#000000" fill-rule="nonzero" fill-opacity="1" /><path clip-path="url(#clip880)" d="M495.291 129.778 L513.647 129.778 L513.647 133.713 L499.573 133.713 L499.573 142.185 Q500.592 141.838 501.61 141.676 Q502.629 141.49 503.647 141.49 Q509.434 141.49 512.814 144.662 Q516.194 147.833 516.194 153.25 Q516.194 158.828 512.722 161.93 Q509.249 165.009 502.93 165.009 Q500.754 165.009 498.485 164.638 Q496.24 164.268 493.833 163.527 L493.833 158.828 Q495.916 159.963 498.138 160.518 Q500.36 161.074 502.837 161.074 Q506.842 161.074 509.18 158.967 Q511.518 156.861 511.518 153.25 Q511.518 149.639 509.18 147.532 Q506.842 145.426 502.837 145.426 Q500.962 145.426 499.087 145.842 Q497.235 146.259 495.291 147.139 L495.291 129.778 Z" fill="#000000" fill-rule="nonzero" fill-opacity="1" /><polyline clip-path="url(#clip880)" style="stroke:#e26f46; stroke-linecap:round; stroke-linejoin:round; stroke-width:4; stroke-opacity:1; fill:none" points="253.873,198.898 400.307,198.898 "/>
<path clip-path="url(#clip880)" d="M446.426 200.529 L446.426 216.178 L442.166 216.178 L442.166 200.668 Q442.166 196.988 440.731 195.159 Q439.296 193.33 436.426 193.33 Q432.977 193.33 430.986 195.53 Q428.995 197.729 428.995 201.525 L428.995 216.178 L424.713 216.178 L424.713 190.252 L428.995 190.252 L428.995 194.28 Q430.523 191.942 432.583 190.784 Q434.666 189.627 437.375 189.627 Q441.842 189.627 444.134 192.405 Q446.426 195.159 446.426 200.529 Z" fill="#000000" fill-rule="nonzero" fill-opacity="1" /><path clip-path="url(#clip880)" d="M455.476 194.65 L485.152 194.65 L485.152 198.539 L455.476 198.539 L455.476 194.65 M455.476 204.094 L485.152 204.094 L485.152 208.029 L455.476 208.029 L455.476 204.094 Z" fill="#000000" fill-rule="nonzero" fill-opacity="1" /><path clip-path="url(#clip880)" d="M496.055 212.242 L503.694 212.242 L503.694 185.877 L495.384 187.543 L495.384 183.284 L503.647 181.618 L508.323 181.618 L508.323 212.242 L515.962 212.242 L515.962 216.178 L496.055 216.178 L496.055 212.242 Z" fill="#000000" fill-rule="nonzero" fill-opacity="1" /><path clip-path="url(#clip880)" d="M535.407 184.696 Q531.795 184.696 529.967 188.261 Q528.161 191.803 528.161 198.932 Q528.161 206.039 529.967 209.604 Q531.795 213.145 535.407 213.145 Q539.041 213.145 540.846 209.604 Q542.675 206.039 542.675 198.932 Q542.675 191.803 540.846 188.261 Q539.041 184.696 535.407 184.696 M535.407 180.993 Q541.217 180.993 544.272 185.599 Q547.351 190.182 547.351 198.932 Q547.351 207.659 544.272 212.266 Q541.217 216.849 535.407 216.849 Q529.596 216.849 526.518 212.266 Q523.462 207.659 523.462 198.932 Q523.462 190.182 526.518 185.599 Q529.596 180.993 535.407 180.993 Z" fill="#000000" fill-rule="nonzero" fill-opacity="1" /><polyline clip-path="url(#clip880)" style="stroke:#3da44d; stroke-linecap:round; stroke-linejoin:round; stroke-width:4; stroke-opacity:1; fill:none" points="253.873,250.738 400.307,250.738 "/>
<path clip-path="url(#clip880)" d="M446.426 252.369 L446.426 268.018 L442.166 268.018 L442.166 252.508 Q442.166 248.828 440.731 246.999 Q439.296 245.17 436.426 245.17 Q432.977 245.17 430.986 247.37 Q428.995 249.569 428.995 253.365 L428.995 268.018 L424.713 268.018 L424.713 242.092 L428.995 242.092 L428.995 246.12 Q430.523 243.782 432.583 242.624 Q434.666 241.467 437.375 241.467 Q441.842 241.467 444.134 244.245 Q446.426 246.999 446.426 252.369 Z" fill="#000000" fill-rule="nonzero" fill-opacity="1" /><path clip-path="url(#clip880)" d="M455.476 246.49 L485.152 246.49 L485.152 250.379 L455.476 250.379 L455.476 246.49 M455.476 255.934 L485.152 255.934 L485.152 259.869 L455.476 259.869 L455.476 255.934 Z" fill="#000000" fill-rule="nonzero" fill-opacity="1" /><path clip-path="url(#clip880)" d="M496.055 264.082 L503.694 264.082 L503.694 237.717 L495.384 239.383 L495.384 235.124 L503.647 233.458 L508.323 233.458 L508.323 264.082 L515.962 264.082 L515.962 268.018 L496.055 268.018 L496.055 264.082 Z" fill="#000000" fill-rule="nonzero" fill-opacity="1" /><path clip-path="url(#clip880)" d="M525.453 233.458 L543.809 233.458 L543.809 237.393 L529.735 237.393 L529.735 245.865 Q530.754 245.518 531.772 245.356 Q532.791 245.17 533.809 245.17 Q539.596 245.17 542.976 248.342 Q546.356 251.513 546.356 256.93 Q546.356 262.508 542.883 265.61 Q539.411 268.689 533.092 268.689 Q530.916 268.689 528.647 268.318 Q526.402 267.948 523.995 267.207 L523.995 262.508 Q526.078 263.643 528.3 264.198 Q530.522 264.754 532.999 264.754 Q537.004 264.754 539.342 262.647 Q541.68 260.541 541.68 256.93 Q541.68 253.319 539.342 251.212 Q537.004 249.106 532.999 249.106 Q531.124 249.106 529.249 249.522 Q527.397 249.939 525.453 250.819 L525.453 233.458 Z" fill="#000000" fill-rule="nonzero" fill-opacity="1" /><polyline clip-path="url(#clip880)" style="stroke:#c271d2; stroke-linecap:round; stroke-linejoin:round; stroke-width:4; stroke-opacity:1; fill:none" points="253.873,302.578 400.307,302.578 "/>
<path clip-path="url(#clip880)" d="M446.426 304.209 L446.426 319.858 L442.166 319.858 L442.166 304.348 Q442.166 300.668 440.731 298.839 Q439.296 297.01 436.426 297.01 Q432.977 297.01 430.986 299.21 Q428.995 301.409 428.995 305.205 L428.995 319.858 L424.713 319.858 L424.713 293.932 L428.995 293.932 L428.995 297.96 Q430.523 295.622 432.583 294.464 Q434.666 293.307 437.375 293.307 Q441.842 293.307 444.134 296.085 Q446.426 298.839 446.426 304.209 Z" fill="#000000" fill-rule="nonzero" fill-opacity="1" /><path clip-path="url(#clip880)" d="M455.476 298.33 L485.152 298.33 L485.152 302.219 L455.476 302.219 L455.476 298.33 M455.476 307.774 L485.152 307.774 L485.152 311.709 L455.476 311.709 L455.476 307.774 Z" fill="#000000" fill-rule="nonzero" fill-opacity="1" /><path clip-path="url(#clip880)" d="M499.273 315.922 L515.592 315.922 L515.592 319.858 L493.648 319.858 L493.648 315.922 Q496.31 313.168 500.893 308.538 Q505.499 303.885 506.68 302.543 Q508.925 300.02 509.805 298.284 Q510.708 296.524 510.708 294.835 Q510.708 292.08 508.763 290.344 Q506.842 288.608 503.74 288.608 Q501.541 288.608 499.087 289.372 Q496.657 290.135 493.879 291.686 L493.879 286.964 Q496.703 285.83 499.157 285.251 Q501.61 284.673 503.647 284.673 Q509.018 284.673 512.212 287.358 Q515.407 290.043 515.407 294.534 Q515.407 296.663 514.597 298.585 Q513.809 300.483 511.703 303.075 Q511.124 303.747 508.022 306.964 Q504.921 310.159 499.273 315.922 Z" fill="#000000" fill-rule="nonzero" fill-opacity="1" /><path clip-path="url(#clip880)" d="M535.407 288.376 Q531.795 288.376 529.967 291.941 Q528.161 295.483 528.161 302.612 Q528.161 309.719 529.967 313.284 Q531.795 316.825 535.407 316.825 Q539.041 316.825 540.846 313.284 Q542.675 309.719 542.675 302.612 Q542.675 295.483 540.846 291.941 Q539.041 288.376 535.407 288.376 M535.407 284.673 Q541.217 284.673 544.272 289.279 Q547.351 293.862 547.351 302.612 Q547.351 311.339 544.272 315.946 Q541.217 320.529 535.407 320.529 Q529.596 320.529 526.518 315.946 Q523.462 311.339 523.462 302.612 Q523.462 293.862 526.518 289.279 Q529.596 284.673 535.407 284.673 Z" fill="#000000" fill-rule="nonzero" fill-opacity="1" /><polyline clip-path="url(#clip880)" style="stroke:#ac8d18; stroke-linecap:round; stroke-linejoin:round; stroke-width:4; stroke-opacity:1; fill:none" points="253.873,354.418 400.307,354.418 "/>
<path clip-path="url(#clip880)" d="M446.426 356.049 L446.426 371.698 L442.166 371.698 L442.166 356.188 Q442.166 352.508 440.731 350.679 Q439.296 348.85 436.426 348.85 Q432.977 348.85 430.986 351.05 Q428.995 353.249 428.995 357.045 L428.995 371.698 L424.713 371.698 L424.713 345.772 L428.995 345.772 L428.995 349.8 Q430.523 347.462 432.583 346.304 Q434.666 345.147 437.375 345.147 Q441.842 345.147 444.134 347.925 Q446.426 350.679 446.426 356.049 Z" fill="#000000" fill-rule="nonzero" fill-opacity="1" /><path clip-path="url(#clip880)" d="M455.476 350.17 L485.152 350.17 L485.152 354.059 L455.476 354.059 L455.476 350.17 M455.476 359.614 L485.152 359.614 L485.152 363.549 L455.476 363.549 L455.476 359.614 Z" fill="#000000" fill-rule="nonzero" fill-opacity="1" /><path clip-path="url(#clip880)" d="M499.273 367.762 L515.592 367.762 L515.592 371.698 L493.648 371.698 L493.648 367.762 Q496.31 365.008 500.893 360.378 Q505.499 355.725 506.68 354.383 Q508.925 351.86 509.805 350.124 Q510.708 348.364 510.708 346.675 Q510.708 343.92 508.763 342.184 Q506.842 340.448 503.74 340.448 Q501.541 340.448 499.087 341.212 Q496.657 341.975 493.879 343.526 L493.879 338.804 Q496.703 337.67 499.157 337.091 Q501.61 336.513 503.647 336.513 Q509.018 336.513 512.212 339.198 Q515.407 341.883 515.407 346.374 Q515.407 348.503 514.597 350.425 Q513.809 352.323 511.703 354.915 Q511.124 355.587 508.022 358.804 Q504.921 361.999 499.273 367.762 Z" fill="#000000" fill-rule="nonzero" fill-opacity="1" /><path clip-path="url(#clip880)" d="M525.453 337.138 L543.809 337.138 L543.809 341.073 L529.735 341.073 L529.735 349.545 Q530.754 349.198 531.772 349.036 Q532.791 348.85 533.809 348.85 Q539.596 348.85 542.976 352.022 Q546.356 355.193 546.356 360.61 Q546.356 366.188 542.883 369.29 Q539.411 372.369 533.092 372.369 Q530.916 372.369 528.647 371.998 Q526.402 371.628 523.995 370.887 L523.995 366.188 Q526.078 367.323 528.3 367.878 Q530.522 368.434 532.999 368.434 Q537.004 368.434 539.342 366.327 Q541.68 364.221 541.68 360.61 Q541.68 356.999 539.342 354.892 Q537.004 352.786 532.999 352.786 Q531.124 352.786 529.249 353.202 Q527.397 353.619 525.453 354.499 L525.453 337.138 Z" fill="#000000" fill-rule="nonzero" fill-opacity="1" /></svg>
