<?xml version="1.0" encoding="utf-8"?>
<svg xmlns="http://www.w3.org/2000/svg" xmlns:xlink="http://www.w3.org/1999/xlink" width="600" height="400" viewBox="0 0 2400 1600">
<defs>
  <clipPath id="clip190">
    <rect x="0" y="0" width="2400" height="1600"/>
  </clipPath>
</defs>
<path clip-path="url(#clip190)" d="M0 1600 L2400 1600 L2400 0 L0 0  Z" fill="#ffffff" fill-rule="evenodd" fill-opacity="1"/>
<defs>
  <clipPath id="clip191">
    <rect x="480" y="0" width="1681" height="1600"/>
  </clipPath>
</defs>
<path clip-path="url(#clip190)" d="M156.274 1486.45 L2352.76 1486.45 L2352.76 47.2441 L156.274 47.2441  Z" fill="#ffffff" fill-rule="evenodd" fill-opacity="1"/>
<defs>
  <clipPath id="clip192">
    <rect x="156" y="47" width="2197" height="1440"/>
  </clipPath>
</defs>
<polyline clip-path="url(#clip192)" style="stroke:#000000; stroke-linecap:round; stroke-linejoin:round; stroke-width:2; stroke-opacity:0.1; fill:none" points="218.439,1486.45 218.439,47.2441 "/>
<polyline clip-path="url(#clip192)" style="stroke:#000000; stroke-linecap:round; stroke-linejoin:round; stroke-width:2; stroke-opacity:0.1; fill:none" points="563.798,1486.45 563.798,47.2441 "/>
<polyline clip-path="url(#clip192)" style="stroke:#000000; stroke-linecap:round; stroke-linejoin:round; stroke-width:2; stroke-opacity:0.1; fill:none" points="909.156,1486.45 909.156,47.2441 "/>
<polyline clip-path="url(#clip192)" style="stroke:#000000; stroke-linecap:round; stroke-linejoin:round; stroke-width:2; stroke-opacity:0.1; fill:none" points="1254.52,1486.45 1254.52,47.2441 "/>
<polyline clip-path="url(#clip192)" style="stroke:#000000; stroke-linecap:round; stroke-linejoin:round; stroke-width:2; stroke-opacity:0.1; fill:none" points="1599.87,1486.45 1599.87,47.2441 "/>
<polyline clip-path="url(#clip192)" style="stroke:#000000; stroke-linecap:round; stroke-linejoin:round; stroke-width:2; stroke-opacity:0.1; fill:none" points="1945.23,1486.45 1945.23,47.2441 "/>
<polyline clip-path="url(#clip192)" style="stroke:#000000; stroke-linecap:round; stroke-linejoin:round; stroke-width:2; stroke-opacity:0.1; fill:none" points="2290.59,1486.45 2290.59,47.2441 "/>
<polyline clip-path="url(#clip190)" style="stroke:#000000; stroke-linecap:round; stroke-linejoin:round; stroke-width:4; stroke-opacity:1; fill:none" points="156.274,1486.45 2352.76,1486.45 "/>
<polyline clip-path="url(#clip190)" style="stroke:#000000; stroke-linecap:round; stroke-linejoin:round; stroke-width:4; stroke-opacity:1; fill:none" points="218.439,1486.45 218.439,1467.55 "/>
<polyline clip-path="url(#clip190)" style="stroke:#000000; stroke-linecap:round; stroke-linejoin:round; stroke-width:4; stroke-opacity:1; fill:none" points="563.798,1486.45 563.798,1467.55 "/>
<polyline clip-path="url(#clip190)" style="stroke:#000000; stroke-linecap:round; stroke-linejoin:round; stroke-width:4; stroke-opacity:1; fill:none" points="909.156,1486.45 909.156,1467.55 "/>
<polyline clip-path="url(#clip190)" style="stroke:#000000; stroke-linecap:round; stroke-linejoin:round; stroke-width:4; stroke-opacity:1; fill:none" points="1254.52,1486.45 1254.52,1467.55 "/>
<polyline clip-path="url(#clip190)" style="stroke:#000000; stroke-linecap:round; stroke-linejoin:round; stroke-width:4; stroke-opacity:1; fill:none" points="1599.87,1486.45 1599.87,1467.55 "/>
<polyline clip-path="url(#clip190)" style="stroke:#000000; stroke-linecap:round; stroke-linejoin:round; stroke-width:4; stroke-opacity:1; fill:none" points="1945.23,1486.45 1945.23,1467.55 "/>
<polyline clip-path="url(#clip190)" style="stroke:#000000; stroke-linecap:round; stroke-linejoin:round; stroke-width:4; stroke-opacity:1; fill:none" points="2290.59,1486.45 2290.59,1467.55 "/>
<path clip-path="url(#clip190)" d="M180.742 1517.37 Q177.131 1517.37 175.302 1520.93 Q173.497 1524.47 173.497 1531.6 Q173.497 1538.71 175.302 1542.27 Q177.131 1545.82 180.742 1545.82 Q184.376 1545.82 186.182 1542.27 Q188.011 1538.71 188.011 1531.6 Q188.011 1524.47 186.182 1520.93 Q184.376 1517.37 180.742 1517.37 M180.742 1513.66 Q186.552 1513.66 189.608 1518.27 Q192.687 1522.85 192.687 1531.6 Q192.687 1540.33 189.608 1544.94 Q186.552 1549.52 180.742 1549.52 Q174.932 1549.52 171.853 1544.94 Q168.798 1540.33 168.798 1531.6 Q168.798 1522.85 171.853 1518.27 Q174.932 1513.66 180.742 1513.66 Z" fill="#000000" fill-rule="nonzero" fill-opacity="1" /><path clip-path="url(#clip190)" d="M200.904 1542.97 L205.788 1542.97 L205.788 1548.85 L200.904 1548.85 L200.904 1542.97 Z" fill="#000000" fill-rule="nonzero" fill-opacity="1" /><path clip-path="url(#clip190)" d="M225.973 1517.37 Q222.362 1517.37 220.534 1520.93 Q218.728 1524.47 218.728 1531.6 Q218.728 1538.71 220.534 1542.27 Q222.362 1545.82 225.973 1545.82 Q229.608 1545.82 231.413 1542.27 Q233.242 1538.71 233.242 1531.6 Q233.242 1524.47 231.413 1520.93 Q229.608 1517.37 225.973 1517.37 M225.973 1513.66 Q231.784 1513.66 234.839 1518.27 Q237.918 1522.85 237.918 1531.6 Q237.918 1540.33 234.839 1544.94 Q231.784 1549.52 225.973 1549.52 Q220.163 1549.52 217.085 1544.94 Q214.029 1540.33 214.029 1531.6 Q214.029 1522.85 217.085 1518.27 Q220.163 1513.66 225.973 1513.66 Z" fill="#000000" fill-rule="nonzero" fill-opacity="1" /><path clip-path="url(#clip190)" d="M256.135 1517.37 Q252.524 1517.37 250.696 1520.93 Q248.89 1524.47 248.89 1531.6 Q248.89 1538.71 250.696 1542.27 Q252.524 1545.82 256.135 1545.82 Q259.77 1545.82 261.575 1542.27 Q263.404 1538.71 263.404 1531.6 Q263.404 1524.47 261.575 1520.93 Q259.77 1517.37 256.135 1517.37 M256.135 1513.66 Q261.945 1513.66 265.001 1518.27 Q268.08 1522.85 268.08 1531.6 Q268.08 1540.33 265.001 1544.94 Q261.945 1549.52 256.135 1549.52 Q250.325 1549.52 247.246 1544.94 Q244.191 1540.33 244.191 1531.6 Q244.191 1522.85 247.246 1518.27 Q250.325 1513.66 256.135 1513.66 Z" fill="#000000" fill-rule="nonzero" fill-opacity="1" /><path clip-path="url(#clip190)" d="M526.714 1517.37 Q523.103 1517.37 521.275 1520.93 Q519.469 1524.47 519.469 1531.6 Q519.469 1538.71 521.275 1542.27 Q523.103 1545.82 526.714 1545.82 Q530.349 1545.82 532.154 1542.27 Q533.983 1538.71 533.983 1531.6 Q533.983 1524.47 532.154 1520.93 Q530.349 1517.37 526.714 1517.37 M526.714 1513.66 Q532.525 1513.66 535.58 1518.27 Q538.659 1522.85 538.659 1531.6 Q538.659 1540.33 535.58 1544.94 Q532.525 1549.52 526.714 1549.52 Q520.904 1549.52 517.826 1544.94 Q514.77 1540.33 514.77 1531.6 Q514.77 1522.85 517.826 1518.27 Q520.904 1513.66 526.714 1513.66 Z" fill="#000000" fill-rule="nonzero" fill-opacity="1" /><path clip-path="url(#clip190)" d="M546.876 1542.97 L551.761 1542.97 L551.761 1548.85 L546.876 1548.85 L546.876 1542.97 Z" fill="#000000" fill-rule="nonzero" fill-opacity="1" /><path clip-path="url(#clip190)" d="M571.946 1517.37 Q568.335 1517.37 566.506 1520.93 Q564.7 1524.47 564.7 1531.6 Q564.7 1538.71 566.506 1542.27 Q568.335 1545.82 571.946 1545.82 Q575.58 1545.82 577.385 1542.27 Q579.214 1538.71 579.214 1531.6 Q579.214 1524.47 577.385 1520.93 Q575.58 1517.37 571.946 1517.37 M571.946 1513.66 Q577.756 1513.66 580.811 1518.27 Q583.89 1522.85 583.89 1531.6 Q583.89 1540.33 580.811 1544.94 Q577.756 1549.52 571.946 1549.52 Q566.135 1549.52 563.057 1544.94 Q560.001 1540.33 560.001 1531.6 Q560.001 1522.85 563.057 1518.27 Q566.135 1513.66 571.946 1513.66 Z" fill="#000000" fill-rule="nonzero" fill-opacity="1" /><path clip-path="url(#clip190)" d="M592.918 1544.91 L600.557 1544.91 L600.557 1518.55 L592.246 1520.21 L592.246 1515.95 L600.51 1514.29 L605.186 1514.29 L605.186 1544.91 L612.825 1544.91 L612.825 1548.85 L592.918 1548.85 L592.918 1544.91 Z" fill="#000000" fill-rule="nonzero" fill-opacity="1" /><path clip-path="url(#clip190)" d="M872.258 1517.37 Q868.647 1517.37 866.819 1520.93 Q865.013 1524.47 865.013 1531.6 Q865.013 1538.71 866.819 1542.27 Q868.647 1545.82 872.258 1545.82 Q875.893 1545.82 877.698 1542.27 Q879.527 1538.71 879.527 1531.6 Q879.527 1524.47 877.698 1520.93 Q875.893 1517.37 872.258 1517.37 M872.258 1513.66 Q878.068 1513.66 881.124 1518.27 Q884.203 1522.85 884.203 1531.6 Q884.203 1540.33 881.124 1544.94 Q878.068 1549.52 872.258 1549.52 Q866.448 1549.52 863.369 1544.94 Q860.314 1540.33 860.314 1531.6 Q860.314 1522.85 863.369 1518.27 Q866.448 1513.66 872.258 1513.66 Z" fill="#000000" fill-rule="nonzero" fill-opacity="1" /><path clip-path="url(#clip190)" d="M892.42 1542.97 L897.304 1542.97 L897.304 1548.85 L892.42 1548.85 L892.42 1542.97 Z" fill="#000000" fill-rule="nonzero" fill-opacity="1" /><path clip-path="url(#clip190)" d="M917.49 1517.37 Q913.878 1517.37 912.05 1520.93 Q910.244 1524.47 910.244 1531.6 Q910.244 1538.71 912.05 1542.27 Q913.878 1545.82 917.49 1545.82 Q921.124 1545.82 922.929 1542.27 Q924.758 1538.71 924.758 1531.6 Q924.758 1524.47 922.929 1520.93 Q921.124 1517.37 917.49 1517.37 M917.49 1513.66 Q923.3 1513.66 926.355 1518.27 Q929.434 1522.85 929.434 1531.6 Q929.434 1540.33 926.355 1544.94 Q923.3 1549.52 917.49 1549.52 Q911.679 1549.52 908.601 1544.94 Q905.545 1540.33 905.545 1531.6 Q905.545 1522.85 908.601 1518.27 Q911.679 1513.66 917.49 1513.66 Z" fill="#000000" fill-rule="nonzero" fill-opacity="1" /><path clip-path="url(#clip190)" d="M941.679 1544.91 L957.999 1544.91 L957.999 1548.85 L936.054 1548.85 L936.054 1544.91 Q938.716 1542.16 943.3 1537.53 Q947.906 1532.88 949.087 1531.53 Q951.332 1529.01 952.212 1527.27 Q953.114 1525.51 953.114 1523.82 Q953.114 1521.07 951.17 1519.33 Q949.249 1517.6 946.147 1517.6 Q943.948 1517.6 941.494 1518.36 Q939.064 1519.13 936.286 1520.68 L936.286 1515.95 Q939.11 1514.82 941.564 1514.24 Q944.017 1513.66 946.054 1513.66 Q951.425 1513.66 954.619 1516.35 Q957.813 1519.03 957.813 1523.52 Q957.813 1525.65 957.003 1527.57 Q956.216 1529.47 954.11 1532.07 Q953.531 1532.74 950.429 1535.95 Q947.327 1539.15 941.679 1544.91 Z" fill="#000000" fill-rule="nonzero" fill-opacity="1" /><path clip-path="url(#clip190)" d="M1217.14 1517.37 Q1213.53 1517.37 1211.7 1520.93 Q1209.9 1524.47 1209.9 1531.6 Q1209.9 1538.71 1211.7 1542.27 Q1213.53 1545.82 1217.14 1545.82 Q1220.78 1545.82 1222.58 1542.27 Q1224.41 1538.71 1224.41 1531.6 Q1224.41 1524.47 1222.58 1520.93 Q1220.78 1517.37 1217.14 1517.37 M1217.14 1513.66 Q1222.95 1513.66 1226.01 1518.27 Q1229.09 1522.85 1229.09 1531.6 Q1229.09 1540.33 1226.01 1544.94 Q1222.95 1549.52 1217.14 1549.52 Q1211.33 1549.52 1208.25 1544.94 Q1205.2 1540.33 1205.2 1531.6 Q1205.2 1522.85 1208.25 1518.27 Q1211.33 1513.66 1217.14 1513.66 Z" fill="#000000" fill-rule="nonzero" fill-opacity="1" /><path clip-path="url(#clip190)" d="M1237.3 1542.97 L1242.19 1542.97 L1242.19 1548.85 L1237.3 1548.85 L1237.3 1542.97 Z" fill="#000000" fill-rule="nonzero" fill-opacity="1" /><path clip-path="url(#clip190)" d="M1262.37 1517.37 Q1258.76 1517.37 1256.93 1520.93 Q1255.13 1524.47 1255.13 1531.6 Q1255.13 1538.71 1256.93 1542.27 Q1258.76 1545.82 1262.37 1545.82 Q1266.01 1545.82 1267.81 1542.27 Q1269.64 1538.71 1269.64 1531.6 Q1269.64 1524.47 1267.81 1520.93 Q1266.01 1517.37 1262.37 1517.37 M1262.37 1513.66 Q1268.18 1513.66 1271.24 1518.27 Q1274.32 1522.85 1274.32 1531.6 Q1274.32 1540.33 1271.24 1544.94 Q1268.18 1549.52 1262.37 1549.52 Q1256.56 1549.52 1253.48 1544.94 Q1250.43 1540.33 1250.43 1531.6 Q1250.43 1522.85 1253.48 1518.27 Q1256.56 1513.66 1262.37 1513.66 Z" fill="#000000" fill-rule="nonzero" fill-opacity="1" /><path clip-path="url(#clip190)" d="M1296.7 1530.21 Q1300.06 1530.93 1301.93 1533.2 Q1303.83 1535.47 1303.83 1538.8 Q1303.83 1543.92 1300.31 1546.72 Q1296.79 1549.52 1290.31 1549.52 Q1288.14 1549.52 1285.82 1549.08 Q1283.53 1548.66 1281.08 1547.81 L1281.08 1543.29 Q1283.02 1544.43 1285.34 1545.01 Q1287.65 1545.58 1290.17 1545.58 Q1294.57 1545.58 1296.86 1543.85 Q1299.18 1542.11 1299.18 1538.8 Q1299.18 1535.75 1297.03 1534.03 Q1294.9 1532.3 1291.08 1532.3 L1287.05 1532.3 L1287.05 1528.45 L1291.26 1528.45 Q1294.71 1528.45 1296.54 1527.09 Q1298.37 1525.7 1298.37 1523.11 Q1298.37 1520.45 1296.47 1519.03 Q1294.6 1517.6 1291.08 1517.6 Q1289.16 1517.6 1286.96 1518.01 Q1284.76 1518.43 1282.12 1519.31 L1282.12 1515.14 Q1284.78 1514.4 1287.1 1514.03 Q1289.43 1513.66 1291.49 1513.66 Q1296.82 1513.66 1299.92 1516.09 Q1303.02 1518.5 1303.02 1522.62 Q1303.02 1525.49 1301.38 1527.48 Q1299.73 1529.45 1296.7 1530.21 Z" fill="#000000" fill-rule="nonzero" fill-opacity="1" /><path clip-path="url(#clip190)" d="M1561.93 1517.37 Q1558.32 1517.37 1556.49 1520.93 Q1554.69 1524.47 1554.69 1531.6 Q1554.69 1538.71 1556.49 1542.27 Q1558.32 1545.82 1561.93 1545.82 Q1565.57 1545.82 1567.37 1542.27 Q1569.2 1538.71 1569.2 1531.6 Q1569.2 1524.47 1567.37 1520.93 Q1565.57 1517.37 1561.93 1517.37 M1561.93 1513.66 Q1567.74 1513.66 1570.8 1518.27 Q1573.88 1522.85 1573.88 1531.6 Q1573.88 1540.33 1570.8 1544.94 Q1567.74 1549.52 1561.93 1549.52 Q1556.12 1549.52 1553.05 1544.94 Q1549.99 1540.33 1549.99 1531.6 Q1549.99 1522.85 1553.05 1518.27 Q1556.12 1513.66 1561.93 1513.66 Z" fill="#000000" fill-rule="nonzero" fill-opacity="1" /><path clip-path="url(#clip190)" d="M1582.1 1542.97 L1586.98 1542.97 L1586.98 1548.85 L1582.1 1548.85 L1582.1 1542.97 Z" fill="#000000" fill-rule="nonzero" fill-opacity="1" /><path clip-path="url(#clip190)" d="M1607.17 1517.37 Q1603.55 1517.37 1601.73 1520.93 Q1599.92 1524.47 1599.92 1531.6 Q1599.92 1538.71 1601.73 1542.27 Q1603.55 1545.82 1607.17 1545.82 Q1610.8 1545.82 1612.61 1542.27 Q1614.43 1538.71 1614.43 1531.6 Q1614.43 1524.47 1612.61 1520.93 Q1610.8 1517.37 1607.17 1517.37 M1607.17 1513.66 Q1612.98 1513.66 1616.03 1518.27 Q1619.11 1522.85 1619.11 1531.6 Q1619.11 1540.33 1616.03 1544.94 Q1612.98 1549.52 1607.17 1549.52 Q1601.36 1549.52 1598.28 1544.94 Q1595.22 1540.33 1595.22 1531.6 Q1595.22 1522.85 1598.28 1518.27 Q1601.36 1513.66 1607.17 1513.66 Z" fill="#000000" fill-rule="nonzero" fill-opacity="1" /><path clip-path="url(#clip190)" d="M1640.17 1518.36 L1628.37 1536.81 L1640.17 1536.81 L1640.17 1518.36 M1638.95 1514.29 L1644.83 1514.29 L1644.83 1536.81 L1649.76 1536.81 L1649.76 1540.7 L1644.83 1540.7 L1644.83 1548.85 L1640.17 1548.85 L1640.17 1540.7 L1624.57 1540.7 L1624.57 1536.19 L1638.95 1514.29 Z" fill="#000000" fill-rule="nonzero" fill-opacity="1" /><path clip-path="url(#clip190)" d="M1908.03 1517.37 Q1904.42 1517.37 1902.59 1520.93 Q1900.79 1524.47 1900.79 1531.6 Q1900.79 1538.71 1902.59 1542.27 Q1904.42 1545.82 1908.03 1545.82 Q1911.67 1545.82 1913.47 1542.27 Q1915.3 1538.71 1915.3 1531.6 Q1915.3 1524.47 1913.47 1520.93 Q1911.67 1517.37 1908.03 1517.37 M1908.03 1513.66 Q1913.84 1513.66 1916.9 1518.27 Q1919.98 1522.85 1919.98 1531.6 Q1919.98 1540.33 1916.9 1544.94 Q1913.84 1549.52 1908.03 1549.52 Q1902.22 1549.52 1899.14 1544.94 Q1896.09 1540.33 1896.09 1531.6 Q1896.09 1522.85 1899.14 1518.27 Q1902.22 1513.66 1908.03 1513.66 Z" fill="#000000" fill-rule="nonzero" fill-opacity="1" /><path clip-path="url(#clip190)" d="M1928.2 1542.97 L1933.08 1542.97 L1933.08 1548.85 L1928.2 1548.85 L1928.2 1542.97 Z" fill="#000000" fill-rule="nonzero" fill-opacity="1" /><path clip-path="url(#clip190)" d="M1953.26 1517.37 Q1949.65 1517.37 1947.83 1520.93 Q1946.02 1524.47 1946.02 1531.6 Q1946.02 1538.71 1947.83 1542.27 Q1949.65 1545.82 1953.26 1545.82 Q1956.9 1545.82 1958.7 1542.27 Q1960.53 1538.71 1960.53 1531.6 Q1960.53 1524.47 1958.7 1520.93 Q1956.9 1517.37 1953.26 1517.37 M1953.26 1513.66 Q1959.08 1513.66 1962.13 1518.27 Q1965.21 1522.85 1965.21 1531.6 Q1965.21 1540.33 1962.13 1544.94 Q1959.08 1549.52 1953.26 1549.52 Q1947.45 1549.52 1944.38 1544.94 Q1941.32 1540.33 1941.32 1531.6 Q1941.32 1522.85 1944.38 1518.27 Q1947.45 1513.66 1953.26 1513.66 Z" fill="#000000" fill-rule="nonzero" fill-opacity="1" /><path clip-path="url(#clip190)" d="M1973.47 1514.29 L1991.83 1514.29 L1991.83 1518.22 L1977.76 1518.22 L1977.76 1526.7 Q1978.77 1526.35 1979.79 1526.19 Q1980.81 1526 1981.83 1526 Q1987.62 1526 1991 1529.17 Q1994.38 1532.34 1994.38 1537.76 Q1994.38 1543.34 1990.9 1546.44 Q1987.43 1549.52 1981.11 1549.52 Q1978.94 1549.52 1976.67 1549.15 Q1974.42 1548.78 1972.01 1548.04 L1972.01 1543.34 Q1974.1 1544.47 1976.32 1545.03 Q1978.54 1545.58 1981.02 1545.58 Q1985.02 1545.58 1987.36 1543.48 Q1989.7 1541.37 1989.7 1537.76 Q1989.7 1534.15 1987.36 1532.04 Q1985.02 1529.94 1981.02 1529.94 Q1979.14 1529.94 1977.27 1530.35 Q1975.42 1530.77 1973.47 1531.65 L1973.47 1514.29 Z" fill="#000000" fill-rule="nonzero" fill-opacity="1" /><path clip-path="url(#clip190)" d="M2252.81 1517.37 Q2249.2 1517.37 2247.37 1520.93 Q2245.57 1524.47 2245.57 1531.6 Q2245.57 1538.71 2247.37 1542.27 Q2249.2 1545.82 2252.81 1545.82 Q2256.45 1545.82 2258.25 1542.27 Q2260.08 1538.71 2260.08 1531.6 Q2260.08 1524.47 2258.25 1520.93 Q2256.45 1517.37 2252.81 1517.37 M2252.81 1513.66 Q2258.62 1513.66 2261.68 1518.27 Q2264.76 1522.85 2264.76 1531.6 Q2264.76 1540.33 2261.68 1544.94 Q2258.62 1549.52 2252.81 1549.52 Q2247 1549.52 2243.92 1544.94 Q2240.87 1540.33 2240.87 1531.6 Q2240.87 1522.85 2243.92 1518.27 Q2247 1513.66 2252.81 1513.66 Z" fill="#000000" fill-rule="nonzero" fill-opacity="1" /><path clip-path="url(#clip190)" d="M2272.98 1542.97 L2277.86 1542.97 L2277.86 1548.85 L2272.98 1548.85 L2272.98 1542.97 Z" fill="#000000" fill-rule="nonzero" fill-opacity="1" /><path clip-path="url(#clip190)" d="M2298.04 1517.37 Q2294.43 1517.37 2292.61 1520.93 Q2290.8 1524.47 2290.8 1531.6 Q2290.8 1538.71 2292.61 1542.27 Q2294.43 1545.82 2298.04 1545.82 Q2301.68 1545.82 2303.48 1542.27 Q2305.31 1538.71 2305.31 1531.6 Q2305.31 1524.47 2303.48 1520.93 Q2301.68 1517.37 2298.04 1517.37 M2298.04 1513.66 Q2303.86 1513.66 2306.91 1518.27 Q2309.99 1522.85 2309.99 1531.6 Q2309.99 1540.33 2306.91 1544.94 Q2303.86 1549.52 2298.04 1549.52 Q2292.23 1549.52 2289.16 1544.94 Q2286.1 1540.33 2286.1 1531.6 Q2286.1 1522.85 2289.16 1518.27 Q2292.23 1513.66 2298.04 1513.66 Z" fill="#000000" fill-rule="nonzero" fill-opacity="1" /><path clip-path="url(#clip190)" d="M2328.79 1529.7 Q2325.64 1529.7 2323.79 1531.86 Q2321.96 1534.01 2321.96 1537.76 Q2321.96 1541.49 2323.79 1543.66 Q2325.64 1545.82 2328.79 1545.82 Q2331.93 1545.82 2333.76 1543.66 Q2335.61 1541.49 2335.61 1537.76 Q2335.61 1534.01 2333.76 1531.86 Q2331.93 1529.7 2328.79 1529.7 M2338.07 1515.05 L2338.07 1519.31 Q2336.31 1518.48 2334.5 1518.04 Q2332.72 1517.6 2330.96 1517.6 Q2326.33 1517.6 2323.88 1520.72 Q2321.45 1523.85 2321.1 1530.17 Q2322.47 1528.15 2324.53 1527.09 Q2326.59 1526 2329.06 1526 Q2334.27 1526 2337.28 1529.17 Q2340.31 1532.32 2340.31 1537.76 Q2340.31 1543.08 2337.17 1546.3 Q2334.02 1549.52 2328.79 1549.52 Q2322.79 1549.52 2319.62 1544.94 Q2316.45 1540.33 2316.45 1531.6 Q2316.45 1523.41 2320.34 1518.55 Q2324.23 1513.66 2330.78 1513.66 Q2332.54 1513.66 2334.32 1514.01 Q2336.12 1514.36 2338.07 1515.05 Z" fill="#000000" fill-rule="nonzero" fill-opacity="1" /><polyline clip-path="url(#clip192)" style="stroke:#000000; stroke-linecap:round; stroke-linejoin:round; stroke-width:2; stroke-opacity:0.1; fill:none" points="156.274,1409.7 2352.76,1409.7 "/>
<polyline clip-path="url(#clip192)" style="stroke:#000000; stroke-linecap:round; stroke-linejoin:round; stroke-width:2; stroke-opacity:0.1; fill:none" points="156.274,1079.27 2352.76,1079.27 "/>
<polyline clip-path="url(#clip192)" style="stroke:#000000; stroke-linecap:round; stroke-linejoin:round; stroke-width:2; stroke-opacity:0.1; fill:none" points="156.274,748.84 2352.76,748.84 "/>
<polyline clip-path="url(#clip192)" style="stroke:#000000; stroke-linecap:round; stroke-linejoin:round; stroke-width:2; stroke-opacity:0.1; fill:none" points="156.274,418.408 2352.76,418.408 "/>
<polyline clip-path="url(#clip192)" style="stroke:#000000; stroke-linecap:round; stroke-linejoin:round; stroke-width:2; stroke-opacity:0.1; fill:none" points="156.274,87.9763 2352.76,87.9763 "/>
<polyline clip-path="url(#clip190)" style="stroke:#000000; stroke-linecap:round; stroke-linejoin:round; stroke-width:4; stroke-opacity:1; fill:none" points="156.274,1486.45 156.274,47.2441 "/>
<polyline clip-path="url(#clip190)" style="stroke:#000000; stroke-linecap:round; stroke-linejoin:round; stroke-width:4; stroke-opacity:1; fill:none" points="156.274,1409.7 175.172,1409.7 "/>
<polyline clip-path="url(#clip190)" style="stroke:#000000; stroke-linecap:round; stroke-linejoin:round; stroke-width:4; stroke-opacity:1; fill:none" points="156.274,1079.27 175.172,1079.27 "/>
<polyline clip-path="url(#clip190)" style="stroke:#000000; stroke-linecap:round; stroke-linejoin:round; stroke-width:4; stroke-opacity:1; fill:none" points="156.274,748.84 175.172,748.84 "/>
<polyline clip-path="url(#clip190)" style="stroke:#000000; stroke-linecap:round; stroke-linejoin:round; stroke-width:4; stroke-opacity:1; fill:none" points="156.274,418.408 175.172,418.408 "/>
<polyline clip-path="url(#clip190)" style="stroke:#000000; stroke-linecap:round; stroke-linejoin:round; stroke-width:4; stroke-opacity:1; fill:none" points="156.274,87.9763 175.172,87.9763 "/>
<path clip-path="url(#clip190)" d="M62.9365 1395.5 Q59.3254 1395.5 57.4967 1399.07 Q55.6912 1402.61 55.6912 1409.74 Q55.6912 1416.84 57.4967 1420.41 Q59.3254 1423.95 62.9365 1423.95 Q66.5707 1423.95 68.3763 1420.41 Q70.205 1416.84 70.205 1409.74 Q70.205 1402.61 68.3763 1399.07 Q66.5707 1395.5 62.9365 1395.5 M62.9365 1391.8 Q68.7467 1391.8 71.8022 1396.4 Q74.8809 1400.99 74.8809 1409.74 Q74.8809 1418.46 71.8022 1423.07 Q68.7467 1427.65 62.9365 1427.65 Q57.1264 1427.65 54.0477 1423.07 Q50.9921 1418.46 50.9921 1409.74 Q50.9921 1400.99 54.0477 1396.4 Q57.1264 1391.8 62.9365 1391.8 Z" fill="#000000" fill-rule="nonzero" fill-opacity="1" /><path clip-path="url(#clip190)" d="M83.0984 1421.1 L87.9827 1421.1 L87.9827 1426.98 L83.0984 1426.98 L83.0984 1421.1 Z" fill="#000000" fill-rule="nonzero" fill-opacity="1" /><path clip-path="url(#clip190)" d="M108.746 1407.84 Q105.598 1407.84 103.746 1409.99 Q101.918 1412.15 101.918 1415.89 Q101.918 1419.62 103.746 1421.8 Q105.598 1423.95 108.746 1423.95 Q111.895 1423.95 113.723 1421.8 Q115.575 1419.62 115.575 1415.89 Q115.575 1412.15 113.723 1409.99 Q111.895 1407.84 108.746 1407.84 M118.029 1393.19 L118.029 1397.45 Q116.27 1396.61 114.464 1396.17 Q112.682 1395.73 110.922 1395.73 Q106.293 1395.73 103.839 1398.86 Q101.409 1401.98 101.061 1408.3 Q102.427 1406.29 104.487 1405.22 Q106.547 1404.14 109.024 1404.14 Q114.233 1404.14 117.242 1407.31 Q120.274 1410.46 120.274 1415.89 Q120.274 1421.22 117.126 1424.44 Q113.978 1427.65 108.746 1427.65 Q102.751 1427.65 99.5798 1423.07 Q96.4085 1418.46 96.4085 1409.74 Q96.4085 1401.54 100.297 1396.68 Q104.186 1391.8 110.737 1391.8 Q112.496 1391.8 114.279 1392.15 Q116.084 1392.49 118.029 1393.19 Z" fill="#000000" fill-rule="nonzero" fill-opacity="1" /><path clip-path="url(#clip190)" d="M64.0013 1065.07 Q60.3902 1065.07 58.5615 1068.63 Q56.756 1072.18 56.756 1079.31 Q56.756 1086.41 58.5615 1089.98 Q60.3902 1093.52 64.0013 1093.52 Q67.6356 1093.52 69.4411 1089.98 Q71.2698 1086.41 71.2698 1079.31 Q71.2698 1072.18 69.4411 1068.63 Q67.6356 1065.07 64.0013 1065.07 M64.0013 1061.37 Q69.8115 1061.37 72.867 1065.97 Q75.9457 1070.56 75.9457 1079.31 Q75.9457 1088.03 72.867 1092.64 Q69.8115 1097.22 64.0013 1097.22 Q58.1912 1097.22 55.1125 1092.64 Q52.0569 1088.03 52.0569 1079.31 Q52.0569 1070.56 55.1125 1065.97 Q58.1912 1061.37 64.0013 1061.37 Z" fill="#000000" fill-rule="nonzero" fill-opacity="1" /><path clip-path="url(#clip190)" d="M84.1632 1090.67 L89.0475 1090.67 L89.0475 1096.55 L84.1632 1096.55 L84.1632 1090.67 Z" fill="#000000" fill-rule="nonzero" fill-opacity="1" /><path clip-path="url(#clip190)" d="M98.0521 1061.99 L120.274 1061.99 L120.274 1063.98 L107.728 1096.55 L102.844 1096.55 L114.649 1065.93 L98.0521 1065.93 L98.0521 1061.99 Z" fill="#000000" fill-rule="nonzero" fill-opacity="1" /><path clip-path="url(#clip190)" d="M63.1911 734.638 Q59.58 734.638 57.7513 738.203 Q55.9458 741.745 55.9458 748.874 Q55.9458 755.981 57.7513 759.546 Q59.58 763.087 63.1911 763.087 Q66.8254 763.087 68.6309 759.546 Q70.4596 755.981 70.4596 748.874 Q70.4596 741.745 68.6309 738.203 Q66.8254 734.638 63.1911 734.638 M63.1911 730.935 Q69.0013 730.935 72.0568 735.541 Q75.1355 740.124 75.1355 748.874 Q75.1355 757.601 72.0568 762.208 Q69.0013 766.791 63.1911 766.791 Q57.381 766.791 54.3023 762.208 Q51.2468 757.601 51.2468 748.874 Q51.2468 740.124 54.3023 735.541 Q57.381 730.935 63.1911 730.935 Z" fill="#000000" fill-rule="nonzero" fill-opacity="1" /><path clip-path="url(#clip190)" d="M83.3531 760.24 L88.2373 760.24 L88.2373 766.12 L83.3531 766.12 L83.3531 760.24 Z" fill="#000000" fill-rule="nonzero" fill-opacity="1" /><path clip-path="url(#clip190)" d="M108.422 749.708 Q105.089 749.708 103.168 751.49 Q101.27 753.272 101.27 756.397 Q101.27 759.522 103.168 761.305 Q105.089 763.087 108.422 763.087 Q111.756 763.087 113.677 761.305 Q115.598 759.499 115.598 756.397 Q115.598 753.272 113.677 751.49 Q111.779 749.708 108.422 749.708 M103.746 747.717 Q100.737 746.976 99.0474 744.916 Q97.3808 742.856 97.3808 739.893 Q97.3808 735.749 100.321 733.342 Q103.284 730.935 108.422 730.935 Q113.584 730.935 116.524 733.342 Q119.464 735.749 119.464 739.893 Q119.464 742.856 117.774 744.916 Q116.108 746.976 113.121 747.717 Q116.501 748.504 118.376 750.796 Q120.274 753.087 120.274 756.397 Q120.274 761.421 117.195 764.106 Q114.14 766.791 108.422 766.791 Q102.705 766.791 99.6261 764.106 Q96.5706 761.421 96.5706 756.397 Q96.5706 753.087 98.4687 750.796 Q100.367 748.504 103.746 747.717 M102.034 740.333 Q102.034 743.018 103.7 744.522 Q105.39 746.027 108.422 746.027 Q111.432 746.027 113.121 744.522 Q114.834 743.018 114.834 740.333 Q114.834 737.648 113.121 736.143 Q111.432 734.638 108.422 734.638 Q105.39 734.638 103.7 736.143 Q102.034 737.648 102.034 740.333 Z" fill="#000000" fill-rule="nonzero" fill-opacity="1" /><path clip-path="url(#clip190)" d="M63.2837 404.207 Q59.6726 404.207 57.8439 407.771 Q56.0384 411.313 56.0384 418.443 Q56.0384 425.549 57.8439 429.114 Q59.6726 432.656 63.2837 432.656 Q66.918 432.656 68.7235 429.114 Q70.5522 425.549 70.5522 418.443 Q70.5522 411.313 68.7235 407.771 Q66.918 404.207 63.2837 404.207 M63.2837 400.503 Q69.0939 400.503 72.1494 405.109 Q75.2281 409.693 75.2281 418.443 Q75.2281 427.169 72.1494 431.776 Q69.0939 436.359 63.2837 436.359 Q57.4736 436.359 54.3949 431.776 Q51.3393 427.169 51.3393 418.443 Q51.3393 409.693 54.3949 405.109 Q57.4736 400.503 63.2837 400.503 Z" fill="#000000" fill-rule="nonzero" fill-opacity="1" /><path clip-path="url(#clip190)" d="M83.4457 429.808 L88.3299 429.808 L88.3299 435.688 L83.4457 435.688 L83.4457 429.808 Z" fill="#000000" fill-rule="nonzero" fill-opacity="1" /><path clip-path="url(#clip190)" d="M98.6539 434.97 L98.6539 430.711 Q100.413 431.544 102.219 431.984 Q104.024 432.424 105.76 432.424 Q110.39 432.424 112.82 429.322 Q115.274 426.197 115.621 419.855 Q114.279 421.845 112.219 422.91 Q110.158 423.975 107.658 423.975 Q102.473 423.975 99.4409 420.85 Q96.4317 417.702 96.4317 412.262 Q96.4317 406.938 99.5798 403.721 Q102.728 400.503 107.959 400.503 Q113.955 400.503 117.103 405.109 Q120.274 409.693 120.274 418.443 Q120.274 426.614 116.385 431.498 Q112.52 436.359 105.969 436.359 Q104.209 436.359 102.404 436.012 Q100.598 435.665 98.6539 434.97 M107.959 420.318 Q111.108 420.318 112.936 418.165 Q114.788 416.012 114.788 412.262 Q114.788 408.535 112.936 406.383 Q111.108 404.207 107.959 404.207 Q104.811 404.207 102.959 406.383 Q101.131 408.535 101.131 412.262 Q101.131 416.012 102.959 418.165 Q104.811 420.318 107.959 420.318 Z" fill="#000000" fill-rule="nonzero" fill-opacity="1" /><path clip-path="url(#clip190)" d="M53.9088 101.321 L61.5476 101.321 L61.5476 74.9555 L53.2375 76.6222 L53.2375 72.3629 L61.5013 70.6963 L66.1772 70.6963 L66.1772 101.321 L73.8161 101.321 L73.8161 105.256 L53.9088 105.256 L53.9088 101.321 Z" fill="#000000" fill-rule="nonzero" fill-opacity="1" /><path clip-path="url(#clip190)" d="M83.2605 99.3767 L88.1447 99.3767 L88.1447 105.256 L83.2605 105.256 L83.2605 99.3767 Z" fill="#000000" fill-rule="nonzero" fill-opacity="1" /><path clip-path="url(#clip190)" d="M108.33 73.775 Q104.719 73.775 102.89 77.3398 Q101.084 80.8814 101.084 88.011 Q101.084 95.1174 102.89 98.6822 Q104.719 102.224 108.33 102.224 Q111.964 102.224 113.77 98.6822 Q115.598 95.1174 115.598 88.011 Q115.598 80.8814 113.77 77.3398 Q111.964 73.775 108.33 73.775 M108.33 70.0713 Q114.14 70.0713 117.195 74.6777 Q120.274 79.261 120.274 88.011 Q120.274 96.7378 117.195 101.344 Q114.14 105.928 108.33 105.928 Q102.52 105.928 99.4409 101.344 Q96.3854 96.7378 96.3854 88.011 Q96.3854 79.261 99.4409 74.6777 Q102.52 70.0713 108.33 70.0713 Z" fill="#000000" fill-rule="nonzero" fill-opacity="1" /><polyline clip-path="url(#clip192)" style="stroke:#009af9; stroke-linecap:round; stroke-linejoin:round; stroke-width:4; stroke-opacity:1; fill:none" points="218.439,87.9763 252.975,120.92 287.51,153.396 322.046,185.41 356.582,216.972 391.118,248.088 425.654,278.766 460.19,309.014 494.726,338.837 529.262,368.244 563.798,397.242 598.333,425.836 632.869,454.034 667.405,481.842 701.941,509.266 736.477,536.313 771.013,562.989 805.549,589.3 840.085,615.252 874.62,640.851 909.156,666.102 943.692,691.011 978.228,715.584 1012.76,739.825 1047.3,763.741 1081.84,787.336 1116.37,810.616 1150.91,833.586 1185.44,856.25 1219.98,878.614 1254.52,900.681 1289.05,922.458 1323.59,943.948 1358.12,965.157 1392.66,986.088 1427.19,1006.75 1461.73,1027.13 1496.27,1047.26 1530.8,1067.12 1565.34,1086.73 1599.87,1106.08 1634.41,1125.19 1668.95,1144.05 1703.48,1162.67 1738.02,1181.05 1772.55,1199.2 1807.09,1217.12 1841.62,1234.82 1876.16,1252.29 1910.7,1269.54 1945.23,1286.57 1979.77,1303.39 2014.3,1320 2048.84,1336.41 2083.38,1352.61 2117.91,1368.61 2152.45,1384.41 2186.98,1400.02 2221.52,1415.44 2256.06,1430.67 2290.59,1445.72 "/>
<path clip-path="url(#clip190)" d="M2007.46 198.898 L2279.54 198.898 L2279.54 95.2176 L2007.46 95.2176  Z" fill="#ffffff" fill-rule="evenodd" fill-opacity="1"/>
<polyline clip-path="url(#clip190)" style="stroke:#000000; stroke-linecap:round; stroke-linejoin:round; stroke-width:4; stroke-opacity:1; fill:none" points="2007.46,198.898 2279.54,198.898 2279.54,95.2176 2007.46,95.2176 2007.46,198.898 "/>
<polyline clip-path="url(#clip190)" style="stroke:#009af9; stroke-linecap:round; stroke-linejoin:round; stroke-width:4; stroke-opacity:1; fill:none" points="2031.87,147.058 2178.3,147.058 "/>
<path clip-path="url(#clip190)" d="M2216.55 166.745 Q2214.74 171.375 2213.03 172.787 Q2211.32 174.199 2208.44 174.199 L2205.04 174.199 L2205.04 170.634 L2207.54 170.634 Q2209.3 170.634 2210.27 169.8 Q2211.25 168.967 2212.43 165.865 L2213.19 163.921 L2202.7 138.412 L2207.22 138.412 L2215.32 158.689 L2223.42 138.412 L2227.94 138.412 L2216.55 166.745 Z" fill="#000000" fill-rule="nonzero" fill-opacity="1" /><path clip-path="url(#clip190)" d="M2235.23 160.402 L2242.87 160.402 L2242.87 134.037 L2234.56 135.703 L2234.56 131.444 L2242.82 129.778 L2247.5 129.778 L2247.5 160.402 L2255.13 160.402 L2255.13 164.338 L2235.23 164.338 L2235.23 160.402 Z" fill="#000000" fill-rule="nonzero" fill-opacity="1" /></svg>
